<?xml version="1.0" encoding="utf-8"?>
<!-- Generator: Adobe Illustrator 22.1.0, SVG Export Plug-In . SVG Version: 6.00 Build 0)  -->
<svg version="1.1" id="Layer_1" xmlns="http://www.w3.org/2000/svg" xmlns:xlink="http://www.w3.org/1999/xlink" x="0px" y="0px"
	 width="1920px" height="1080px" viewBox="0 0 1920 1080" enable-background="new 0 0 1920 1080" xml:space="preserve">
<g>
	<rect x="1202.8730469" y="369.4697266" width="85.6035156" height="353.5478516"/>
	<rect x="1321.1074219" y="369.4697266" width="85.6035156" height="353.5478516"/>
	<polygon points="943.8446655,611.8740234 883.3070679,480.3945312 829.390564,480.3945312 768.8529663,608.0908203 
		710.6801147,480.3945312 629.2700195,480.3945312 629.2700195,408.5595703 543.6660156,408.5595703 543.6660156,480.3945312 
		512.2890625,480.3945312 512.2890625,551.8095703 543.6660156,551.8095703 543.6660156,723.0175781 629.2700195,723.0175781 
		629.2700195,551.8095703 651.756897,551.8095703 739.5302124,723.0175781 797.703064,723.0175781 855.402771,590.1191406 
		915.9403687,723.0175781 973.1679077,723.0175781 1062.6096191,551.8095703 1084.6386719,551.8095703 1084.6386719,723.0175781 
		1170.2421875,723.0175781 1170.2421875,480.3945312 1004.8554077,480.3945312 	"/>
	<circle cx="1127.1932373" cy="405.2231445" r="48.2407227"/>
</g>
</svg>
