<?xml version="1.0" encoding="UTF-8"?>
<svg width="135px" height="140px" viewBox="0 0 135 140" version="1.1" xmlns="http://www.w3.org/2000/svg" xmlns:xlink="http://www.w3.org/1999/xlink">
    <title>LaravelBrandMark</title>
    <g id="web2021" stroke="none" stroke-width="1" fill="none" fill-rule="evenodd">
        <g id="11_Contact" transform="translate(-1132.000000, -256.000000)" fill="#FF2D20" fill-rule="nonzero">
            <g id="Group-2" transform="translate(1015.000000, 216.000000)">
                <path d="M251.8535,71.6629302 C251.8535,71.5890808 251.78025,71.5152314 251.78025,71.5152314 C251.706999,71.3675326 251.706999,71.2936832 251.633749,71.1459844 C251.560499,71.072135 251.560499,70.9982856 251.487249,70.9244362 C251.413999,70.8505868 251.340749,70.7767374 251.267499,70.702888 C251.194249,70.6290386 251.120998,70.6290386 251.047748,70.5551892 C250.974498,70.4813398 250.901248,70.4074904 250.827998,70.333641 C250.827998,70.333641 250.827998,70.333641 250.827998,70.333641 C250.827998,70.333641 250.827998,70.333641 250.827998,70.333641 L224.75095,55.194514 C224.091698,54.825267 223.285947,54.825267 222.553445,55.194514 L196.403147,70.333641 C196.403147,70.333641 196.403147,70.333641 196.403147,70.333641 C196.403147,70.333641 196.403147,70.333641 196.403147,70.333641 C196.329897,70.4074904 196.256647,70.4813398 196.183397,70.5551892 C196.110147,70.6290386 196.036896,70.6290386 195.963646,70.702888 C195.890396,70.7767374 195.817146,70.8505868 195.743896,70.9244362 C195.670646,70.9982856 195.670646,71.072135 195.597396,71.1459844 C195.524145,71.2198338 195.524145,71.3675326 195.450895,71.5152314 C195.450895,71.5890808 195.377645,71.6629302 195.377645,71.6629302 C195.304395,71.810629 195.304395,72.0321772 195.304395,72.2537254 L195.304395,101.054991 L173.549105,113.683239 L173.549105,57.3361466 C173.549105,57.1145984 173.549105,56.9668996 173.475855,56.7453514 C173.475855,56.671502 173.402604,56.5976526 173.402604,56.5976526 C173.329354,56.4499538 173.329354,56.3761044 173.256104,56.2284056 C173.182854,56.1545562 173.182854,56.0807068 173.109604,56.0068574 C173.036354,55.933008 172.963104,55.8591586 172.889853,55.7853092 C172.816603,55.7114598 172.743353,55.7114598 172.670103,55.6376104 C172.596853,55.563761 172.523603,55.4899116 172.450353,55.4160622 C172.450353,55.4160622 172.450353,55.4160622 172.450353,55.4160622 C172.450353,55.4160622 172.450353,55.4160622 172.450353,55.4160622 L146.373304,40.2769352 C145.714053,39.9076883 144.908302,39.9076883 144.1758,40.2769352 L118.098752,55.4160622 C118.098752,55.4160622 118.098752,55.4160622 118.098752,55.4160622 C118.098752,55.4160622 118.098752,55.4160622 118.098752,55.4160622 C118.025502,55.4899116 117.952252,55.563761 117.879002,55.6376104 C117.805751,55.7114598 117.732501,55.7114598 117.659251,55.7853092 C117.586001,55.8591586 117.512751,55.933008 117.439501,56.0068574 C117.366251,56.0807068 117.366251,56.1545562 117.293001,56.2284056 C117.21975,56.302255 117.21975,56.4499538 117.1465,56.5976526 C117.1465,56.671502 117.07325,56.7453514 117.07325,56.7453514 C117,56.8930502 117,57.1145984 117,57.3361466 L117,147.506264 C117,148.318607 117.439501,148.983252 118.098752,149.426348 L170.326099,179.704602 C170.472599,179.778452 170.545849,179.778452 170.692349,179.852301 C170.7656,179.852301 170.83885,179.926151 170.83885,179.926151 C170.98535,180 171.2051,180 171.424851,180 C171.644601,180 171.791101,180 172.010852,179.926151 C172.084102,179.926151 172.084102,179.852301 172.157352,179.852301 C172.303852,179.778452 172.450353,179.778452 172.523603,179.704602 L224.75095,149.426348 C225.410201,149.057101 225.849702,148.318607 225.849702,147.506264 L225.849702,118.704998 L250.901248,104.156666 C251.560499,103.787419 252,103.048925 252,102.236582 L252,72.179876 C251.92675,72.0321772 251.92675,71.810629 251.8535,71.6629302 Z M171.424851,144.995384 L149.742811,132.588685 L172.523603,119.369643 C172.523603,119.369643 172.523603,119.369643 172.523603,119.369643 L197.575149,104.821311 L219.33044,117.449558 L203.28866,126.606884 L171.424851,144.995384 Z M221.454693,88.6482922 L221.454693,113.609389 L212.298426,108.292233 L199.699403,100.981142 L199.699403,76.0200448 L208.85567,81.3372016 L221.454693,88.6482922 Z M223.652198,59.625478 L245.407488,72.2537254 L223.652198,84.8819728 L201.896907,72.2537254 L223.652198,59.625478 Z M156.628323,123.505209 L147.472056,128.822366 L147.472056,73.8045628 L160.07108,66.4934722 L169.227347,61.1763154 L169.227347,116.194118 L156.628323,123.505209 Z M145.274552,44.7078992 L167.029843,57.3361466 L145.274552,69.964394 L123.519262,57.3361466 L145.274552,44.7078992 Z M121.395008,61.102466 L130.551275,66.4196228 L143.150298,73.7307134 L143.150298,132.588685 C143.150298,132.588685 143.150298,132.588685 143.150298,132.588685 C143.150298,132.588685 143.150298,132.588685 143.150298,132.588685 C143.150298,132.662535 143.150298,132.736384 143.150298,132.810233 C143.150298,132.884083 143.150298,133.031782 143.223549,133.105631 C143.223549,133.105631 143.223549,133.105631 143.223549,133.105631 C143.223549,133.17948 143.296799,133.25333 143.296799,133.327179 C143.370049,133.401029 143.370049,133.548727 143.443299,133.622577 C143.443299,133.622577 143.443299,133.622577 143.443299,133.622577 C143.516549,133.696426 143.516549,133.770276 143.589799,133.844125 C143.663049,133.917974 143.663049,133.991824 143.7363,134.065673 C143.7363,134.065673 143.7363,134.065673 143.7363,134.065673 C143.80955,134.139523 143.8828,134.139523 143.95605,134.213372 C144.0293,134.287221 144.10255,134.361071 144.1758,134.361071 C144.1758,134.361071 144.1758,134.361071 144.1758,134.361071 C144.1758,134.361071 144.1758,134.361071 144.1758,134.361071 L169.154097,148.614005 L169.154097,173.8705 L121.248508,146.103125 L121.248508,61.102466 L121.395008,61.102466 Z M221.454693,146.250824 L173.549105,174.018199 L173.549105,148.761704 L209.00217,128.379269 L221.454693,121.215878 L221.454693,146.250824 L221.454693,146.250824 Z M247.531742,100.981142 L225.776451,113.609389 L225.776451,88.6482922 L238.375475,81.3372016 L247.531742,76.0200448 L247.531742,100.981142 Z" id="LaravelBrandMark"></path>
            </g>
        </g>
    </g>
</svg>