<?xml version="1.0" encoding="UTF-8"?>
<svg width="24px" height="20px" viewBox="0 0 24 20" version="1.1" xmlns="http://www.w3.org/2000/svg" xmlns:xlink="http://www.w3.org/1999/xlink">
    <title>IconTwitter@3x</title>
    <g id="Symbols" stroke="none" stroke-width="1" fill="none" fill-rule="evenodd">
        <g id="UI-/-Footer" transform="translate(-915.000000, -442.000000)" fill="#090910">
            <g id="//Footer" transform="translate(215.000000, 0.000000)">
                <g id="Social-networks" transform="translate(700.390000, 439.000000)">
                    <g id="Bold" transform="translate(0.000000, 3.560000)">
                        <path d="M22.9300003,3.88 C23.0751092,3.75938727 23.1399595,3.56735697 23.0976851,3.38346327 C23.0554106,3.19956956 22.9132125,3.05513662 22.7300003,3.01 L21.9400003,2.81 C21.7945425,2.77358414 21.6731069,2.67380957 21.6091666,2.53817873 C21.5452263,2.40254788 21.5455324,2.24538083 21.6100003,2.11 L22.0500003,1.22 C22.134882,1.04388329 22.1093304,0.834449876 21.984595,0.683907203 C21.8598597,0.533364529 21.6588248,0.469331502 21.4700003,0.52 L19.4700003,1.08 C19.3189168,1.12406602 19.1559032,1.09442719 19.0300003,1 C18.1645194,0.350889359 17.1118513,0 16.0300003,0 C13.2685765,0 11.0300003,2.23857625 11.0300003,5 L11.0300003,5.36 C11.0309187,5.48715642 10.9362415,5.59474415 10.8100003,5.61 C8,5.94 5.31000027,4.51 2.41000027,1.17 C2.28156151,1.02834766 2.08467776,0.970440674 1.90000027,1.02 C1.73377723,1.0964045 1.62255209,1.25748918 1.61000027,1.44 C1.20945777,3.08534174 1.37140039,4.8174236 2.07000027,6.36 C2.11213789,6.44340635 2.10424201,6.54334998 2.04953012,6.6191049 C1.99481824,6.69485981 1.90242522,6.73377773 1.81000027,6.72 L0.690000268,6.5 C0.528566711,6.47404524 0.364641891,6.52866173 0.251035466,6.64625434 C0.13742904,6.76384696 0.0884959117,6.92955712 0.120000268,7.09 C0.294890392,8.64455947 1.16689571,10.0353528 2.49000027,10.87 C2.57624785,10.9117716 2.63102779,10.9991694 2.63102779,11.095 C2.63102779,11.1908306 2.57624785,11.2782284 2.49000027,11.32 L1.96000027,11.53 C1.82986257,11.5821726 1.72760941,11.6865882 1.67817139,11.8177891 C1.62873337,11.94899 1.63665332,12.0949202 1.70000027,12.22 C2.29493607,13.521805 3.4909255,14.4486969 4.90000027,14.7 C4.99887139,14.7358854 5.06470666,14.829818 5.06470666,14.935 C5.06470666,15.040182 4.99887139,15.1341146 4.90000027,15.17 C3.54036376,15.732336 2.08126474,16.0146326 0.610000268,16 C0.333857897,15.9447715 0.0652287552,16.1238576 0.0100002812,16.4 C-0.0452281928,16.6761424 0.1338579,16.9447715 0.410000268,17 C2.95754497,18.2082457 5.73118316,18.8658773 8.55000027,18.93 C11.0294536,18.9678164 13.4647825,18.2720081 15.5500003,16.93 C19.0337783,14.6044785 21.1212289,10.6886314 21.1100003,6.5 L21.1100003,5.63 C21.1112355,5.48303474 21.1770675,5.3440559 21.2900003,5.25 L22.9300003,3.88 Z" id="Shape"></path>
                    </g>
                </g>
            </g>
        </g>
    </g>
</svg>