<svg xmlns="http://www.w3.org/2000/svg" fill="none" viewBox="0 0 240 47"><path fill="#9AC31C" d="M22.57 1.9h.85C12.38 2.1 3.56 5.85 3.56 10.46c0 4.72 9.26 8.55 20.68 8.55 10.58 0 19.3-3.28 20.53-7.52.1.42.16.85.16 1.29 0 6-10.01 10.86-22.36 10.86S1.48 18.77 1.48 12.77c0-6 8.74-10.87 21.09-10.87z"/><path fill="#2d2e87" d="M141.6 40.12h1.49l-2.62 6.58-1.94-4.1-1.96 4.1-2.6-6.58h1.49L136.8 44l1.73-4.19 1.74 4.19 1.33-3.88zm6.48 3.07c.2.32.3.69.3 1.12a2.03 2.03 0 01-1.1 1.87c-.34.18-.73.26-1.16.26-.43 0-.81-.08-1.15-.26a2.02 2.02 0 01-1.1-1.87 2.04 2.04 0 011.1-1.87c.34-.18.72-.27 1.15-.27.43 0 .82.09 1.16.27.34.18.6.43.8.75zm-.87 1.12c0-.23-.05-.44-.14-.62a1.03 1.03 0 00-.95-.55 1.03 1.03 0 00-.94.55c-.1.18-.15.39-.15.62 0 .23.05.43.15.6a1.07 1.07 0 001.89 0c.1-.17.14-.37.14-.6zm5.28-2.15c-.22 0-.42.08-.62.23-.14.1-.25.24-.36.4v-.53h-1.12v4.1h1.12v-2.18c0-.2.03-.36.08-.5a.69.69 0 01.22-.33c.1-.07.23-.11.37-.11.12 0 .22.02.3.06.07.04.15.09.23.16l.52-.98a.75.75 0 00-.32-.24 1.1 1.1 0 00-.42-.08zm6.45.1h-1.37l-1.5 1.44v-4.29h-1.1v6.95h1.1v-2.09l1.69 2.09h1.36l-1.93-2.4 1.75-1.7zm8.22 1.94a11.55 11.55 0 00-1.08-.48 1 1 0 01-.32-.17.31.31 0 01-.1-.24c0-.1.03-.18.1-.23a.53.53 0 01.3-.07c.2 0 .4.05.6.15.2.1.38.23.53.4l.5-.72a2.08 2.08 0 00-.45-.34 2.26 2.26 0 00-1.94-.2c-.22.09-.4.21-.53.38a1 1 0 00-.19.62c0 .26.06.47.17.63.12.16.26.3.44.4.18.09.36.17.55.24.2.07.36.13.5.2a.9.9 0 01.3.2c.06.07.1.16.1.26 0 .12-.05.22-.13.28-.08.07-.2.1-.35.1-.12 0-.25-.02-.38-.06a1.93 1.93 0 01-.42-.22 3.8 3.8 0 01-.48-.39l-.56.72c.16.15.33.29.52.42a2.6 2.6 0 001.44.42c.47 0 .83-.12 1.1-.34.26-.23.4-.55.4-.96a1 1 0 00-.17-.6 1.36 1.36 0 00-.45-.4zm5.87-1.46c.16.2.23.43.23.71v2.9h-1.1v-.58c-.03.05-.04.1-.08.14-.14.18-.33.31-.56.4-.22.09-.46.13-.7.13-.26 0-.5-.05-.72-.15a1.22 1.22 0 01-.73-1.15c0-.4.15-.7.42-.94a1.8 1.8 0 011.18-.35 2.62 2.62 0 011.19.28v-.44a.72.72 0 00-.06-.29.5.5 0 00-.16-.2.73.73 0 00-.26-.11c-.1-.03-.21-.04-.34-.04a2.31 2.31 0 00-1.25.37l-.43-.79c.21-.11.47-.22.78-.32a3.19 3.19 0 011.96 0c.27.1.48.24.63.43zm-.87 1.98a2.16 2.16 0 00-.87-.19c-.18 0-.32.02-.43.07-.12.04-.2.1-.25.18a.52.52 0 00-.08.3.53.53 0 00.33.5 1 1 0 00.82-.04.88.88 0 00.48-.82zm4.6-4.1c.04-.1.1-.17.16-.22a.38.38 0 01.22-.06c.07 0 .14.01.22.04.07.04.14.1.2.19l.48-.87a1.3 1.3 0 00-1.01-.41c-.31 0-.57.05-.78.17-.22.11-.38.28-.48.5-.1.2-.16.47-.16.79v1.5h-.48v.98h.48v3.13h1.1v-3.13h.97v-.97h-.96V41c0-.15.01-.28.05-.38zm6.55 2.5a2.38 2.38 0 01.24 1.3v.15h-3.14c.02.15.05.29.1.4.08.2.2.34.36.44.16.1.35.15.57.15.26 0 .47-.05.65-.14.18-.1.33-.25.45-.44l1 .3c-.21.4-.5.68-.84.88-.36.19-.78.28-1.27.28-.44 0-.83-.08-1.16-.26a1.89 1.89 0 01-.76-.75c-.18-.31-.27-.69-.27-1.12 0-.44.09-.82.27-1.14.18-.32.43-.56.76-.74.33-.17.72-.26 1.17-.26.45 0 .83.08 1.15.25.31.16.56.4.72.7zm-2.8.44l-.07.3h1.88c-.01-.16-.04-.3-.1-.42a.85.85 0 00-.8-.46 1 1 0 00-.56.15.92.92 0 00-.34.43zm5.46 1.55a.7.7 0 00-.52.2.7.7 0 00-.2.52c0 .19.06.36.2.5a.7.7 0 00.52.21.7.7 0 00.52-.21.7.7 0 00.2-.5.7.7 0 00-.72-.72zm7.83-4.99h-.81v6.24h1.22v-2.67h2.27v-1.06h-2.27v-1.4h2.36v-1.1h-2.77zm8.5 3a2.38 2.38 0 01.24 1.45h-3.13c.02.15.05.29.1.4.08.2.2.34.35.44.16.1.35.15.58.15.25 0 .47-.05.65-.14.18-.1.33-.25.45-.44l1 .3c-.22.4-.5.68-.85.88-.35.19-.77.28-1.26.28a2.4 2.4 0 01-1.16-.26 1.88 1.88 0 01-.77-.75c-.18-.31-.26-.69-.26-1.12 0-.44.08-.82.26-1.14.19-.32.44-.56.77-.74.33-.17.72-.26 1.17-.26.45 0 .83.08 1.15.25.31.16.55.4.72.7zm-2.79.44l-.08.3h1.88c0-.16-.04-.3-.1-.42a.84.84 0 00-.31-.33.9.9 0 00-.48-.13 1 1 0 00-.56.15.92.92 0 00-.35.43zm8.86-.43a2.39 2.39 0 01.23 1.44h-3.13c.02.15.05.29.1.4.08.2.2.34.36.44.16.1.35.15.57.15.26 0 .47-.05.65-.14.18-.1.33-.25.45-.44l1 .3c-.21.4-.5.68-.84.88-.36.19-.78.28-1.27.28a2.4 2.4 0 01-1.16-.26 1.88 1.88 0 01-.76-.75c-.18-.31-.27-.69-.27-1.12 0-.44.09-.82.27-1.14.18-.32.43-.56.77-.74.32-.17.72-.26 1.16-.26.45 0 .83.08 1.15.25.31.16.56.4.72.7zm-2.8.43l-.07.3h1.88c-.01-.16-.04-.3-.1-.42a.85.85 0 00-.8-.46 1 1 0 00-.56.15.92.92 0 00-.34.43zm5.07 2.8h1.15V39.4h-1.15v6.95zm9.72-2.16a12.17 12.17 0 00-1.08-.48 1 1 0 01-.32-.17.31.31 0 01-.1-.24c0-.1.03-.18.1-.23a.53.53 0 01.3-.07c.2 0 .4.05.6.15.2.1.38.23.53.4l.5-.72a2.13 2.13 0 00-.44-.34 2.26 2.26 0 00-1.94-.2c-.23.09-.4.21-.53.38a.99.99 0 00-.2.62c0 .26.06.47.17.63.12.16.26.3.44.4.18.09.36.17.55.24.2.07.37.13.5.2.13.05.22.12.3.2.06.07.1.16.1.26 0 .12-.05.22-.13.28-.08.07-.2.1-.35.1-.12 0-.25-.02-.38-.06a1.96 1.96 0 01-.42-.22c-.15-.1-.3-.23-.48-.39l-.56.72c.16.15.33.29.52.42a2.62 2.62 0 001.44.42c.47 0 .83-.12 1.1-.34.26-.23.4-.55.4-.96a1 1 0 00-.17-.6 1.36 1.36 0 00-.45-.4zm5.87-1.46c.16.2.23.43.23.71v2.9h-1.1v-.58c-.03.05-.04.1-.08.14-.14.18-.33.31-.56.4-.22.09-.46.13-.7.13-.26 0-.5-.05-.72-.15a1.22 1.22 0 01-.73-1.15c0-.4.15-.7.42-.94a1.8 1.8 0 011.18-.35 2.62 2.62 0 011.19.28v-.44a.72.72 0 00-.06-.29.49.49 0 00-.16-.2.73.73 0 00-.26-.11c-.1-.03-.21-.04-.34-.04a2.3 2.3 0 00-1.25.37l-.43-.79c.21-.11.47-.22.78-.32a3.2 3.2 0 011.96 0c.27.1.48.24.63.43zm-.87 1.98a2.15 2.15 0 00-.87-.19c-.18 0-.32.02-.43.07-.12.04-.2.1-.25.18a.53.53 0 00-.08.3.52.52 0 00.33.5c.1.05.22.07.34.07.18 0 .34-.04.48-.1a.89.89 0 00.48-.83zm4.61-4.1c.03-.1.08-.17.15-.22a.38.38 0 01.22-.06c.07 0 .15.01.22.04.07.04.14.1.2.19l.48-.87a1.34 1.34 0 00-.55-.35 1.46 1.46 0 00-.46-.06c-.31 0-.57.05-.78.17-.21.11-.38.28-.48.5-.1.2-.16.47-.16.79v1.5h-.48v.98h.48v3.13h1.1v-3.13h.97v-.97h-.96V41c0-.15.01-.28.05-.38zm6.54 2.5a2.38 2.38 0 01.23 1.45h-3.13c.02.15.05.29.1.4.08.2.2.34.36.44.16.1.35.15.57.15.26 0 .47-.05.65-.14.18-.1.33-.25.45-.44l1 .3c-.21.4-.5.68-.84.88-.36.19-.78.28-1.27.28a2.4 2.4 0 01-1.16-.26 1.88 1.88 0 01-.76-.75c-.18-.31-.27-.69-.27-1.12 0-.44.09-.82.27-1.14.18-.32.44-.56.76-.74.34-.17.72-.26 1.17-.26.45 0 .83.08 1.15.25.32.16.56.4.72.7zm-2.8.44l-.07.3h1.88c-.01-.16-.04-.3-.1-.42a.85.85 0 00-.8-.46c-.22 0-.4.05-.56.15a.92.92 0 00-.34.43zm5.46 1.55a.7.7 0 00-.52.2.7.7 0 00-.2.52c0 .19.06.36.2.5a.7.7 0 00.52.21c.2 0 .38-.07.52-.21a.7.7 0 00.2-.5.7.7 0 00-.72-.72zM165 21.14c-.97-.46-2.02-.85-3.16-1.16-1.08-.33-2-.6-2.74-.8a5.5 5.5 0 01-1.71-.74c-.4-.28-.6-.66-.6-1.14 0-.41.17-.76.5-1.04.34-.29.84-.45 1.5-.51.99-.08 2.06.1 3.24.56 1.17.46 2.22 1.08 3.14 1.86l2.11-5.07c-.85-.57-1.3-.86-2.28-1.26a13.7 13.7 0 00-6.64-1.02c-1.58.14-2.99.5-4.2 1.08a7.46 7.46 0 00-2.91 2.34 5.75 5.75 0 00-1.07 3.47c0 1.4.3 2.52.9 3.36.6.84 1.37 1.48 2.31 1.93.94.44 1.93.81 2.98 1.1 1.17.26 2.1.51 2.78.77.68.26 1.16.55 1.45.86.29.3.43.7.43 1.18 0 .5-.18.94-.52 1.28-.35.35-.9.55-1.62.61-.51.05-1.11 0-1.81-.15s-1.5-.45-2.4-.9c-.9-.45-1.73-.94-2.84-1.77l-2.33 5.44c.99.68 1.2.72 2.33 1.24a15.93 15.93 0 008.14 1.34c2.6-.21 4.63-.98 6.07-2.3 1.44-1.3 2.17-3.14 2.17-5.5 0-1.36-.3-2.43-.88-3.2a6.2 6.2 0 00-2.34-1.86zM79.04 10.77c-1.64 0-3.02.34-4.13 1.01a7.17 7.17 0 00-2.63 2.86v-3.21h-7.33V33.4h7.33V20c0-.86.16-1.6.48-2.22.32-.61.78-1.08 1.35-1.4a4.1 4.1 0 012.03-.49c1.16 0 1.99.36 2.49 1.07.5.7.74 1.73.74 3.05V33.4h7.58V19.24c0-2.68-.63-4.76-1.88-6.25-1.26-1.48-3.27-2.22-6.03-2.22zM240 22.06c0 .74-.04 1.45-.09 2.1h-16.64c.13 2.64 2.4 4.36 5.85 4.36 2.06 0 3.85-.7 5.38-2.16l3.8 3.65a12.7 12.7 0 01-9.48 4.04c-3.63 0-6.51-1.05-8.74-3.12-2.23-2.1-3.32-4.87-3.32-8.35v-.17c0-3.47 1.13-6.29 3.36-8.4 2.23-2.15 5.11-3.2 8.56-3.2 3.37 0 6.08 1.1 8.17 3.25a10.97 10.97 0 013.15 8zm-6.55-2.16c0-2.06-2.14-3.69-4.76-3.69-2.84 0-5.16 1.63-5.34 3.7h10.1zM127.2 14.01a11 11 0 013.14 8.02c0 .75-.04 1.45-.09 2.11h-16.64c.13 2.65 2.4 4.36 5.85 4.36 2.06 0 3.85-.7 5.38-2.15l3.8 3.65a12.7 12.7 0 01-9.48 4.05c-3.63 0-6.51-1.05-8.74-3.12-2.23-2.12-3.32-4.9-3.32-8.37v-.18c0-3.48 1.14-6.3 3.36-8.41 2.23-2.16 5.11-3.22 8.57-3.22 3.36 0 6.07 1.1 8.17 3.26zm-3.41 5.86c0-2.07-2.14-3.7-4.76-3.7-2.84 0-5.16 1.63-5.33 3.7h10.09zM53.76 33.41h6.75V11.43h-6.75V33.4zM38.58 16.1c-3.76-2.32-9.44-3.79-16.22-3.79h-.85c6.99.12 13.08 1.67 16.62 3.96l.45-.18zm2.48 3.31c.2.47.3.96.3 1.45 0 4.72-9.26 8.55-20.68 8.55-10.57 0-19.29-3.28-20.52-7.52-.1.43-.16.85-.16 1.29 0 6 10.01 10.87 22.36 10.87s21.09-4.87 21.09-10.87c0-1.54-.58-3-1.63-4.32-.24.19-.5.37-.76.55zm148.22 13.99v-2.28c-1.63 1.97-4.02 2.94-7.03 2.94-6.36 0-11.25-4.54-11.25-11.66 0-7.11 4.9-11.66 11.25-11.66 2.76 0 5.1.89 6.73 2.74V11.4h6.53v22h-6.23zm-.17-11c0-3.91-2.51-6.27-5.73-6.27-3.26 0-5.77 2.36-5.77 6.27 0 3.92 2.5 6.28 5.77 6.28 3.22 0 5.73-2.36 5.73-6.28zm20.32-12.49c0-.78.1-1.41.29-1.9.2-.48.46-.84.8-1.07a2.51 2.51 0 012.42-.05c.36.2.71.5 1.03.93l2.95-5.4a9.07 9.07 0 00-3.28-2.02 8.58 8.58 0 00-2.86-.41 9.9 9.9 0 00-4.62.97 6.46 6.46 0 00-2.8 2.77 9.23 9.23 0 00-.94 4.33v3.38h-2.8v5.97h2.8v15.99h7V17.42h5.38v-5.97h-5.37V9.92zM101.25 1.93l-7.02 3v6.5h-3.92v5.98h3.92v16h7.02v-16h3.97v-5.98h-3.97v-9.5zm39.32 12.38v-2.9h-6.58v22h6.58V22.7a5.62 5.62 0 015.89-5.98 8.56 8.56 0 012.84-5.76c-1.01-.14-1.95-.2-2.3-.2-3.04 0-5.42 1.29-6.43 3.55zm-86.8-6.2h6.74V1.96l-6.74 2.86V8.1z"/></svg>