<?xml version="1.0" encoding="UTF-8"?>
<svg width="431px" height="269px" viewBox="0 0 431 269" version="1.1" xmlns="http://www.w3.org/2000/svg" xmlns:xlink="http://www.w3.org/1999/xlink">
    <title>404</title>
    <g id="web2021" stroke="none" stroke-width="1" fill="none" fill-rule="evenodd">
        <g id="14_404-pagina" transform="translate(-584.000000, -216.000000)">
            <g id="404" transform="translate(585.000000, 218.000000)">
                <path d="M170.041667,0 L286,71.0862069 L313.041667,54.9811859 L340.083333,71.9264451 L340.083333,111.999881 L374.916667,88.619744 L374.916667,19.9454333 L401.958333,3 L429,19.9454333 L429,203.168966 L401.958333,221 L374.916667,204.054603 L374.916667,152.609295 L313.041667,186.804648 L286,171.995745 L286,249.031034 L258.958333,266 L143,201.334483 L115.958333,218 L88.9166667,201.334483 L88.9166667,149.609295 L27.0416667,184.824138 L0,168.995745 L0,68.9264451 L27.0416667,51.9811859 L54.0833333,68.239607 L54.0833333,109 L88.9166667,85.1850036 L88.9166667,16.9689655 L115.958333,0 L143,16.9454333 L170.041667,0 Z M195.708333,76.7123053 L195.708333,167.855172 L232.833333,191.244828 L232.833333,98.0084097 L195.708333,76.7123053 Z" id="Combined-Shape" fill="#FFFFFF"></path>
                <path d="M27.0416667,85.1850036 L54.0833333,68.239607 M27.0416667,85.1850036 L0,68.239607 M27.0416667,85.1850036 L27.0416667,185.941141 M54.0833333,68.239607 L27.0416667,51.2942103 L0,68.239607 M54.0833333,68.239607 L54.0833333,108.999881 M0,68.239607 L0,168.995745 L27.0416667,185.941141 M27.0416667,185.941141 L115.958333,133.731 L115.958333,218 M115.958333,103.96206 L54.0833333,141.974707 L54.0833333,108.999881 M115.958333,103.96206 L88.9166667,87.0169384 M115.958333,103.96206 L115.958333,33.89083 M88.9166667,87.0169384 L54.0833333,108.999881 M88.9166667,87.0169384 L88.9166667,16.9454333 M88.9166667,16.9454333 L115.958333,0 L143,16.9454333 M88.9166667,16.9454333 L115.958333,33.89083 M143,16.9454333 L115.958333,33.89083 M143,16.9454333 L143,201.054603 L115.958333,218 M115.958333,218 L88.9166667,201.054603 L88.9166667,149.609295" id="Shape" stroke="#FF2D20" stroke-width="2"></path>
                <path d="M143,16.9689655 L143,201.334483 L258.958333,266 M143,16.9689655 L170.041667,0 L285.541667,71.0862069 M143,16.9689655 L258.958333,88.0551724 M258.958333,266 L286,249.031034 L285.541667,71.0862069 M258.958333,266 L258.958333,88.0551724 M285.541667,71.0862069 L258.958333,88.0551724 M168.666667,184.824138 L168.666667,60.9965517 L195.708333,76.4585814 M168.666667,184.824138 L232.833333,221.513793 L232.833333,191.244828 M168.666667,184.824138 L195.708333,167.855172 M195.708333,167.855172 L232.833333,191.244828 M195.708333,167.855172 L195.708333,76.4585814 M232.833333,191.244828 L232.833333,97.6862069 L195.708333,76.4585814" id="Shape" stroke="#FF2D20" stroke-width="2"></path>
                <path d="M313.041667,88.1850036 L340.083333,71.239607 M313.041667,88.1850036 L286,71.239607 M313.041667,88.1850036 L313.041667,188.941141 M340.083333,71.239607 L313.041667,54.2942103 L286,71.239607 M340.083333,71.239607 L340.083333,111.999881 M286,71.239607 L286,171.995745 L313.041667,188.941141 M313.041667,188.941141 L401.958333,136.731 L401.958333,221 M401.958333,106.96206 L340.083333,144.974707 L340.083333,111.999881 M401.958333,106.96206 L374.916667,90.0169384 M401.958333,106.96206 L401.958333,36.89083 M374.916667,90.0169384 L340.083333,111.999881 M374.916667,90.0169384 L374.916667,19.9454333 M374.916667,19.9454333 L401.958333,3 L429,19.9454333 M374.916667,19.9454333 L401.958333,36.89083 M429,19.9454333 L401.958333,36.89083 M429,19.9454333 L429,204.054603 L401.958333,221 M401.958333,221 L374.916667,204.054603 L374.916667,152.609295" id="Shape" stroke="#FF2D20" stroke-width="2"></path>
            </g>
        </g>
    </g>
</svg>