<?xml version="1.0" encoding="UTF-8"?>
<svg width="256px" height="116px" viewBox="0 0 256 116" version="1.1" xmlns="http://www.w3.org/2000/svg" xmlns:xlink="http://www.w3.org/1999/xlink">
    <title>Untitled</title>
    <g id="Page-1" stroke="none" stroke-width="1" fill="none" fill-rule="evenodd">
        <g id="logo" fill-rule="nonzero">
            <path d="M48.4374102,44.4714967 C48.4374102,44.445151 48.4110998,44.4188053 48.4110998,44.4188053 C48.3847895,44.366114 48.3847895,44.3397683 48.3584791,44.287077 C48.3321687,44.2607313 48.3321687,44.2343856 48.3058583,44.20804 C48.279548,44.1816943 48.2532376,44.1553486 48.2269271,44.1290029 C48.2006168,44.1026573 48.1743064,44.1026573 48.1479961,44.0763116 C48.1216856,44.0499659 48.0953753,44.0236203 48.0690649,43.9972746 C48.0690649,43.9972746 48.0690649,43.9972746 48.0690649,43.9972746 C48.0690649,43.9972746 48.0690649,43.9972746 48.0690649,43.9972746 L38.7025695,38.5964115 C38.4657761,38.4646831 38.1763618,38.4646831 37.9132581,38.5964115 L28.5204523,43.9972746 C28.5204523,43.9972746 28.5204523,43.9972746 28.5204523,43.9972746 C28.5204523,43.9972746 28.5204523,43.9972746 28.5204523,43.9972746 C28.4941419,44.0236203 28.4678316,44.0499659 28.4415211,44.0763116 C28.4152108,44.1026573 28.3889004,44.1026573 28.3625901,44.1290029 C28.3362796,44.1553486 28.3099692,44.1816943 28.2836589,44.20804 C28.2573485,44.2343856 28.2573485,44.2607313 28.2310381,44.287077 C28.2047277,44.3134226 28.2047277,44.366114 28.1784174,44.4188053 C28.1784174,44.445151 28.152107,44.4714967 28.152107,44.4714967 C28.1257965,44.524188 28.1257965,44.603225 28.1257965,44.682262 L28.1257965,54.9570747 L20.3116137,59.4621848 L20.3116137,39.3604361 C20.3116137,39.2813991 20.3116137,39.2287077 20.2853033,39.1496707 C20.2853033,39.123325 20.2589928,39.0969794 20.2589928,39.0969794 C20.2326825,39.044288 20.2326825,39.0179424 20.2063721,38.9652509 C20.1800618,38.9389052 20.1800618,38.9125595 20.1537513,38.8862139 C20.127441,38.8598682 20.1011306,38.8335225 20.0748203,38.8071769 C20.0485098,38.7808312 20.0221994,38.7808312 19.9958891,38.7544855 C19.9695787,38.7281399 19.9432682,38.7017942 19.9169579,38.6754485 C19.9169579,38.6754485 19.9169579,38.6754485 19.9169579,38.6754485 C19.9169579,38.6754485 19.9169579,38.6754485 19.9169579,38.6754485 L10.5504625,33.2745856 C10.3136691,33.1428571 10.0242549,33.1428571 9.76115111,33.2745856 L0.394655705,38.6754485 C0.394655705,38.6754485 0.394655705,38.6754485 0.394655705,38.6754485 C0.394655705,38.6754485 0.394655705,38.6754485 0.394655705,38.6754485 C0.368345325,38.7017942 0.342034944,38.7281399 0.315724565,38.7544855 C0.289414184,38.7808312 0.263103803,38.7808312 0.236793423,38.8071769 C0.210483042,38.8335225 0.184172663,38.8598682 0.157862282,38.8862139 C0.131551902,38.9125595 0.131551902,38.9389052 0.105241521,38.9652509 C0.078931141,38.9915966 0.078931141,39.044288 0.0526207607,39.0969794 C0.0526207607,39.123325 0.0263103803,39.1496707 0.0263103803,39.1496707 C0,39.2023621 0,39.2813991 0,39.3604361 L0,71.5285032 C0,71.8183057 0.157862282,72.0554167 0.394655705,72.2134908 L19.1539569,83.0152168 C19.2065777,83.0415625 19.232888,83.0415625 19.2855089,83.0679082 C19.3118192,83.0679082 19.3381296,83.0942538 19.3381296,83.0942538 C19.3907503,83.1205995 19.4696814,83.1205995 19.5486126,83.1205995 C19.6275438,83.1205995 19.6801645,83.1205995 19.7590957,83.0942538 C19.785406,83.0942538 19.785406,83.0679082 19.8117164,83.0679082 C19.8643372,83.0415625 19.9169579,83.0415625 19.9432682,83.0152168 L38.7025695,72.2134908 C38.9393629,72.0817624 39.0972252,71.8183057 39.0972252,71.5285032 L39.0972252,61.2536907 L48.0953753,56.063593 C48.3321687,55.9318646 48.490031,55.6684079 48.490031,55.3786055 L48.490031,44.6559164 C48.4637207,44.603225 48.4637207,44.524188 48.4374102,44.4714967 Z M19.5486126,70.6327504 L11.76074,66.2066773 L19.9432682,61.4908017 C19.9432682,61.4908017 19.9432682,61.4908017 19.9432682,61.4908017 L28.9414184,56.300704 L36.7556014,60.8058142 L30.993628,64.0726777 L19.5486126,70.6327504 Z M37.5186023,50.5310015 L37.5186023,59.4358392 L34.2298049,57.5389506 L29.7044194,54.930729 L29.7044194,46.0258915 L32.993217,47.9227799 L37.5186023,50.5310015 Z M38.3079138,40.177152 L46.1220967,44.682262 L38.3079138,49.1873722 L30.4937308,44.682262 L38.3079138,40.177152 Z M14.2339158,62.9661594 L10.9451182,64.8630479 L10.9451182,45.2355212 L15.4705037,42.6272996 L18.7593012,40.7304111 L18.7593012,60.3579378 L14.2339158,62.9661594 Z M19.5702247,81.9265761 L54.8731172,77.7677233 M10.1558068,34.8553259 L17.9699898,39.3604361 L10.1558068,43.8655462 L2.34162385,39.3604361 L10.1558068,34.8553259 Z M1.57862282,40.7040654 L4.86742036,42.6009539 L9.39280579,45.2091756 L9.39280579,66.2066773 C9.39280579,66.2066773 9.39280579,66.2066773 9.39280579,66.2066773 C9.39280579,66.2066773 9.39280579,66.2066773 9.39280579,66.2066773 C9.39280579,66.2330229 9.39280579,66.2593686 9.39280579,66.2857143 C9.39280579,66.3120599 9.39280579,66.3647513 9.41911616,66.3910969 C9.41911616,66.3910969 9.41911616,66.3910969 9.41911616,66.3910969 C9.41911616,66.4174426 9.44542655,66.4437883 9.44542655,66.470134 C9.47173693,66.4964796 9.47173693,66.549171 9.4980473,66.5755166 C9.4980473,66.5755166 9.4980473,66.5755166 9.4980473,66.5755166 C9.52435769,66.6018623 9.52435769,66.628208 9.55066807,66.6545537 C9.57697845,66.6808993 9.57697845,66.707245 9.60328883,66.7335907 C9.60328883,66.7335907 9.60328883,66.7335907 9.60328883,66.7335907 C9.62959921,66.7599363 9.65590959,66.7599363 9.68221997,66.786282 C9.70853034,66.8126277 9.73484073,66.8389733 9.76115111,66.8389733 C9.76115111,66.8389733 9.76115111,66.8389733 9.76115111,66.8389733 C9.76115111,66.8389733 9.76115111,66.8389733 9.76115111,66.8389733 L18.7329909,71.9236884 L18.7329909,80.9339087 L1.52600206,71.0279355 L1.52600206,40.7040654 L1.57862282,40.7040654 Z M37.5186023,71.0806268 L20.3116137,80.9866001 L20.3116137,71.9763797 L33.0458377,64.7049739 L37.5186023,62.1494435 L37.5186023,71.0806268 L37.5186023,71.0806268 Z M46.8850978,54.930729 L39.0709149,59.4358392 L39.0709149,50.5310015 L43.5963002,47.9227799 L46.8850978,46.0258915 L46.8850978,54.930729 Z" id="Shape" fill="#FF2D20"></path>
            <g id="Group" transform="translate(61.355807, 0.000000)" fill="#090910">
                <path d="M0,0.895752895 L9.65590959,0.895752895 C13.9445016,0.895752895 17.2859198,2.02861685 19.6538541,4.32069044 C22.0217883,6.61276402 23.2057555,9.82693617 23.2057555,13.9895526 C23.2057555,18.1785147 22.0217883,21.4190324 19.6538541,23.711106 C17.2859198,26.0031796 13.9445016,27.1623892 9.65590959,27.1623892 L0,27.1623892 L0,0.895752895 Z M9.36649541,23.2895753 C15.417883,23.2895753 18.4172663,20.1807858 18.4172663,13.9895526 C18.4172663,7.85101067 15.3915725,4.76856688 9.36649541,4.76856688 L4.76217885,4.76856688 L4.76217885,23.2895753 L9.36649541,23.2895753 Z" id="Shape"></path>
                <path d="M44.6750258,8.53599818 L44.6750258,27.1623892 L40.1759509,27.1623892 L40.1759509,24.2907109 C39.5971224,25.3181922 38.807811,26.1085623 37.8080166,26.6618215 C36.8345325,27.2150806 35.7031861,27.4785374 34.4139775,27.4785374 C29.8622817,27.4785374 27.599589,24.923007 27.599589,19.8119464 L27.599589,8.56234386 L32.1775952,8.56234386 L32.1775952,19.8382921 C32.1775952,21.1819214 32.440699,22.183057 33.0195274,22.8153532 C33.5720454,23.4476493 34.4139775,23.7637973 35.5716343,23.7637973 C36.9134636,23.7637973 37.9921893,23.3159209 38.807811,22.4465137 C39.6234329,21.5771066 40.0180885,20.3915513 40.0180885,18.9161935 L40.0180885,8.56234386 L44.6750258,8.56234386 L44.6750258,8.53599818 Z" id="Path"></path>
                <path d="M55.541213,12.0136271 L55.541213,20.3388598 C55.541213,22.5255507 56.5673178,23.632069 58.593217,23.632069 C59.145735,23.632069 59.7771842,23.5266863 60.4349437,23.3422666 L60.4349437,27.0043152 C59.6193218,27.2941176 58.6458379,27.4521917 57.4881811,27.4521917 C55.3833506,27.4521917 53.752107,26.8725869 52.6207607,25.6870316 C51.4894144,24.5014763 50.9368964,22.8153532 50.9368964,20.6023166 L50.9368964,12.0399727 L47.3586847,12.0399727 L47.3586847,8.56234386 L50.9368964,8.56234386 L50.9368964,4.00454235 L55.541213,2.45014763 L55.541213,8.53599818 L60.4875644,8.53599818 L60.4875644,12.0136271 L55.541213,12.0136271 L55.541213,12.0136271 Z" id="Path"></path>
                <path d="M67.0388492,26.2929821 C65.6180886,25.5026119 64.5130527,24.3960936 63.7500516,22.9470816 C62.9870506,21.4980694 62.6187053,19.8119464 62.6187053,17.8887122 C62.6187053,15.9391324 63.0133609,14.2266636 63.8289828,12.7513059 C64.6182942,11.2759482 65.7496405,10.1167386 67.2230218,9.30002271 C68.6964032,8.48330683 70.3802675,8.06177606 72.2746148,8.06177606 C73.5901339,8.06177606 74.8793425,8.27254144 76.1159304,8.69407222 C77.3525183,9.11560299 78.3523127,9.69520781 79.0890034,10.4328867 L77.7997947,13.6734045 C77.0104833,13.0411083 76.1685511,12.5405405 75.3003085,12.2243925 C74.4057556,11.8818987 73.537513,11.7238247 72.6955809,11.7238247 C71.038027,11.7238247 69.722508,12.2507381 68.8016447,13.304565 C67.8807813,14.358392 67.4071945,15.8600954 67.4071945,17.8096752 C67.4071945,19.7856007 67.8807813,21.2873041 68.7753342,22.3147853 C69.6698871,23.3422666 71.0117166,23.86918 72.6955809,23.86918 C73.5638235,23.86918 74.432066,23.6847603 75.3003085,23.3422666 C76.1948614,22.9997729 77.0104833,22.499205 77.7997947,21.8669089 L79.0890034,25.1074268 C78.2996919,25.8451056 77.2735871,26.4247105 76.0369992,26.8462412 C74.774101,27.2677719 73.458582,27.4785374 72.0904421,27.4785374 C70.1434741,27.4521917 68.4596096,27.0570065 67.0388492,26.2929821 Z" id="Path"></path>
                <path d="M99.5058585,15.7283671 L99.5058585,27.1623892 L94.901542,27.1623892 L94.901542,15.9391324 C94.901542,14.4637746 94.6121277,13.383602 94.0596098,12.7249602 C93.5070918,12.0399727 92.6125388,11.697479 91.4548822,11.697479 C90.060432,11.697479 88.9290856,12.1453554 88.0608431,13.0411083 C87.1926005,13.9368612 86.7716344,15.1224165 86.7716344,16.5977742 L86.7716344,27.1360436 L82.1936283,27.1360436 L82.1936283,0 L86.7716344,0 L86.7716344,11.2232569 C87.4030836,10.2221213 88.2450156,9.43175107 89.3237413,8.87849193 C90.3761565,8.32523279 91.5601236,8.06177606 92.8493323,8.06177606 C97.2694762,8.06177606 99.5058585,10.6173064 99.5058585,15.7283671 Z" id="Path"></path>
                <polygon id="Path" points="0 45.1564842 4.76217885 45.1564842 4.76217885 67.4976152 17.0228161 67.4976152 17.0228161 71.3967749 1.49557197e-14 71.3967749 1.49557197e-14 45.1564842"></polygon>
                <path d="M37.9921893,52.7967294 L37.9921893,71.4231205 L33.4668038,71.4231205 L33.4668038,68.4460595 C32.9142858,69.4735408 32.098664,70.2902566 31.0462488,70.8698614 C29.9938336,71.4494662 28.783556,71.7392687 27.4417267,71.7392687 C25.8104832,71.7392687 24.3897226,71.3440835 23.1268243,70.5537134 C21.8639261,69.7633432 20.9167523,68.6568249 20.2063721,67.2078129 C19.5223023,65.7588007 19.1802673,64.0726777 19.1802673,62.1494435 C19.1802673,60.2262094 19.5223023,58.5400862 20.2326825,57.0383829 C20.9430628,55.5630252 21.9165468,54.4038156 23.1531346,53.560754 C24.416033,52.7440381 25.8367935,52.3225074 27.4154163,52.3225074 C28.7572457,52.3225074 29.9675232,52.6123097 31.0199385,53.1919146 C32.0723536,53.7715194 32.8879755,54.5618896 33.4404935,55.6157166 L33.4404935,52.8230751 L37.9921893,52.8230751 L37.9921893,52.7967294 Z M32.2039055,66.5228253 C33.0458377,65.4689984 33.4668038,63.967295 33.4668038,62.0704065 C33.4668038,60.0944811 33.0458377,58.5927776 32.2039055,57.5389506 C31.3619734,56.4851238 30.1780063,55.9582103 28.6256938,55.9582103 C27.0996917,55.9582103 25.9157246,56.5114695 25.0737925,57.591642 C24.2318603,58.6981603 23.8108942,60.1998637 23.8108942,62.1494435 C23.8108942,64.0726777 24.2318603,65.5480354 25.0737925,66.5755166 C25.9157246,67.6029979 27.1260021,68.1299115 28.6520042,68.1299115 C30.1780063,68.1035657 31.3619734,67.5766522 32.2039055,66.5228253 Z" id="Shape"></path>
                <path d="M54.857143,52.6650011 L54.8308326,56.8803089 C54.0415212,56.5641608 53.2258995,56.4060867 52.4102776,56.4060867 C50.8316549,56.4060867 49.6476877,56.8539632 48.832066,57.7760618 C48.0164441,58.6981603 47.5954781,59.8837156 47.5954781,61.385419 L47.5954781,71.4494662 L43.0174718,71.4494662 L43.0174718,58.0922098 C43.0174718,56.1162843 42.9122303,54.3774699 42.7280577,52.8230751 L47.0429601,52.8230751 L47.4113054,56.1162843 C47.8848922,54.9043833 48.6215829,53.9822847 49.6213773,53.3499886 C50.6211718,52.7176924 51.7788286,52.4015444 53.0417268,52.4015444 C53.7257967,52.348853 54.3309355,52.4542357 54.857143,52.6650011 Z" id="Path"></path>
                <path d="M74.8530321,52.7967294 L74.8530321,71.4231205 L70.3276466,71.4231205 L70.3276466,68.4460595 C69.7751287,69.4735408 68.9595069,70.2902566 67.9070916,70.8698614 C66.8546765,71.4494662 65.644399,71.7392687 64.3025696,71.7392687 C62.671326,71.7392687 61.2505654,71.3440835 59.9876672,70.5537134 C58.7247689,69.7633432 57.7775953,68.6568249 57.0672149,67.2078129 C56.3831451,65.7588007 56.0411101,64.0726777 56.0411101,62.1494435 C56.0411101,60.2262094 56.3831451,58.5400862 57.0935254,57.0383829 C57.8039056,55.5630252 58.7773897,54.4038156 60.0139776,53.560754 C61.2768758,52.7440381 62.6976363,52.3225074 64.2762593,52.3225074 C65.6180886,52.3225074 66.8283661,52.6123097 67.8807813,53.1919146 C68.9331966,53.7715194 69.7488183,54.5618896 70.3013363,55.6157166 L70.3013363,52.8230751 L74.8530321,52.8230751 L74.8530321,52.7967294 Z M69.0647484,66.5228253 C69.9066807,65.4689984 70.3276466,63.967295 70.3276466,62.0704065 C70.3276466,60.0944811 69.9066807,58.5927776 69.0647484,57.5389506 C68.2228162,56.4851238 67.0388492,55.9582103 65.4865368,55.9582103 C63.9605347,55.9582103 62.7765675,56.5114695 61.9346353,57.591642 C61.0927032,58.6981603 60.6717371,60.1998637 60.6717371,62.1494435 C60.6717371,64.0726777 61.0927032,65.5480354 61.9346353,66.5755166 C62.7765675,67.6029979 63.986845,68.1299115 65.5128471,68.1299115 C67.0651595,68.1035657 68.2491267,67.5766522 69.0647484,66.5228253 Z" id="Shape"></path>
                <polygon id="Path" points="97.4799592 52.8494208 89.3500516 71.4494662 85.3245635 71.4494662 77.2998974 52.8494208 82.1146971 52.8494208 87.4557043 66.2066773 92.9019531 52.8494208"></polygon>
                <path d="M115.818294,62.360209 L103.005139,62.360209 C103.110381,64.3624801 103.610278,65.8114922 104.504831,66.7599363 C105.399384,67.7083806 106.741213,68.1826028 108.504009,68.1826028 C110.529908,68.1826028 112.424255,67.5239609 114.187051,66.1803316 L115.50257,69.3418124 C114.608017,70.0531455 113.529291,70.6327504 112.240083,71.0542811 C110.950874,71.4758119 109.635355,71.712923 108.319836,71.712923 C105.267832,71.712923 102.873587,70.8435158 101.137102,69.1310469 C99.4006169,67.4185782 98.5323745,65.0474676 98.5323745,62.0440608 C98.5323745,60.1471724 98.9007198,58.4610492 99.6637208,56.9856916 C100.426722,55.5103339 101.505447,54.3511243 102.873587,53.5344083 C104.241727,52.7176924 105.82035,52.2961617 107.556835,52.2961617 C110.108942,52.2961617 112.134841,53.1128776 113.608222,54.7990006 C115.081604,56.458778 115.844605,58.7508516 115.844605,61.6488757 L115.844605,62.360209 L115.818294,62.360209 Z M104.636383,56.7222349 C103.873382,57.4599136 103.373484,58.4873949 103.136691,59.8837156 L111.792806,59.8837156 C111.634944,58.4873949 111.213978,57.433568 110.529908,56.7222349 C109.819528,56.0109016 108.872354,55.6420622 107.635766,55.6420622 C106.399178,55.6420622 105.399384,56.0109016 104.636383,56.7222349 Z" id="Shape"></path>
                <polygon id="Path" points="119.712231 44.287077 124.290237 44.287077 124.290237 71.4231205 119.712231 71.4231205"></polygon>
                <polygon id="Path" points="0 89.4172155 17.1280576 89.4172155 17.1280576 93.2109925 4.70955808 93.2109925 4.70955808 100.429707 16.3913669 100.429707 16.3913669 104.276175 4.70955808 104.276175 4.70955808 115.710197 0 115.710197"></polygon>
                <path d="M23.8108942,114.814445 C22.3638233,114.024074 21.2587873,112.89121 20.4957862,111.442198 C19.7327853,109.966841 19.3381296,108.254372 19.3381296,106.304792 C19.3381296,104.328867 19.7327853,102.616398 20.4957862,101.167386 C21.2587873,99.6920282 22.3638233,98.5855099 23.8108942,97.7951396 C25.2579652,97.0047694 26.9155192,96.6095843 28.8098665,96.6095843 C30.6779035,96.6095843 32.309147,97.0047694 33.7562179,97.7951396 C35.1769785,98.5855099 36.2820145,99.7183738 37.0450155,101.167386 C37.8080166,102.642744 38.2026723,104.355212 38.2026723,106.304792 C38.2026723,108.280718 37.8080166,109.993186 37.0450155,111.442198 C36.2820145,112.917556 35.1769785,114.024074 33.7562179,114.814445 C32.3354575,115.604815 30.6779035,116 28.8098665,116 C26.9155192,115.973654 25.2579652,115.578469 23.8108942,114.814445 Z M32.3617679,110.836248 C33.1773896,109.808767 33.5983557,108.307063 33.5983557,106.278446 C33.5983557,104.276175 33.1773896,102.774472 32.3354575,101.720645 C31.4935253,100.666818 30.3095581,100.139905 28.8098665,100.139905 C27.2575541,100.139905 26.0735869,100.666818 25.2316547,101.720645 C24.3897226,102.774472 23.9687565,104.276175 23.9687565,106.278446 C23.9687565,108.307063 24.3897226,109.808767 25.2053444,110.836248 C26.0209661,111.863729 27.2049333,112.364297 28.7572457,112.364297 C30.3358685,112.364297 31.546146,111.863729 32.3617679,110.836248 Z" id="Shape"></path>
                <path d="M59.1194247,97.0574607 L59.1194247,115.683852 L54.6203496,115.683852 L54.6203496,112.812173 C54.0415212,113.839655 53.2522099,114.630025 52.2524154,115.183284 C51.2789313,115.736543 50.147585,116 48.8583763,116 C44.3066805,116 42.0439877,113.44447 42.0439877,108.333409 L42.0439877,97.0838064 L46.621994,97.0838064 L46.621994,108.359755 C46.621994,109.703384 46.8850978,110.70452 47.4639261,111.336816 C48.0164441,111.969112 48.8583763,112.28526 50.0160331,112.28526 C51.3578625,112.28526 52.436588,111.837384 53.2522099,110.967976 C54.0678316,110.098569 54.4624874,108.913014 54.4624874,107.437656 L54.4624874,97.0838064 L59.1194247,97.0838064 L59.1194247,97.0574607 Z" id="Path"></path>
                <path d="M81.4569376,104.24983 L81.4569376,115.683852 L76.852621,115.683852 L76.852621,104.460595 C76.852621,102.985237 76.5632069,101.905065 76.0106889,101.246423 C75.4581709,100.561435 74.563618,100.218942 73.4059612,100.218942 C72.0115111,100.218942 70.8801646,100.666818 70.0119221,101.562571 C69.1436796,102.458324 68.7227135,103.643879 68.7227135,105.119237 L68.7227135,115.657506 L64.1447072,115.657506 L64.1447072,102.30025 C64.1447072,100.324324 64.0394657,98.5855099 63.8552931,97.0311151 L68.1701955,97.0311151 L68.5122305,100.087213 C69.1436796,98.9543493 70.0119221,98.084942 71.116958,97.4789916 C72.221994,96.873041 73.4322715,96.556893 74.8267217,96.556893 C79.2205553,96.5832387 81.4569376,99.138769 81.4569376,104.24983 Z" id="Path"></path>
                <path d="M104.136485,88.5478083 L104.136485,115.683852 L99.6111,115.683852 L99.6111,112.706791 C99.058582,113.734272 98.2429603,114.550988 97.190545,115.130593 C96.1381298,115.710197 94.9278523,116 93.5860229,116 C91.9810897,116 90.5603291,115.604815 89.3237413,114.788099 C88.0608431,113.971383 87.087359,112.838519 86.4032891,111.336816 C85.6929088,109.861458 85.3508738,108.148989 85.3508738,106.225755 C85.3508738,104.302521 85.6929088,102.616398 86.3769788,101.167386 C87.0610486,99.7183738 88.0345327,98.5855099 89.2974309,97.7951396 C90.5603291,97.0047694 91.9810897,96.6095843 93.6123333,96.6095843 C94.9278523,96.6095843 96.1118195,96.873041 97.1642346,97.4263003 C98.2166499,97.9795593 99.0059613,98.7699296 99.5847896,99.7710652 L99.5847896,88.5478083 L104.136485,88.5478083 Z M98.3482018,110.783557 C99.190134,109.72973 99.6111,108.228026 99.6111,106.278446 C99.6111,104.328867 99.190134,102.827163 98.3482018,101.773336 C97.5062696,100.719509 96.3223025,100.192596 94.8226108,100.192596 C93.2702984,100.192596 92.0863312,100.719509 91.2443991,101.773336 C90.4024669,102.827163 89.9815008,104.302521 89.9815008,106.225755 C89.9815008,108.175335 90.4024669,109.677038 91.2443991,110.757211 C92.0863312,111.837384 93.2702984,112.390643 94.7963004,112.390643 C96.2959921,112.364297 97.4799592,111.837384 98.3482018,110.783557 Z" id="Shape"></path>
                <path d="M126.947585,97.0574607 L126.947585,115.683852 L122.395889,115.683852 L122.395889,112.706791 C121.843371,113.734272 121.02775,114.550988 119.975334,115.130593 C118.922919,115.710197 117.712642,116 116.370812,116 C114.739569,116 113.318808,115.604815 112.05591,114.814445 C110.793012,114.024074 109.845838,112.917556 109.135458,111.468544 C108.451388,110.019532 108.109353,108.333409 108.109353,106.410175 C108.109353,104.486941 108.451388,102.800818 109.161768,101.299114 C109.872148,99.8237565 110.845632,98.6645469 112.08222,97.8214853 C113.345119,97.0047694 114.765879,96.5832387 116.344502,96.5832387 C117.686331,96.5832387 118.896609,96.873041 119.949024,97.4526459 C121.001439,98.0322507 121.817061,98.8226209 122.369579,99.8764479 L122.369579,97.0838064 L126.947585,97.0838064 L126.947585,97.0574607 Z M121.159301,110.783557 C122.001234,109.72973 122.4222,108.228026 122.4222,106.331138 C122.4222,104.355212 122.001234,102.853509 121.159301,101.799682 C120.317369,100.745855 119.133402,100.218942 117.58109,100.218942 C116.055088,100.218942 114.871121,100.772201 114.029188,101.852373 C113.187256,102.958892 112.76629,104.460595 112.76629,106.410175 C112.76629,108.333409 113.187256,109.808767 114.029188,110.836248 C114.871121,111.863729 116.081398,112.390643 117.6074,112.390643 C119.133402,112.364297 120.317369,111.837384 121.159301,110.783557 Z" id="Shape"></path>
                <path d="M137.813772,100.53509 L137.813772,108.860322 C137.813772,111.047013 138.839877,112.153532 140.865776,112.153532 C141.418294,112.153532 142.049744,112.048149 142.707503,111.863729 L142.707503,115.525778 C141.891881,115.81558 140.918397,115.973654 139.76074,115.973654 C137.65591,115.973654 136.024666,115.394049 134.89332,114.208494 C133.761974,113.022939 133.209455,111.336816 133.209455,109.123779 L133.209455,100.561435 L129.631244,100.561435 L129.631244,97.0838064 L133.209455,97.0838064 L133.209455,92.5260049 L137.813772,90.9716102 L137.813772,97.0574607 L142.760124,97.0574607 L142.760124,100.53509 L137.813772,100.53509 L137.813772,100.53509 Z" id="Path"></path>
                <path d="M150.732168,88.6268453 L150.732168,93.1583011 L145.601644,93.1583011 L145.601644,88.6268453 L150.732168,88.6268453 Z M145.917369,97.0574607 L150.495375,97.0574607 L150.495375,115.683852 L145.917369,115.683852 L145.917369,97.0574607 Z" id="Shape"></path>
                <path d="M158.967319,114.814445 C157.520247,114.024074 156.415211,112.89121 155.65221,111.442198 C154.889209,109.966841 154.494554,108.254372 154.494554,106.304792 C154.494554,104.328867 154.889209,102.616398 155.65221,101.167386 C156.415211,99.6920282 157.520247,98.5855099 158.967319,97.7951396 C160.414388,97.0047694 162.071943,96.6095843 163.96629,96.6095843 C165.834328,96.6095843 167.465571,97.0047694 168.912642,97.7951396 C170.333403,98.5855099 171.438439,99.7183738 172.201439,101.167386 C172.96444,102.642744 173.359096,104.355212 173.359096,106.304792 C173.359096,108.280718 172.96444,109.993186 172.201439,111.442198 C171.438439,112.917556 170.333403,114.024074 168.912642,114.814445 C167.491881,115.604815 165.834328,116 163.96629,116 C162.071943,115.973654 160.388079,115.578469 158.967319,114.814445 Z M167.518192,110.836248 C168.333814,109.808767 168.754779,108.307063 168.754779,106.278446 C168.754779,104.276175 168.333814,102.774472 167.491881,101.720645 C166.649949,100.666818 165.465982,100.139905 163.96629,100.139905 C162.413978,100.139905 161.230011,100.666818 160.388079,101.720645 C159.546147,102.774472 159.12518,104.276175 159.12518,106.278446 C159.12518,108.307063 159.546147,109.808767 160.361769,110.836248 C161.17739,111.863729 162.361357,112.364297 163.913669,112.364297 C165.492293,112.364297 166.676259,111.863729 167.518192,110.836248 Z" id="Shape"></path>
                <path d="M194.644193,104.24983 L194.644193,115.683852 L190.039878,115.683852 L190.039878,104.460595 C190.039878,102.985237 189.750462,101.905065 189.197945,101.246423 C188.645428,100.561435 187.750874,100.218942 186.593218,100.218942 C185.198768,100.218942 184.067421,100.666818 183.199178,101.562571 C182.330936,102.458324 181.90997,103.643879 181.90997,105.119237 L181.90997,115.657506 L177.331963,115.657506 L177.331963,102.30025 C177.331963,100.324324 177.226722,98.5855099 177.042549,97.0311151 L181.357452,97.0311151 L181.699487,100.087213 C182.330936,98.9543493 183.199178,98.084942 184.304214,97.4789916 C185.40925,96.873041 186.619528,96.556893 188.013979,96.556893 C192.407812,96.5832387 194.644193,99.138769 194.644193,104.24983 Z" id="Path"></path>
            </g>
        </g>
    </g>
</svg>