<?xml version="1.0" standalone="no"?>
<!DOCTYPE svg PUBLIC "-//W3C//DTD SVG 20010904//EN"
 "http://www.w3.org/TR/2001/REC-SVG-20010904/DTD/svg10.dtd">
<svg version="1.0" xmlns="http://www.w3.org/2000/svg"
 width="616.000000pt" height="616.000000pt" viewBox="0 0 616.000000 616.000000"
 preserveAspectRatio="xMidYMid meet">
<metadata>
Created by potrace 1.14, written by Peter Selinger 2001-2017
</metadata>
<g transform="translate(0.000000,616.000000) scale(0.100000,-0.100000)"
fill="#000000" stroke="none">
<path d="M1240 6117 c-104 -60 -447 -258 -682 -393 -108 -63 -210 -122 -227
-131 -16 -10 -68 -40 -115 -67 -47 -27 -93 -57 -103 -68 -17 -19 -18 -115 -21
-2038 l-2 -2018 25 -31 c14 -16 38 -36 53 -44 15 -7 85 -48 157 -89 125 -72
834 -480 1253 -721 111 -65 293 -169 405 -234 111 -64 220 -126 242 -139 22
-12 87 -50 145 -83 58 -34 116 -61 130 -61 21 0 177 81 270 139 8 6 96 56 195
113 99 57 187 108 196 113 17 10 85 49 164 94 160 92 717 413 745 429 19 12
73 43 120 70 455 260 677 388 686 397 33 31 34 52 34 698 l0 644 113 63 c61
35 123 71 137 80 14 10 50 31 80 47 30 17 141 80 245 140 105 61 267 154 360
207 94 54 182 111 198 127 l27 30 -2 694 -3 695 -25 24 c-20 19 -226 141 -705
416 -16 9 -122 70 -235 135 -274 159 -265 154 -311 142 -14 -3 -209 -112 -434
-242 -224 -129 -410 -235 -412 -235 -3 0 -17 -8 -31 -18 -15 -11 -52 -32 -82
-49 -208 -114 -257 -148 -265 -185 -4 -16 -7 -312 -7 -657 0 -345 -2 -632 -6
-637 -4 -6 -32 -24 -62 -41 -30 -17 -95 -53 -143 -82 -49 -28 -93 -51 -98 -51
-5 0 -9 -4 -9 -10 0 -5 -4 -10 -8 -10 -5 0 -149 -81 -321 -180 -172 -99 -313
-180 -314 -180 -1 0 -2 559 -1 1243 0 683 -3 1252 -8 1264 -4 13 -18 31 -30
42 -20 18 -207 128 -378 223 -30 17 -71 41 -90 53 -19 12 -60 35 -90 52 -46
25 -221 126 -335 194 -16 10 -52 30 -80 45 -27 14 -62 35 -77 45 -14 11 -29
19 -32 19 -4 0 -24 11 -46 25 -68 43 -104 42 -190 -8z m244 -247 c76 -44 140
-80 141 -80 2 0 40 -22 85 -50 45 -27 83 -50 85 -50 1 0 112 -63 245 -140 134
-77 247 -140 251 -140 21 0 15 -18 -9 -31 -15 -8 -50 -28 -79 -46 -29 -18 -54
-33 -57 -33 -3 0 -34 -17 -68 -38 -35 -21 -88 -52 -118 -69 -30 -17 -172 -98
-315 -180 -143 -82 -269 -155 -281 -161 -18 -10 -55 8 -285 141 -145 84 -362
208 -481 277 l-217 124 97 57 c53 31 236 136 407 234 171 98 342 197 380 220
39 24 72 43 75 44 3 1 68 -35 144 -79z m3536 -698 c471 -272 549 -316 597
-343 29 -16 78 -45 108 -63 l55 -33 -57 -32 c-32 -17 -78 -43 -103 -57 -122
-71 -439 -254 -470 -272 -19 -10 -100 -57 -180 -102 -80 -46 -150 -83 -155
-83 -6 0 -89 45 -185 100 -294 168 -722 414 -752 432 l-28 18 88 49 c48 27 95
54 104 59 10 6 68 39 130 75 62 35 122 70 133 77 11 7 26 15 33 19 7 4 117 67
244 140 200 115 234 132 252 122 12 -6 95 -54 186 -106z m-4359 -158 c206
-119 394 -227 419 -241 25 -14 73 -42 107 -62 l63 -36 0 -1305 c0 -1016 3
-1310 13 -1329 8 -15 114 -81 312 -193 165 -94 316 -179 335 -190 19 -11 132
-74 250 -141 118 -66 221 -125 228 -132 9 -8 12 -129 10 -562 l-3 -551 -82 48
c-45 27 -106 62 -135 78 -29 16 -125 71 -213 122 -88 51 -176 102 -195 113
-19 10 -91 52 -160 92 -161 94 -570 330 -635 366 -27 15 -194 111 -370 213
l-320 185 -3 1870 c-1 1029 -1 1871 1 1871 2 0 172 -97 378 -216z m1739 -996
l0 -1213 -113 -64 c-134 -77 -337 -195 -620 -360 -114 -66 -212 -121 -218
-121 -5 0 -9 454 -9 1208 l0 1207 347 200 c190 110 405 235 477 277 72 42 132
77 134 77 1 1 2 -545 2 -1211z m1610 407 c102 -59 206 -119 232 -134 26 -14
144 -82 262 -150 l216 -125 0 -549 0 -549 -32 20 c-18 11 -89 52 -158 92 -69
40 -270 156 -447 258 l-323 186 0 549 0 549 33 -20 c17 -11 115 -68 217 -127z
m1843 -960 c-10 -5 -38 -22 -63 -36 -45 -26 -308 -178 -430 -249 -36 -21 -137
-79 -225 -130 -88 -51 -175 -101 -192 -112 l-33 -20 0 549 0 549 213 122 c116
68 223 129 237 137 139 82 353 205 355 205 1 0 36 20 76 44 l74 45 3 -547 c2
-508 1 -547 -15 -557z m-2023 -255 c91 -52 177 -102 191 -110 15 -8 155 -89
312 -180 l286 -165 -47 -28 c-43 -25 -373 -214 -482 -275 -87 -49 -1078 -617
-1393 -799 l-198 -114 -32 19 c-18 11 -52 31 -77 45 -25 13 -157 89 -295 167
-137 79 -268 153 -290 165 -186 105 -249 143 -252 151 -1 5 10 16 26 24 23 12
152 86 354 204 18 10 136 78 262 151 127 73 473 273 770 445 297 172 560 324
585 338 25 14 59 34 75 44 17 10 32 17 35 15 3 -1 80 -45 170 -97z m883 -1731
c-8 -8 -340 -201 -428 -249 -27 -15 -75 -42 -105 -60 -30 -18 -68 -40 -85 -50
-16 -9 -212 -122 -435 -250 -223 -128 -418 -241 -435 -250 -133 -76 -567 -326
-593 -342 l-32 -20 2 557 3 557 198 114 c110 63 222 127 250 143 29 15 401
227 827 471 426 243 789 450 805 459 l30 17 3 -545 c1 -300 -1 -548 -5 -552z"/>
</g>
</svg>
