<?xml version="1.0" encoding="UTF-8" standalone="no"?>
<!-- Created with Inkscape (http://www.inkscape.org/) by Marsupilami -->
<svg
   xmlns:svg="http://www.w3.org/2000/svg"
   xmlns="http://www.w3.org/2000/svg"
   version="1.0"
   width="1024"
   height="722"
   viewBox="0 0 110.85625 78.160004"
   id="svg2826">
  <defs
     id="defs2828" />
  <g
     transform="translate(-244.0821,-553.66277)"
     id="layer1">
    <path
       d="M 72.75,0 L 70.875,5.65625 L 81.875,5.65625 L 83.75,0 L 72.75,0 z M 10.65625,8.34375 L 0,40.59375 L 11.3125,40.59375 L 12.46875,35.5 L 21.84375,35.5 L 23,40.59375 L 34.34375,40.59375 L 23.65625,8.34375 L 10.65625,8.34375 z M 30.09375,8.34375 L 40.71875,40.5625 L 53.15625,40.59375 L 63.84375,8.34375 L 52.84375,8.34375 L 46.9375,27.90625 L 41.09375,8.34375 L 30.09375,8.34375 z M 70,8.34375 L 59.34375,40.59375 L 70.34375,40.59375 L 81,8.34375 L 70,8.34375 z M 87.15625,8.34375 L 76.5,40.59375 L 87.8125,40.59375 L 88.96875,35.5 L 98.34375,35.5 L 99.5,40.59375 L 110.84375,40.59375 L 100.15625,8.34375 L 87.15625,8.34375 z M 17.15625,14.9375 L 19.90625,27 L 14.40625,27 L 17.15625,14.9375 z M 93.65625,14.9375 L 96.40625,27 L 90.90625,27 L 93.65625,14.9375 z M 0.15625,48.84375 L 0.15625,54.34375 L 110.78125,54.34375 L 110.78125,48.84375 L 0.15625,48.84375 z M 0,57.96875 L 0,78.15625 L 110.84375,78.15625 L 110.84375,57.96875 L 0,57.96875 z "
       transform="translate(244.0821,553.66277)"
       style="fill:#ed1c24;fill-opacity:1;fill-rule:nonzero;stroke:none"
       id="path20139" />
  </g>
</svg>
