<?xml version="1.0" encoding="UTF-8"?>
<svg width="1129px" height="908px" viewBox="0 0 1129 908" version="1.1" xmlns="http://www.w3.org/2000/svg" xmlns:xlink="http://www.w3.org/1999/xlink">
    <title>Group 2</title>
    <g id="web2021" stroke="none" stroke-width="1" fill="none" fill-rule="evenodd">
        <g id="08_Insights" transform="translate(-270.000000, -128.000000)" fill-rule="nonzero">
            <g id="Group-2" transform="translate(270.000000, 128.000000)">
                <g id="topfloor" opacity="0.202106294" stroke="#FF2D20">
                    <path d="M225.8,476.687144 L300.055385,518.924352 L225.8,561.16156 L151.544615,518.924352 L225.8,476.687144 Z" id="Path_475"></path>
                    <path d="M225.8,374.125486 L300.055385,416.362694 L225.8,458.599902 L151.544615,416.362694 L225.8,374.125486 Z" id="Path_476"></path>
                    <path d="M225.8,303.555538 L300.055385,345.792746 L225.8,388.029954 L151.544615,345.792746 L225.8,303.555538 Z" id="Path_477"></path>
                    <path d="M150.533333,346.83844 L224.788718,389.075648 L150.533333,431.312856 L76.2779482,389.075648 L150.533333,346.83844 Z" id="Path_478"></path>
                    <path d="M376.333333,406.117196 L450.588718,448.354404 L376.333333,490.591612 L302.077948,448.354404 L376.333333,406.117196 Z" id="Path_479"></path>
                    <path d="M526.866667,390.121341 L601.122052,432.358549 L526.866667,474.595757 L452.611282,432.358549 L526.866667,390.121341 Z" id="Path_480"></path>
                    <path d="M677.4,390.121341 L751.655385,432.358549 L677.4,474.595757 L603.144615,432.358549 L677.4,390.121341 Z" id="Path_481"></path>
                    <path d="M827.933333,390.121341 L902.188718,432.358549 L827.933333,474.595757 L753.677948,432.358549 L827.933333,390.121341 Z" id="Path_482"></path>
                    <path d="M301.066667,346.83844 L375.322052,389.075648 L301.066667,431.312856 L226.811282,389.075648 L301.066667,346.83844 Z" id="Path_483"></path>
                    <path d="M451.6,346.83844 L525.855385,389.075648 L451.6,431.312856 L377.344615,389.075648 L451.6,346.83844 Z" id="Path_484"></path>
                    <path d="M602.133333,346.83844 L676.388718,389.075648 L602.133333,431.312856 L527.877948,389.075648 L602.133333,346.83844 Z" id="Path_485"></path>
                    <path d="M752.666667,346.83844 L826.922052,389.075648 L752.666667,431.312856 L678.411282,389.075648 L752.666667,346.83844 Z" id="Path_486"></path>
                    <path d="M903.2,346.83844 L977.455385,389.075648 L903.2,431.312856 L828.944615,389.075648 L903.2,346.83844 Z" id="Path_487"></path>
                    <path d="M451.6,433.404243 L525.855385,475.641451 L451.6,517.878659 L377.344615,475.641451 L451.6,433.404243 Z" id="Path_488"></path>
                    <path d="M376.333333,216.989735 L450.588718,259.226943 L376.333333,301.464151 L302.077948,259.226943 L376.333333,216.989735 Z" id="Path_489"></path>
                    <path d="M677.4,303.555538 L751.655385,345.792746 L677.4,388.029954 L603.144615,345.792746 L677.4,303.555538 Z" id="Path_490"></path>
                    <path d="M376.333333,303.555538 L450.588718,345.792746 L376.333333,388.029954 L302.077948,345.792746 L376.333333,303.555538 Z" id="Path_491"></path>
                    <path d="M526.866667,303.555538 L601.122052,345.792746 L526.866667,388.029954 L452.611282,345.792746 L526.866667,303.555538 Z" id="Path_492"></path>
                    <path d="M602.133333,433.404243 L676.388718,475.641451 L602.133333,517.878659 L527.877948,475.641451 L602.133333,433.404243 Z" id="Path_493"></path>
                    <path d="M827.933333,319.551393 L902.188718,361.788601 L827.933333,404.025809 L753.677948,361.788601 L827.933333,319.551393 Z" id="Path_494"></path>
                    <path d="M301.066667,260.272636 L375.322052,302.509845 L301.066667,344.747053 L226.811282,302.509845 L301.066667,260.272636 Z" id="Path_495"></path>
                    <path d="M602.133333,260.272636 L676.388718,302.509845 L602.133333,344.747053 L527.877948,302.509845 L602.133333,260.272636 Z" id="Path_496"></path>
                    <path d="M752.666667,260.272636 L826.922052,302.509845 L752.666667,344.747053 L678.411282,302.509845 L752.666667,260.272636 Z" id="Path_497"></path>
                    <path d="M903.2,260.272636 L977.455385,302.509845 L903.2,344.747053 L828.944615,302.509845 L903.2,260.272636 Z" id="Path_498"></path>
                    <path d="M451.6,244.276782 L525.855385,286.51399 L451.6,328.751198 L377.344615,286.51399 L451.6,244.276782 Z" id="Path_499"></path>
                    <path d="M677.4,216.989735 L751.655385,259.226943 L677.4,301.464151 L603.144615,259.226943 L677.4,216.989735 Z" id="Path_500"></path>
                    <path d="M526.866667,216.989735 L601.122052,259.226943 L526.866667,301.464151 L452.611282,259.226943 L526.866667,216.989735 Z" id="Path_501"></path>
                    <path d="M827.933333,216.989735 L902.188718,259.226943 L827.933333,301.464151 L753.677948,259.226943 L827.933333,216.989735 Z" id="Path_502"></path>
                    <path d="M376.333333,649.81875 L450.588718,692.055959 L376.333333,734.293167 L302.077948,692.055959 L376.333333,649.81875 Z" id="Path_503"></path>
                    <path d="M526.866667,649.81875 L601.122052,692.055959 L526.866667,734.293167 L452.611282,692.055959 L526.866667,649.81875 Z" id="Path_504"></path>
                    <path d="M677.4,649.81875 L751.655385,692.055959 L677.4,734.293167 L603.144615,692.055959 L677.4,649.81875 Z" id="Path_505"></path>
                    <path d="M827.933333,649.81875 L902.188718,692.055959 L827.933333,734.293167 L753.677948,692.055959 L827.933333,649.81875 Z" id="Path_506"></path>
                    <path d="M451.6,606.535849 L525.855385,648.773057 L451.6,691.010265 L377.344615,648.773057 L451.6,606.535849 Z" id="Path_507"></path>
                    <path d="M602.133333,606.535849 L676.388718,648.773057 L602.133333,691.010265 L527.877948,648.773057 L602.133333,606.535849 Z" id="Path_508"></path>
                    <path d="M752.666667,590.539994 L826.922052,632.777202 L752.666667,675.01441 L678.411282,632.777202 L752.666667,590.539994 Z" id="Path_509"></path>
                    <path d="M903.2,606.535849 L977.455385,648.773057 L903.2,691.010265 L828.944615,648.773057 L903.2,606.535849 Z" id="Path_510"></path>
                    <path d="M451.6,709.097507 L525.855385,751.334715 L451.6,793.571923 L377.344615,751.334715 L451.6,709.097507 Z" id="Path_511"></path>
                    <path d="M376.333333,476.687144 L450.588718,518.924352 L376.333333,561.16156 L302.077948,518.924352 L376.333333,476.687144 Z" id="Path_512"></path>
                    <path d="M677.4,563.252947 L751.655385,605.490155 L677.4,647.727364 L603.144615,605.490155 L677.4,563.252947 Z" id="Path_513"></path>
                    <path d="M376.333333,563.252947 L450.588718,605.490155 L376.333333,647.727364 L302.077948,605.490155 L376.333333,563.252947 Z" id="Path_514"></path>
                    <path d="M526.866667,547.257092 L601.122052,589.494301 L526.866667,631.731509 L452.611282,589.494301 L526.866667,547.257092 Z" id="Path_515"></path>
                    <path d="M602.133333,693.101652 L676.388718,735.33886 L602.133333,777.576068 L527.877948,735.33886 L602.133333,693.101652 Z" id="Path_516"></path>
                    <path d="M827.933333,563.252947 L902.188718,605.490155 L827.933333,647.727364 L753.677948,605.490155 L827.933333,563.252947 Z" id="Path_517"></path>
                    <path d="M602.133333,519.970046 L676.388718,562.207254 L602.133333,604.444462 L527.877948,562.207254 L602.133333,519.970046 Z" id="Path_518"></path>
                    <path d="M752.666667,519.970046 L826.922052,562.207254 L752.666667,604.444462 L678.411282,562.207254 L752.666667,519.970046 Z" id="Path_519"></path>
                    <path d="M903.2,519.970046 L977.455385,562.207254 L903.2,604.444462 L828.944615,562.207254 L903.2,519.970046 Z" id="Path_520"></path>
                    <path d="M451.6,519.970046 L525.855385,562.207254 L451.6,604.444462 L377.344615,562.207254 L451.6,519.970046 Z" id="Path_521"></path>
                    <path d="M677.4,476.687144 L751.655385,518.924352 L677.4,561.16156 L603.144615,518.924352 L677.4,476.687144 Z" id="Path_522"></path>
                    <path d="M526.866667,476.687144 L601.122052,518.924352 L526.866667,561.16156 L452.611282,518.924352 L526.866667,476.687144 Z" id="Path_523"></path>
                    <path d="M827.933333,476.687144 L902.188718,518.924352 L827.933333,561.16156 L753.677948,518.924352 L827.933333,476.687144 Z" id="Path_524"></path>
                    <path d="M752.666667,433.404243 L826.922052,475.641451 L752.666667,517.878659 L678.411282,475.641451 L752.666667,433.404243 Z" id="Path_525"></path>
                    <path d="M301.066667,433.404243 L375.322052,475.641451 L301.066667,517.878659 L226.811282,475.641451 L301.066667,433.404243 Z" id="Path_526"></path>
                    <path d="M301.066667,606.535849 L375.322052,648.773057 L301.066667,691.010265 L226.811282,648.773057 L301.066667,606.535849 Z" id="Path_529"></path>
                    <path d="M526.866667,736.384554 L601.122052,778.621762 L526.866667,820.85897 L452.611282,778.621762 L526.866667,736.384554 Z" id="Path_531"></path>
                    <path d="M677.4,736.384554 L751.655385,778.621762 L677.4,820.85897 L603.144615,778.621762 L677.4,736.384554 Z" id="Path_532"></path>
                    <path d="M827.933333,736.384554 L902.188718,778.621762 L827.933333,820.85897 L753.677948,778.621762 L827.933333,736.384554 Z" id="Path_533"></path>
                    <path d="M903.2,433.404243 L977.455385,475.641451 L903.2,517.878659 L828.944615,475.641451 L903.2,433.404243 Z" id="Path_534"></path>
                    <path d="M451.6,173.706833 L525.855385,215.944041 L451.6,258.18125 L377.344615,215.944041 L451.6,173.706833 Z" id="Path_535"></path>
                    <path d="M376.333333,130.423932 L450.588718,172.66114 L376.333333,214.898348 L302.077948,172.66114 L376.333333,130.423932 Z" id="Path_536"></path>
                    <path d="M903.2,173.706833 L977.455385,215.944041 L903.2,258.18125 L828.944615,215.944041 L903.2,173.706833 Z" id="Path_537"></path>
                    <path d="M978.466667,146.419787 L1052.72205,188.656995 L978.466667,230.894203 L904.211282,188.656995 L978.466667,146.419787 Z" id="Path_538"></path>
                    <path d="M526.866667,130.423932 L601.122052,172.66114 L526.866667,214.898348 L452.611282,172.66114 L526.866667,130.423932 Z" id="Path_539"></path>
                    <path d="M677.4,114.428077 L751.655385,156.665285 L677.4,198.902493 L603.144615,156.665285 L677.4,114.428077 Z" id="Path_540"></path>
                    <path d="M602.133333,87.1410302 L676.388718,129.378238 L602.133333,171.615446 L527.877948,129.378238 L602.133333,87.1410302 Z" id="Path_541"></path>
                    <path d="M602.133333,0.575227098 L676.388718,42.8124352 L602.133333,85.0496434 L527.877948,42.8124352 L602.133333,0.575227098 Z" id="Path_542"></path>
                    <path d="M602.133333,173.706833 L676.388718,215.944041 L602.133333,258.18125 L527.877948,215.944041 L602.133333,173.706833 Z" id="Path_543"></path>
                    <path d="M301.066667,519.970046 L375.322052,562.207254 L301.066667,604.444462 L226.811282,562.207254 L301.066667,519.970046 Z" id="Path_544"></path>
                    <path d="M75.2666667,476.687144 L149.522052,518.924352 L75.2666667,561.16156 L1.01128156,518.924352 L75.2666667,476.687144 Z" id="Path_111"></path>
                    <path d="M376.333333,736.384554 L450.588718,778.621762 L376.333333,820.85897 L302.077948,778.621762 L376.333333,736.384554 Z" id="Path_545"></path>
                    <path d="M225.8,736.384554 L300.055385,778.621762 L225.8,820.85897 L151.544615,778.621762 L225.8,736.384554 Z" id="Path_546"></path>
                    <path d="M677.4,822.950357 L751.655385,865.187565 L677.4,907.424773 L603.144615,865.187565 L677.4,822.950357 Z" id="Path_547"></path>
                    <path d="M1053.73333,433.404243 L1127.98872,475.641451 L1053.73333,517.878659 L979.477948,475.641451 L1053.73333,433.404243 Z" id="Path_548"></path>
                    <path d="M75.2666667,303.555538 L149.522052,345.792746 L75.2666667,388.029954 L1.01128156,345.792746 L75.2666667,303.555538 Z" id="Path_549"></path>
                    <path d="M1053.73333,606.535849 L1127.98872,648.773057 L1053.73333,691.010265 L979.477948,648.773057 L1053.73333,606.535849 Z" id="Path_550"></path>
                    <path d="M451.6,0.575227098 L525.855385,42.8124352 L451.6,85.0496434 L377.344615,42.8124352 L451.6,0.575227098 Z" id="Path_559"></path>
                </g>
                <polygon id="Path_559" fill="#FF2D20" points="752.333333 238.812435 827.6 196 902.866667 238.812435 827.6 281.62487"></polygon>
            </g>
        </g>
    </g>
</svg>