<?xml version="1.0" encoding="UTF-8"?>
<svg width="989px" height="795px" viewBox="0 0 989 795" version="1.1" xmlns="http://www.w3.org/2000/svg" xmlns:xlink="http://www.w3.org/1999/xlink">
    <title>TiledFloor</title>
    <g id="web2021" stroke="none" stroke-width="1" fill="none" fill-rule="evenodd" opacity="0.75">
        <g id="00_Styles" transform="translate(-226.000000, -5039.000000)" fill="#FFFFFF" fill-rule="nonzero">
            <g id="TiledFloor" transform="translate(226.000000, 5039.000000)">
                <polygon id="Path_475" fill-opacity="0.300000012" points="131.882353 454.063534 197.764706 416.602263 263.647059 454.063534 197.764706 491.524804"></polygon>
                <polygon id="Path_476" fill-opacity="0.300000012" points="131.882353 364.321149 197.764706 326.859878 263.647059 364.321149 197.764706 401.782419"></polygon>
                <polygon id="Path_477" fill-opacity="0.300000012" points="131.882353 302.571802 197.764706 265.110531 263.647059 302.571802 197.764706 340.033072"></polygon>
                <polygon id="Path_478" fill-opacity="0.300000012" points="66 340.444735 131.882353 302.983464 197.764706 340.444735 131.882353 377.906005"></polygon>
                <polygon id="Path_478" fill-opacity="0.300000012" points="0 378.444735 65.8823529 340.983464 131.764706 378.444735 65.8823529 415.906005"></polygon>
                <polygon id="Path_479" fill-opacity="0.300000012" points="263.647059 392.314186 329.529412 354.852916 395.411765 392.314186 329.529412 429.775457"></polygon>
                <polygon id="Path_480" fill-opacity="0.300000012" points="395.411765 378.317668 461.294118 340.856397 527.176471 378.317668 461.294118 415.778938"></polygon>
                <polygon id="Path_481" fill-opacity="0.300000012" points="527.176471 378.317668 593.058824 340.856397 658.941176 378.317668 593.058824 415.778938"></polygon>
                <polygon id="Path_482" fill-opacity="0.300000012" points="658.941176 378.317668 724.823529 340.856397 790.705882 378.317668 724.823529 415.778938"></polygon>
                <polygon id="Path_483" fill-opacity="0.300000012" points="197.764706 340.444735 263.647059 302.983464 329.529412 340.444735 263.647059 377.906005"></polygon>
                <polygon id="Path_484" fill-opacity="0.300000012" points="329.529412 340.444735 395.411765 302.983464 461.294118 340.444735 395.411765 377.906005"></polygon>
                <polygon id="Path_485" fill-opacity="0.300000012" points="461.294118 340.444735 527.176471 302.983464 593.058824 340.444735 527.176471 377.906005"></polygon>
                <polygon id="Path_486" fill-opacity="0.300000012" points="593.058824 340.444735 658.941176 302.983464 724.823529 340.444735 658.941176 377.906005"></polygon>
                <polygon id="Path_487" fill-opacity="0.300000012" points="724.823529 340.444735 790.705882 302.983464 856.588235 340.444735 790.705882 377.906005"></polygon>
                <polygon id="Path_488" fill-opacity="0.300000012" points="329.529412 416.190601 395.411765 378.72933 461.294118 416.190601 395.411765 453.651871"></polygon>
                <polygon id="Path_489" fill-opacity="0.300000012" points="263.647059 226.825936 329.529412 189.364665 395.411765 226.825936 329.529412 264.287206"></polygon>
                <polygon id="Path_490" fill-opacity="0.300000012" points="527.176471 302.571802 593.058824 265.110531 658.941176 302.571802 593.058824 340.033072"></polygon>
                <polygon id="Path_491" fill-opacity="0.300000012" points="263.647059 302.571802 329.529412 265.110531 395.411765 302.571802 329.529412 340.033072"></polygon>
                <polygon id="Path_492" fill-opacity="0.300000012" points="395.411765 302.571802 461.294118 265.110531 527.176471 302.571802 461.294118 340.033072"></polygon>
                <polygon id="Path_493" fill-opacity="0.300000012" points="461.294118 416.190601 527.176471 378.72933 593.058824 416.190601 527.176471 453.651871"></polygon>
                <polygon id="Path_494" points="658.941176 316.56832 724.823529 279.10705 790.705882 316.56832 724.823529 354.029591"></polygon>
                <polygon id="Path_495" fill-opacity="0.300000012" points="197.764706 264.698869 263.647059 227.237598 329.529412 264.698869 263.647059 302.160139"></polygon>
                <polygon id="Path_496" fill-opacity="0.300000012" points="461.294118 264.698869 527.176471 227.237598 593.058824 264.698869 527.176471 302.160139"></polygon>
                <polygon id="Path_497" fill-opacity="0.300000012" points="593.058824 264.698869 658.941176 227.237598 724.823529 264.698869 658.941176 302.160139"></polygon>
                <polygon id="Path_498" fill-opacity="0.300000012" points="724.823529 264.698869 790.705882 227.237598 856.588235 264.698869 790.705882 302.160139"></polygon>
                <polygon id="Path_499" points="329.529412 250.70235 395.411765 213.241079 461.294118 250.70235 395.411765 288.163621"></polygon>
                <polygon id="Path_500" fill-opacity="0.300000012" points="527.176471 226.825936 593.058824 189.364665 658.941176 226.825936 593.058824 264.287206"></polygon>
                <polygon id="Path_501" fill-opacity="0.300000012" points="395.411765 226.825936 461.294118 189.364665 527.176471 226.825936 461.294118 264.287206"></polygon>
                <polygon id="Path_502" fill-opacity="0.300000012" points="658.941176 226.825936 724.823529 189.364665 790.705882 226.825936 724.823529 264.287206"></polygon>
                <polygon id="Path_503" fill-opacity="0.300000012" points="263.647059 605.555265 329.529412 568.093995 395.411765 605.555265 329.529412 643.016536"></polygon>
                <polygon id="Path_504" fill-opacity="0.300000012" points="395.411765 605.555265 461.294118 568.093995 527.176471 605.555265 461.294118 643.016536"></polygon>
                <polygon id="Path_505" fill-opacity="0.300000012" points="527.176471 605.555265 593.058824 568.093995 658.941176 605.555265 593.058824 643.016536"></polygon>
                <polygon id="Path_506" fill-opacity="0.300000012" points="658.941176 605.555265 724.823529 568.093995 790.705882 605.555265 724.823529 643.016536"></polygon>
                <polygon id="Path_507" fill-opacity="0.300000012" points="329.529412 567.682332 395.411765 530.221062 461.294118 567.682332 395.411765 605.143603"></polygon>
                <polygon id="Path_508" fill-opacity="0.300000012" points="461.294118 567.682332 527.176471 530.221062 593.058824 567.682332 527.176471 605.143603"></polygon>
                <polygon id="Path_509" fill-opacity="0.300000012" points="593.058824 567.682332 658.941176 530.221062 724.823529 567.682332 658.941176 605.143603"></polygon>
                <polygon id="Path_510" fill-opacity="0.300000012" points="724.823529 567.682332 790.705882 530.221062 856.588235 567.682332 790.705882 605.143603"></polygon>
                <polygon id="Path_511" fill-opacity="0.300000012" points="329.529412 643.428198 395.411765 605.966928 461.294118 643.428198 395.411765 680.889469"></polygon>
                <polygon id="Path_512" fill-opacity="0.300000012" points="263.647059 454.063534 329.529412 416.602263 395.411765 454.063534 329.529412 491.524804"></polygon>
                <polygon id="Path_513" fill-opacity="0.300000012" points="527.176471 529.809399 593.058824 492.348129 658.941176 529.809399 593.058824 567.27067"></polygon>
                <polygon id="Path_514" points="263.647059 529.809399 329.529412 492.348129 395.411765 529.809399 329.529412 567.27067"></polygon>
                <polygon id="Path_515" fill-opacity="0.300000012" points="395.411765 529.809399 461.294118 492.348129 527.176471 529.809399 461.294118 567.27067"></polygon>
                <polygon id="Path_516" fill-opacity="0.300000012" points="461.294118 643.428198 527.176471 605.966928 593.058824 643.428198 527.176471 680.889469"></polygon>
                <polygon id="Path_517" fill-opacity="0.300000012" points="658.941176 529.809399 724.823529 492.348129 790.705882 529.809399 724.823529 567.27067"></polygon>
                <polygon id="Path_518" fill-opacity="0.300000012" points="461.294118 491.936466 527.176471 454.475196 593.058824 491.936466 527.176471 529.397737"></polygon>
                <polygon id="Path_519" fill-opacity="0.300000012" points="593.058824 491.936466 658.941176 454.475196 724.823529 491.936466 658.941176 529.397737"></polygon>
                <polygon id="Path_520" fill-opacity="0.300000012" points="724.823529 491.936466 790.705882 454.475196 856.588235 491.936466 790.705882 529.397737"></polygon>
                <polygon id="Path_521" fill-opacity="0.300000012" points="329.529412 491.936466 395.411765 454.475196 461.294118 491.936466 395.411765 529.397737"></polygon>
                <polygon id="Path_522" points="527.176471 454.063534 593.058824 416.602263 658.941176 454.063534 593.058824 491.524804"></polygon>
                <polygon id="Path_523" fill-opacity="0.300000012" points="395.411765 454.063534 461.294118 416.602263 527.176471 454.063534 461.294118 491.524804"></polygon>
                <polygon id="Path_524" fill-opacity="0.300000012" points="658.941176 454.063534 724.823529 416.602263 790.705882 454.063534 724.823529 491.524804"></polygon>
                <polygon id="Path_525" fill-opacity="0.300000012" points="593.058824 416.190601 658.941176 378.72933 724.823529 416.190601 658.941176 453.651871"></polygon>
                <polygon id="Path_526" fill-opacity="0.300000012" points="197.764706 416.190601 263.647059 378.72933 329.529412 416.190601 263.647059 453.651871"></polygon>
                <polygon id="Path_529" fill-opacity="0.300000012" points="197.764706 567.682332 263.647059 530.221062 329.529412 567.682332 263.647059 605.143603"></polygon>
                <polygon id="Path_531" fill-opacity="0.300000012" points="395.411765 681.301131 461.294118 643.839861 527.176471 681.301131 461.294118 718.762402"></polygon>
                <polygon id="Path_532" fill-opacity="0.300000012" points="527.176471 681.301131 593.058824 643.839861 658.941176 681.301131 593.058824 718.762402"></polygon>
                <polygon id="Path_533" points="658.941176 681.301131 724.823529 643.839861 790.705882 681.301131 724.823529 718.762402"></polygon>
                <polygon id="Path_534" fill-opacity="0.300000012" points="724.823529 416.190601 790.705882 378.72933 856.588235 416.190601 790.705882 453.651871"></polygon>
                <polygon id="Path_535" fill-opacity="0.300000012" points="329.529412 188.953003 395.411765 151.491732 461.294118 188.953003 395.411765 226.414273"></polygon>
                <polygon id="Path_536" fill-opacity="0.300000012" points="263.647059 151.08007 329.529412 113.618799 395.411765 151.08007 329.529412 188.54134"></polygon>
                <polygon id="Path_537" fill-opacity="0.300000012" points="724.823529 188.953003 790.705882 151.491732 856.588235 188.953003 790.705882 226.414273"></polygon>
                <polygon id="Path_538" fill-opacity="0.300000012" points="790.705882 165.076588 856.588235 127.615318 922.470588 165.076588 856.588235 202.537859"></polygon>
                <polygon id="Path_539" fill-opacity="0.300000012" points="395.411765 151.08007 461.294118 113.618799 527.176471 151.08007 461.294118 188.54134"></polygon>
                <polygon id="Path_540" fill-opacity="0.300000012" points="527.176471 137.083551 593.058824 99.6222802 658.941176 137.083551 593.058824 174.544822"></polygon>
                <polygon id="Path_541" fill-opacity="0.300000012" points="461.294118 113.207137 527.176471 75.745866 593.058824 113.207137 527.176471 150.668407"></polygon>
                <polygon id="Path_542" fill-opacity="0.300000012" points="461.294118 37.4612707 527.176471 0 593.058824 37.4612707 527.176471 74.9225413"></polygon>
                <polygon id="Path_543" fill-opacity="0.300000012" points="461.294118 188.953003 527.176471 151.491732 593.058824 188.953003 527.176471 226.414273"></polygon>
                <polygon id="Path_544" fill-opacity="0.300000012" points="197.764706 491.936466 263.647059 454.475196 329.529412 491.936466 263.647059 529.397737"></polygon>
                <polygon id="Path_111" fill-opacity="0.300000012" points="0.117647059 454.063534 66 416.602263 131.882353 454.063534 66 491.524804"></polygon>
                <polygon id="Path_545" fill-opacity="0.300000012" points="263.647059 681.301131 329.529412 643.839861 395.411765 681.301131 329.529412 718.762402"></polygon>
                <polygon id="Path_546" fill-opacity="0.300000012" points="131.882353 681.301131 197.764706 643.839861 263.647059 681.301131 197.764706 718.762402"></polygon>
                <polygon id="Path_547" fill-opacity="0.300000012" points="527.176471 757.046997 593.058824 719.585727 658.941176 757.046997 593.058824 794.508268"></polygon>
                <polygon id="Path_548" fill-opacity="0.300000012" points="856.588235 416.190601 922.470588 378.72933 988.352941 416.190601 922.470588 453.651871"></polygon>
                <polygon id="Path_549" fill-opacity="0.300000012" points="0.117647059 302.571802 66 265.110531 131.882353 302.571802 66 340.033072"></polygon>
                <polygon id="Path_550" fill-opacity="0.300000012" points="856.588235 567.682332 922.470588 530.221062 988.352941 567.682332 922.470588 605.143603"></polygon>
                <polygon id="Path_559" fill-opacity="0.300000012" points="329.529412 37.4612707 395.411765 0 461.294118 37.4612707 395.411765 74.9225413"></polygon>
            </g>
        </g>
    </g>
</svg>