<?xml version="1.0" encoding="utf-8"?>
<!-- Generator: Adobe Illustrator 23.0.2, SVG Export Plug-In . SVG Version: 6.00 Build 0)  -->
<svg version="1.1" id="Laag_1" xmlns="http://www.w3.org/2000/svg" xmlns:xlink="http://www.w3.org/1999/xlink" x="0px" y="0px"
	 viewBox="0 0 1000 1000" style="enable-background:new 0 0 1000 1000;" xml:space="preserve">
<style type="text/css">
	.st0{fill:#FFFFFF;}
	.st1{fill-rule:evenodd;clip-rule:evenodd;fill:#FF1C48;}
	.st2{fill:#FF1C48;}
</style>
<rect x="1" y="1" class="st0" width="994" height="995"/>
<path d="M361,211l130.7-15.9h1.3l21.2,13.3V402c11.5-11.9,25.6-21.8,42.4-29.5c16.8-7.7,34.7-11.6,53.7-11.6
	c42.5,0,76.8,14.9,103.1,44.8c26.3,29.8,39.5,75.5,39.5,137c0,38.5-8.1,73.2-24.2,104.1c-16.1,31-39.2,55.3-69.3,73
	c-30.1,17.7-65.2,26.5-105.5,26.5c-38,0-69.9-3-95.5-8.9c-25.6-6-42.5-11.4-50.4-16.2v-463l-47.1-8.6V211z M538.1,433.2
	c-9.7,4.9-17.7,10.6-23.9,17.2v240.1c1.8,4.4,6.7,8,14.9,10.6c8.2,2.7,17.6,4,28.2,4c24.8,0,44.4-13,59-39.1
	c14.6-26.1,21.9-64.5,21.9-115.4c0-42.9-6.2-74.4-18.6-94.5c-12.4-20.1-29.2-30.2-50.4-30.2C558.2,425.9,547.8,428.3,538.1,433.2z"
	/>
<path class="st1" d="M299.7,597.6c-0.2,0.4-0.5,0.8-0.7,1.2"/>
<path class="st1" d="M210.6,716c-0.6,2.7-0.7,5.5-0.3,8.2c3.2,21.7,24.1,33.2,43.7,36c18.7,2.6,38.2-3.6,53.6-18.3
	c24-23,36.7-56.4,35.3-87.1c-1.1-25.7-10.7-54.9-28.8-87.5c-1.6,8.8-5.5,18.8-11.5,30c-5.6,10.1-12.4,20.2-20.5,30.5
	c-7.4,9.3-17.2,20.2-29.6,32.6c-12.2,12.3-20.4,21.1-24.7,26.4C221.2,695,212.8,705.4,210.6,716z"/>
<path class="st2" d="M335.3,435.2c-9.3-10-21.9-14.9-37.8-14.9c-16.8,0-31.1,5.2-42.8,15.6c-11.7,10.4-17.6,23.8-17.6,40.1
	c0,14.6,5.1,26.6,15.3,36.2c10.2,9.5,22.1,14.3,35.8,14.3c18.1,0,32.8-5,44.1-14.9c11.3-9.9,16.9-23.5,16.9-40.8
	C349.2,457,344.6,445.1,335.3,435.2z M312.1,465c-7.8,0-14.1-6.3-14.1-14.1s6.3-14.1,14.1-14.1s14.1,6.3,14.1,14.1
	S319.9,465,312.1,465z"/>
</svg>
