<?xml version="1.0" encoding="UTF-8"?><svg id="Layer_2" xmlns="http://www.w3.org/2000/svg" viewBox="0 0 1033.69 192.97"><g id="positief"><g><path d="M166.59,43.71l34.14,89.09h.21l30.6-89.09h19.98l-48.71,128.44c-4.79,12.91-12.7,20.82-27.27,20.82h-14.57v-15.82h11.87c10.41,0,12.07-5.83,15.2-13.53l3.75-9.37c-14.99-36.85-30.18-73.69-45.17-110.54h19.98Z"/><path d="M363.88,97.21c0,33.31-18.73,56.62-49.13,56.62-19.57,0-33.1-12.91-37.05-23.94h-.21v21.44h-18.73V2.71h18.73v62.87h.21c3.96-11.24,17.49-24.36,37.05-24.36,30.39,0,49.13,22.69,49.13,56Zm-18.73,0c0-23.31-12.07-40.18-34.14-40.18-23.31,0-34.14,19.15-34.14,40.18s10.82,40.59,34.14,40.59,34.14-17.28,34.14-40.59Z"/><path d="M475,102.62h-84.51c1.46,22.48,15.2,35.6,34.35,35.6,14.36,0,26.44-5.62,30.18-18.94h18.32c-6.04,22.9-24.15,34.55-48.09,34.55-31.85,0-52.87-23.11-52.87-56.83s22.07-55.79,52.46-55.79c37.89,0,49.75,30.39,50.17,58.08v3.33Zm-18.94-14.99c-1.66-18.73-12.07-31.02-31.22-31.02s-31.64,12.49-34.14,31.02h65.36Z"/><path d="M535.67,43.3v17.9c-.83,0-4.16,.21-6.87,.62-12.49,1.87-25.19,7.49-25.19,38.72v50.79h-18.73V43.71h18.73v21.65c5.41-15.82,15.82-22.07,32.06-22.07Z"/><path d="M577.5,32.47v11.24h18.11v15.4h-18.11v92.22h-18.32V59.12h-14.78v-15.4h14.78v-12.07c0-14.99,8.12-28.93,27.27-28.93h11.66v15.82h-6.87c-8.12,0-13.74,2.71-13.74,13.95Z"/><path d="M604.9,43.71h18.73V111.57c0,18.94,8.12,26.44,22.69,26.44,15.82,0,29.77-13.32,29.77-41.42V43.71h18.73v107.62h-18.73v-20.19c-5.62,12.28-15.61,22.69-32.27,22.69-28.31,0-38.93-18.53-38.93-40.38V43.71Z"/><path d="M744.69,57.04c-10.2,0-20.4,5.83-20.4,14.99,0,8.33,8.33,13.11,17.69,15.4l14.15,3.54c16.24,3.95,32.68,11.66,32.68,29.56,0,22.9-23.94,33.31-42.67,33.31s-41.84-8.33-43.71-34.97h18.73c2.5,13.74,11.03,19.15,25.6,19.15,10.62,0,23.31-3.75,23.31-16.24,0-9.16-8.95-12.28-19.15-14.78l-14.99-3.75c-16.03-3.96-30.39-13.74-30.39-30.39,0-20.19,20.82-31.64,39.76-31.64,21.02,0,39.55,11.24,41.63,34.97h-18.53c-1.25-13.95-12.91-19.15-23.73-19.15Z"/><path d="M798.08,43.71h18.73v107.62h-18.73V43.71Zm-.62-20.19V2.71h19.98V23.52h-19.98Z"/><path d="M826.49,97.63c0-31.64,21.23-56.41,53.92-56.41s53.91,24.77,53.91,56.41-21.23,56.2-53.91,56.2-53.92-24.56-53.92-56.2Zm89.09,0c0-22.27-14.15-40.59-35.18-40.59s-35.18,18.32-35.18,40.59,14.16,40.38,35.18,40.38,35.18-18.32,35.18-40.38Z"/><path d="M943.76,43.71h18.73v20.19c5.62-12.28,15.61-22.69,32.27-22.69,28.31,0,38.93,18.53,38.93,40.38v69.74h-18.73V83.47c0-18.94-8.12-26.44-22.69-26.44-15.82,0-29.77,13.32-29.77,41.42v52.87h-18.73V43.71Z"/><path d="M121.98,110.12c-6.7,15.88-22.16,27.27-46.21,27.27-37.26,0-56-28.1-56-60.37S38.72,16.65,75.77,16.65c23.95,0,37.54,9.98,45.8,27.06h20.03C132,18.63,111.75,0,75.77,0,26.85,0,0,35.18,0,77.02s26.85,77.02,75.77,77.02c36.48,0,59.44-20.65,66.3-43.92h-20.09Z"/></g></g></svg>