<svg width="391" height="64" viewBox="0 0 391 64" fill="none" xmlns="http://www.w3.org/2000/svg">
<path fill-rule="evenodd" clip-rule="evenodd" d="M390.81 16C390.81 7.16343 383.539 0 374.57 0H349.05C340.081 0 332.81 7.16343 332.81 16V51.0832C332.81 53.9966 333.854 56.8246 335.773 59.1076C340.471 64.6974 349.083 65.6362 355.008 61.2044C358.664 58.4698 361.885 57.1429 364.669 57.1429H374.57C383.539 57.1429 390.81 49.9793 390.81 41.1429V16ZM347.6 15.4285H359.592V41.6712H350.653V23.8343L347.6 23.8344V15.4285ZM364.025 15.4285H375.8V41.6712H366.86V23.8343L364.025 23.8344V15.4285ZM12.702 39.96V50.4H0V9.80001H18.386C28.304 9.80001 35.148 15.542 35.148 24.706C35.148 33.87 28.536 39.96 18.386 39.96H12.702ZM12.702 29.52H17.748C20.938 29.52 22.446 27.49 22.446 24.822C22.446 22.154 20.938 20.24 17.748 20.24H12.702V29.52ZM69.224 39.844V50.4H40.05V9.80001H52.752V39.844H69.224ZM87.408 44.252L85.784 50.4H73.024L87.176 9.80001H100.168L114.32 50.4H101.56L99.878 44.252H87.408ZM90.134 34.16H97.152L93.672 21.168L90.134 34.16ZM135.81 20.53V50.4H123.108V20.53H112.9V9.80001H146.076V20.53H135.81ZM164.028 36.538V50.4H151.326V9.80001H180.964V20.356H164.028V25.982H179.224V36.538H164.028ZM223.972 32.652C223.972 43.672 217.302 51.212 204.6 51.212C191.898 51.212 185.228 43.672 185.228 32.652V27.548C185.228 16.528 191.898 8.98801 204.6 8.98801C217.302 8.98801 223.972 16.528 223.972 27.548V32.652ZM197.93 33.406C197.93 38.104 200.308 40.656 204.6 40.656C208.892 40.656 211.27 38.104 211.27 33.406V26.794C211.27 22.096 208.892 19.544 204.6 19.544C200.308 19.544 197.93 22.096 197.93 26.794V33.406ZM242.678 39.728V50.4H229.976V9.80001H250.276C260.6 9.80001 266.226 15.948 266.226 24.822C266.226 30.622 263.616 35.088 259.266 37.582L267.328 50.4H252.538L246.332 39.728H242.678ZM242.678 29.694H248.826C251.842 29.694 253.524 27.664 253.524 24.88C253.524 21.864 251.9 19.95 248.826 19.95H242.678V29.694ZM284.468 33.696V50.4H272.404V9.80001H284.004L293.4 29.636L302.796 9.80001H314.396V50.4H302.332V33.696L298.156 41.816H288.644L284.468 33.696Z" fill="black"/>
</svg>
