<?xml version="1.0" encoding="UTF-8" standalone="no"?>
<!-- Created with Inkscape (http://www.inkscape.org/) -->

<svg
   version="1.1"
   id="svg2"
   width="1122.52"
   height="793.70135"
   viewBox="0 0 1122.52 793.70135"
   sodipodi:docname="Logo.ai"
   xmlns:inkscape="http://www.inkscape.org/namespaces/inkscape"
   xmlns:sodipodi="http://sodipodi.sourceforge.net/DTD/sodipodi-0.dtd"
   xmlns="http://www.w3.org/2000/svg"
   xmlns:svg="http://www.w3.org/2000/svg">
  <defs
     id="defs6">
    <clipPath
       clipPathUnits="userSpaceOnUse"
       id="clipPath20">
      <path
         d="M 0,595.276 H 841.89 V 0 H 0 Z"
         id="path18" />
    </clipPath>
  </defs>
  <sodipodi:namedview
     id="namedview4"
     pagecolor="#ffffff"
     bordercolor="#000000"
     borderopacity="0.25"
     inkscape:showpageshadow="2"
     inkscape:pageopacity="0.0"
     inkscape:pagecheckerboard="0"
     inkscape:deskcolor="#d1d1d1" />
  <g
     id="g8"
     inkscape:groupmode="layer"
     inkscape:label="Logo"
     transform="matrix(1.3333333,0,0,-1.3333333,0,793.70133)">
    <g
       id="g10"
       transform="translate(170.1832,263.7299)">
      <path
         d="M 0,0 V -21.278 H -73.52 V 88.763 h 24.772 V 0 Z"
         style="fill:#092342;fill-opacity:1;fill-rule:nonzero;stroke:none"
         id="path12" />
    </g>
    <g
       id="g14">
      <g
         id="g16"
         clip-path="url(#clipPath20)">
        <g
           id="g22"
           transform="translate(235.0453,327.5634)">
          <path
             d="m 0,0 c -0.554,-1.598 -1.362,-3.775 -2.427,-6.523 -1.065,-2.751 -2.275,-5.93 -3.635,-9.536 -1.359,-3.604 -2.88,-7.573 -4.56,-11.909 -1.68,-4.334 -3.387,-8.879 -5.121,-13.635 h 31.468 c -1.685,4.771 -3.316,9.331 -4.894,13.678 -1.577,4.347 -3.078,8.324 -4.498,11.931 -1.421,3.605 -2.667,6.782 -3.738,9.53 C 1.522,-3.716 0.656,-1.564 0,0 m 29.76,-85.111 c -1.225,3.823 -2.54,7.75 -3.95,11.78 -1.409,4.029 -2.814,8.044 -4.21,12.038 h -42.977 c -1.389,-4.015 -2.784,-8.036 -4.178,-12.071 -1.397,-4.034 -2.697,-7.951 -3.901,-11.747 h -25.723 c 4.14,11.855 8.068,22.81 11.785,32.869 3.716,10.056 7.351,19.531 10.909,28.424 3.557,8.891 7.06,17.332 10.512,25.326 3.451,7.991 7.036,15.8 10.753,23.422 H 12.261 C 15.876,17.308 19.439,9.499 22.95,1.508 c 3.507,-7.994 7.045,-16.435 10.609,-25.326 3.563,-8.893 7.204,-18.368 10.926,-28.424 3.722,-10.059 7.656,-21.014 11.806,-32.869 z"
             style="fill:#092342;fill-opacity:1;fill-rule:nonzero;stroke:none"
             id="path24" />
        </g>
        <g
           id="g26"
           transform="translate(370.887,279.4499)">
          <path
             d="m 0,0 c 0,-5.399 -0.61,-10.48 -1.826,-15.243 -1.218,-4.765 -3.335,-8.92 -6.351,-12.466 -3.018,-3.547 -7.095,-6.352 -12.227,-8.415 -5.137,-2.065 -11.62,-3.096 -19.452,-3.096 -7.201,0 -13.393,0.873 -18.579,2.619 -5.188,1.747 -9.474,3.784 -12.861,6.113 l 8.257,19.215 c 3.069,-1.802 6.351,-3.39 9.844,-4.765 3.493,-1.376 7.305,-2.064 11.433,-2.064 6.034,0 10.374,1.481 13.022,4.446 2.643,2.963 3.969,7.939 3.969,14.926 V 73.043 H 0 Z"
             style="fill:#092342;fill-opacity:1;fill-rule:nonzero;stroke:none"
             id="path28" />
        </g>
        <g
           id="g30"
           transform="translate(415.5063,297.5514)">
          <path
             d="m 0,0 c 0,-5.399 0.659,-10.269 1.985,-14.609 1.322,-4.342 3.228,-8.072 5.715,-11.194 2.487,-3.124 5.531,-5.532 9.131,-7.225 3.598,-1.694 7.726,-2.541 12.386,-2.541 4.55,0 8.654,0.847 12.306,2.541 3.652,1.693 6.721,4.101 9.21,7.225 2.486,3.122 4.391,6.852 5.717,11.194 1.322,4.34 1.985,9.21 1.985,14.609 0,5.399 -0.663,10.294 -1.985,14.689 -1.326,4.391 -3.231,8.15 -5.717,11.273 -2.489,3.122 -5.558,5.531 -9.21,7.225 -3.652,1.693 -7.756,2.541 -12.306,2.541 -4.66,0 -8.788,-0.873 -12.386,-2.62 C 13.231,31.361 10.187,28.925 7.7,25.803 5.213,22.68 3.307,18.921 1.985,14.53 0.659,10.136 0,5.293 0,0 m 84,0 c 0,-9.423 -1.406,-17.705 -4.209,-24.85 -2.807,-7.146 -6.644,-13.127 -11.512,-17.943 -4.871,-4.818 -10.666,-8.444 -17.387,-10.877 -6.724,-2.435 -13.95,-3.652 -21.675,-3.652 -7.518,0 -14.608,1.217 -21.278,3.652 -6.669,2.433 -12.493,6.059 -17.467,10.877 -4.977,4.816 -8.891,10.797 -11.75,17.943 -2.858,7.145 -4.287,15.427 -4.287,24.85 0,9.422 1.48,17.705 4.446,24.851 2.962,7.146 6.959,13.152 11.988,18.023 5.027,4.867 10.85,8.519 17.467,10.956 6.615,2.434 13.576,3.652 20.881,3.652 7.515,0 14.609,-1.218 21.278,-3.652 6.668,-2.437 12.489,-6.089 17.466,-10.956 4.975,-4.871 8.893,-10.877 11.75,-18.023 C 82.571,17.705 84,9.422 84,0"
             style="fill:#092342;fill-opacity:1;fill-rule:nonzero;stroke:none"
             id="path32" />
        </g>
        <g
           id="g34"
           transform="translate(550.1565,261.3483)">
          <path
             d="m 0,0 c 3.494,0 6.378,0.289 8.655,0.874 2.275,0.58 4.102,1.373 5.479,2.381 1.373,1.004 2.326,2.196 2.856,3.573 0.53,1.374 0.796,2.91 0.796,4.604 0,3.598 -1.695,6.591 -5.081,8.972 -3.391,2.382 -9.211,4.947 -17.468,7.701 -3.6,1.271 -7.2,2.725 -10.798,4.367 -3.6,1.64 -6.828,3.704 -9.687,6.193 -2.858,2.486 -5.187,5.503 -6.985,9.051 -1.802,3.545 -2.699,7.86 -2.699,12.941 0,5.081 0.952,9.658 2.856,13.735 1.908,4.075 4.606,7.543 8.1,10.401 3.494,2.858 7.725,5.054 12.703,6.59 4.975,1.533 10.583,2.302 16.832,2.302 7.407,0 13.814,-0.793 19.213,-2.381 5.399,-1.588 9.844,-3.336 13.338,-5.24 L 30.964,66.532 c -3.07,1.588 -6.484,2.99 -10.242,4.208 -3.758,1.216 -8.283,1.826 -13.576,1.826 -5.929,0 -10.19,-0.821 -12.783,-2.461 -2.595,-1.643 -3.889,-4.156 -3.889,-7.543 0,-2.012 0.475,-3.706 1.429,-5.081 0.954,-1.376 2.303,-2.619 4.05,-3.731 1.744,-1.112 3.755,-2.119 6.032,-3.017 2.277,-0.901 4.789,-1.826 7.544,-2.78 5.717,-2.118 10.689,-4.207 14.925,-6.271 4.233,-2.065 7.754,-4.474 10.56,-7.225 2.804,-2.755 4.895,-5.981 6.273,-9.686 1.375,-3.706 2.062,-8.205 2.062,-13.498 0,-10.269 -3.597,-18.236 -10.795,-23.897 -7.2,-5.665 -18.05,-8.495 -32.554,-8.495 -4.869,0 -9.263,0.292 -13.178,0.874 -3.918,0.582 -7.384,1.297 -10.4,2.142 -3.019,0.847 -5.613,1.747 -7.782,2.7 -2.171,0.953 -3.998,1.851 -5.479,2.699 l 6.989,19.69 c 3.279,-1.8 7.326,-3.413 12.146,-4.842 C -12.889,0.715 -6.986,0 0,0"
             style="fill:#092342;fill-opacity:1;fill-rule:nonzero;stroke:none"
             id="path36" />
        </g>
        <g
           id="g38"
           transform="translate(635.7408,254.997)">
          <path
             d="m 0,0 c 0,-4.764 -1.509,-8.392 -4.525,-10.878 -3.016,-2.486 -6.431,-3.731 -10.243,-3.731 -3.809,0 -7.223,1.245 -10.242,3.731 -3.016,2.486 -4.525,6.114 -4.525,10.878 0,4.763 1.509,8.388 4.525,10.877 3.019,2.486 6.433,3.73 10.242,3.73 3.812,0 7.227,-1.244 10.243,-3.73 C -1.509,8.388 0,4.763 0,0"
             style="fill:#eb5024;fill-opacity:1;fill-rule:nonzero;stroke:none"
             id="path40" />
        </g>
        <g
           id="g42"
           transform="translate(683.7703,242.4521)">
          <path
             d="m 0,0 c -3.546,6.298 -7.384,12.517 -11.511,18.657 -4.128,6.14 -8.524,11.937 -13.181,17.388 V 0 h -12.224 v 55.021 h 10.082 c 1.747,-1.748 3.677,-3.891 5.797,-6.432 2.114,-2.54 4.272,-5.253 6.468,-8.137 2.197,-2.886 4.381,-5.876 6.552,-8.972 2.168,-3.096 4.207,-6.074 6.112,-8.932 V 55.021 H 10.402 V 0 Z"
             style="fill:#eb5024;fill-opacity:1;fill-rule:nonzero;stroke:none"
             id="path44" />
        </g>
        <g
           id="g46"
           transform="translate(743.6341,253.091)">
          <path
             d="m 0,0 v -10.639 h -36.759 v 55.021 h 12.385 V 0 Z"
             style="fill:#eb5024;fill-opacity:1;fill-rule:nonzero;stroke:none"
             id="path48" />
        </g>
      </g>
    </g>
  </g>
</svg>
