<?xml version="1.0" encoding="UTF-8"?>
<svg width="653px" height="361px" viewBox="0 0 653 361" version="1.1" xmlns="http://www.w3.org/2000/svg" xmlns:xlink="http://www.w3.org/1999/xlink">
    <!-- Generator: Sketch 61 (89581) - https://sketch.com -->
    <title>logo-ot-dlf</title>
    <desc>Created with Sketch.</desc>
    <g id="logo-ot-dlf" stroke="none" stroke-width="1" fill="none" fill-rule="evenodd">
        <g id="logo-small-white-(2)" transform="translate(3.000000, 0.000000)" fill="#111533" fill-rule="nonzero">
            <path d="M555.352051,95.8720566 L555.352051,355.980632 L459.335891,355.980632 L459.335891,145.062108 L305.774422,308.894103 C248.101752,366.176269 159.397375,377.501878 89.3104884,336.531812 C19.2236015,295.561747 -14.8567535,212.460964 6.14471883,133.742243 C27.1461912,55.023522 98.0188802,0.217522408 179.094258,0 L650,0 L650,95.8720566 L555.352051,95.8720566 Z M179.094258,95.8720566 C132.245133,95.8720566 94.2652289,134.050979 94.2652289,181.145599 C94.2652289,228.240218 132.245133,266.419141 179.094258,266.419141 C209.033916,266.419141 238.249227,247.730158 255.714027,230.17384 C273.178827,212.617523 378.531009,101.535385 379.577287,100.726338 L383.762401,96.3574847 L179.094258,95.8720566 Z" id="Shape"></path>
        </g>
    </g>
</svg>