<?xml version="1.0" encoding="utf-8"?>
<!-- Generator: Adobe Illustrator 25.4.1, SVG Export Plug-In . SVG Version: 6.00 Build 0)  -->
<svg version="1.1" id="Laag_1" xmlns="http://www.w3.org/2000/svg" xmlns:xlink="http://www.w3.org/1999/xlink" x="0px" y="0px"
	 viewBox="0 0 595.28 841.89" style="enable-background:new 0 0 595.28 841.89;" xml:space="preserve">
<style type="text/css">
	.st0{fill:#FFFFFF;}
	.st1{fill:#E3C12C;}
	.st2{fill:none;stroke:#000000;stroke-width:0.0696;}
</style>
<g>
	<path d="M396.66,411.17c-0.02,0-0.04,0.02-0.04,0.04v1.91c0,0.02,0.02,0.04,0.04,0.04h0.51c0.03,0,0.04-0.02,0.04-0.04v-1.91
		c0-0.02-0.02-0.04-0.04-0.04H396.66L396.66,411.17z M397.59,411.17c-0.02,0-0.04,0.02-0.04,0.04v0.44c0,0.02,0.02,0.04,0.04,0.04
		h0.48v1.43c0,0.02,0.02,0.04,0.04,0.04h0.51c0.02,0,0.04-0.02,0.04-0.04v-1.43h0.43c0.02,0,0.04-0.02,0.05-0.04l0.04-0.44
		c0-0.02-0.01-0.04-0.04-0.04H397.59L397.59,411.17z"/>
	<path d="M310.78,427.07c0,1.15-0.12,3.35-0.16,4.03c0.34,0,6.3-0.19,8.69-0.19c-0.09-0.74-0.19-4.19-0.19-6.21v-1.06h2.73
		c5.18,0,8.26-3.1,8.26-6.86c0-3.88-2.54-7.7-8.35-7.7h-11.3c0.09,0.74,0.31,4.07,0.31,5.62V427.07L310.78,427.07z M319.13,418.97
		v-4.53h0.59c1.46,0,2.17,1.06,2.17,2.27c0,0.87-0.37,2.27-1.99,2.27H319.13L319.13,418.97z M331.74,422.36
		c0,6.58,3.51,8.81,10.21,8.81c6.7-0.03,10.21-2.27,10.21-8.85l-0.03-13.29c-1.92,0.19-5.96,0.12-7.88,0.06v12.51
		c0,1.8-0.31,3.26-2.08,3.26c-1.86,0-2.27-1.46-2.27-3.26v-12.57c-1.92,0.19-6.24,0.12-8.16,0.06V422.36L331.74,422.36z M355,427.07
		c0,1.15-0.15,3.91-0.15,4.03c2.08-0.09,5.21-0.19,6.27-0.19c1.86,0,5.12,0.03,10.24,0.03c-0.19-2.08-0.15-2.42-0.15-2.76
		c0-0.81,0.03-1.65,0.15-2.92c-1.43,0.09-3.29,0.09-5.18,0.09h-2.82v-12.07c0-1.15,0.12-3.29,0.19-4.25c-1.09,0-7.29,0.06-8.85,0.06
		c0.09,1.06,0.31,4.07,0.31,5.62V427.07L355,427.07z M374.06,427.07c0,1.15-0.12,3.35-0.15,4.03c0.34,0,6.3-0.19,8.69-0.19
		c-0.09-0.74-0.19-4.19-0.19-6.21v-1.06h2.73c5.18,0,8.26-3.1,8.26-6.86c0-3.88-2.55-7.7-8.35-7.7h-11.3
		c0.09,0.74,0.31,4.07,0.31,5.62V427.07L374.06,427.07z M382.41,418.97v-4.53H383c1.46,0,2.17,1.06,2.17,2.27
		c0,0.87-0.37,2.27-1.99,2.27H382.41L382.41,418.97z"/>
	<path d="M257.49,427.47c0,1.15-0.06,2.82-0.16,4.04c1.15-0.03,6.12-0.19,8.29-0.19c-0.09-0.74-0.28-5.15-0.28-7.17v-3.6
		c1.83,3.14,4.69,8.72,5.56,10.96c1.64-0.06,4.78-0.15,8.29-0.19c-0.09-0.74-0.28-5.15-0.28-7.17v-10.46c0-0.99,0.12-3.26,0.19-4.16
		h-8.35c0.09,0.74,0.31,4.03,0.31,5.59v3.26c-1.52-2.95-2.92-5.83-4.28-8.85h-9.59c0.09,0.74,0.31,4.03,0.31,5.59V427.47
		L257.49,427.47z M303.64,420.86c0-6.89-4.19-11.61-11.3-11.61c-8.29,0-11.64,5.46-11.64,11.27c0,7.14,4.53,11.05,11.42,11.05
		C299.02,431.57,303.64,428,303.64,420.86L303.64,420.86z M294.79,420.52c0,3.69-0.78,5.4-2.7,5.4c-1.89,0-2.64-1.64-2.64-5.4
		c0-3.45,0.71-5.43,2.67-5.43C294.08,415.09,294.79,417.26,294.79,420.52L294.79,420.52z"/>
	<path d="M256.78,442.01c0.13,0.91,0.74,1.89,2.44,1.89c1.58,0,2.3-0.86,2.3-1.86c0-0.82-0.28-1.59-2.18-2.06
		c-1.25-0.3-1.68-0.59-1.68-1.33c0-0.75,0.52-1.19,1.49-1.19c1.06,0,1.53,0.51,1.68,1.24h0.56c-0.09-0.83-0.71-1.74-2.21-1.74
		c-1.45,0-2.1,0.83-2.1,1.73c0,0.98,0.61,1.44,2.05,1.8c1.48,0.37,1.82,0.83,1.82,1.6c0,0.73-0.46,1.34-1.69,1.34
		c-1.11,0-1.7-0.53-1.9-1.42H256.78L256.78,442.01z M269,443.83h0.54v-6.77h-0.8c-0.94,2.24-2.28,5.6-2.44,6.09h-0.02
		c-0.24-0.76-1.4-3.78-2.32-6.09h-0.81v6.77h0.54v-2.87c0-1.16-0.03-2.73-0.08-3.5h0.03c0.3,1.02,1.71,4.72,2.35,6.37h0.53
		c0.86-2.14,2.22-5.44,2.49-6.36h0.03c-0.03,0.68-0.04,1.94-0.04,3.26V443.83L269,443.83z M274.31,436.97
		c-2.01,0-3.08,1.57-3.08,3.48c0,1.94,1.11,3.48,3.02,3.48c2.09,0,3.08-1.68,3.08-3.53C277.32,438.43,276.17,436.97,274.31,436.97
		L274.31,436.97z M274.29,437.47c1.62,0,2.46,1.37,2.46,2.94c0,1.6-0.74,3.02-2.48,3.02c-1.62,0-2.47-1.45-2.47-3.01
		C271.8,438.9,272.56,437.47,274.29,437.47L274.29,437.47z M281.68,436.97c-2.01,0-3.08,1.57-3.08,3.48c0,1.94,1.11,3.48,3.02,3.48
		c2.09,0,3.08-1.68,3.08-3.53C284.7,438.43,283.55,436.97,281.68,436.97L281.68,436.97z M281.66,437.47c1.62,0,2.46,1.37,2.46,2.94
		c0,1.6-0.73,3.02-2.48,3.02c-1.61,0-2.47-1.45-2.47-3.01C279.18,438.9,279.93,437.47,281.66,437.47L281.66,437.47z M287.6,443.83
		h0.55v-6.27h2.27v-0.5h-5.1v0.5h2.27V443.83L287.6,443.83z M291.62,443.83h0.54v-3.33h4.03v3.33h0.54v-6.77h-0.54V440h-4.03v-2.94
		h-0.54V443.83L291.62,443.83z M301.53,443.83h2.23c1.91,0,3.16-1.42,3.16-3.44c0-2.03-1.29-3.33-3.14-3.33h-2.25V443.83
		L301.53,443.83z M302.07,437.57h1.63c1.86,0,2.65,1.37,2.65,2.85c0,1.66-0.88,2.91-2.65,2.91h-1.63V437.57L302.07,437.57z
		 M308.6,437.06v6.77h0.54v-6.77H308.6L308.6,437.06z M316.45,440.26h-2.69v0.49h2.17v0.08c0,1.48-0.47,2.58-2.15,2.58
		c-1.65,0-2.39-1.4-2.39-2.94c0-1.7,0.76-3.01,2.45-3.01c1.18,0,1.84,0.57,2.13,1.51h0.54c-0.21-1.24-1.18-2.01-2.65-2.01
		c-1.98,0-3.05,1.52-3.05,3.54c0,1.92,0.99,3.4,2.94,3.4c1.4,0,1.93-0.69,2.18-1.15c0.01,0.65,0.04,0.99,0.08,1.07h0.44V440.26
		L316.45,440.26z M318.4,437.06v6.77h0.54v-6.77H318.4L318.4,437.06z M322.47,443.83h0.55v-6.27h2.27v-0.5h-5.09v0.5h2.27V443.83
		L322.47,443.83z M329.28,441.51l0.87,2.32h0.59l-2.58-6.77h-0.65l-2.48,6.77h0.55l0.85-2.32H329.28L329.28,441.51z M326.62,441.01
		c0.61-1.71,1.03-2.9,1.2-3.43h0.01c0.14,0.46,0.52,1.43,1.28,3.43H326.62L326.62,441.01z M332.13,443.83h4.07l0.1-0.5h-3.63v-6.27
		h-0.54V443.83L332.13,443.83z M339.81,442.01c0.13,0.91,0.74,1.89,2.44,1.89c1.58,0,2.3-0.86,2.3-1.86c0-0.82-0.28-1.59-2.19-2.06
		c-1.25-0.3-1.68-0.59-1.68-1.33c0-0.75,0.52-1.19,1.49-1.19c1.06,0,1.53,0.51,1.68,1.24h0.56c-0.09-0.83-0.71-1.74-2.21-1.74
		c-1.45,0-2.1,0.83-2.1,1.73c0,0.98,0.61,1.44,2.05,1.8c1.48,0.37,1.82,0.83,1.82,1.6c0,0.73-0.46,1.34-1.69,1.34
		c-1.11,0-1.7-0.53-1.9-1.42H339.81L339.81,442.01z M348.92,436.97c-2.01,0-3.08,1.57-3.08,3.48c0,1.94,1.11,3.48,3.02,3.48
		c2.09,0,3.08-1.68,3.08-3.53C351.94,438.43,350.79,436.97,348.92,436.97L348.92,436.97z M348.91,437.47c1.62,0,2.46,1.37,2.46,2.94
		c0,1.6-0.74,3.02-2.48,3.02c-1.61,0-2.47-1.45-2.47-3.01C346.42,438.9,347.17,437.47,348.91,437.47L348.91,437.47z M353.62,443.83
		h4.07l0.1-0.5h-3.63v-6.27h-0.54V443.83L353.62,443.83z M358.76,437.06v4.16c0,1.96,1.16,2.69,2.49,2.69c1.4,0,2.53-0.66,2.53-2.77
		v-4.07h-0.55v4.1c0,1.78-0.83,2.25-1.96,2.25c-0.95,0-1.95-0.46-1.95-2.25v-4.1H358.76L358.76,437.06z M367.29,443.83h0.55v-6.27
		h2.27v-0.5h-5.1v0.5h2.27V443.83L367.29,443.83z M371.31,437.06v6.77h0.54v-6.77H371.31L371.31,437.06z M376.61,436.97
		c-2.01,0-3.08,1.57-3.08,3.48c0,1.94,1.11,3.48,3.02,3.48c2.09,0,3.08-1.68,3.08-3.53C379.62,438.43,378.48,436.97,376.61,436.97
		L376.61,436.97z M376.59,437.47c1.62,0,2.46,1.37,2.46,2.94c0,1.6-0.74,3.02-2.48,3.02c-1.62,0-2.47-1.45-2.47-3.01
		C374.1,438.9,374.86,437.47,376.59,437.47L376.59,437.47z M381.85,443.83v-3.11c0-1.23,0.01-2.22-0.04-3.1h0.01
		c0.48,0.74,2.98,4.66,3.98,6.22h0.73v-6.77h-0.55v3.05c0,1.1-0.01,2.1,0.05,3.07h-0.01c-0.43-0.74-2.87-4.49-3.93-6.11h-0.79v6.77
		H381.85L381.85,443.83z M388.12,442.01c0.13,0.91,0.74,1.89,2.44,1.89c1.58,0,2.3-0.86,2.3-1.86c0-0.82-0.28-1.59-2.18-2.06
		c-1.25-0.3-1.68-0.59-1.68-1.33c0-0.75,0.52-1.19,1.49-1.19c1.06,0,1.53,0.51,1.68,1.24h0.56c-0.09-0.83-0.71-1.74-2.21-1.74
		c-1.45,0-2.1,0.83-2.1,1.73c0,0.98,0.61,1.44,2.05,1.8c1.48,0.37,1.82,0.83,1.82,1.6c0,0.73-0.46,1.34-1.69,1.34
		c-1.11,0-1.7-0.53-1.9-1.42H388.12L388.12,442.01z"/>
	<path d="M397.72,415.22c-1.68,0-3.05-1.37-3.05-3.05c0-1.68,1.37-3.05,3.05-3.05c1.68,0,3.05,1.37,3.05,3.05
		C400.78,413.85,399.41,415.22,397.72,415.22L397.72,415.22z M397.72,409.75c-1.33,0-2.41,1.08-2.41,2.41
		c0,1.33,1.08,2.41,2.41,2.41c1.33,0,2.41-1.08,2.41-2.41C400.14,410.84,399.05,409.75,397.72,409.75L397.72,409.75z"/>
	<path d="M238.62,424.81l5.29-11.55c0.21-0.46,0.17-0.99-0.1-1.42c-0.27-0.42-0.75-0.68-1.25-0.68h-6.29
		c-2.17-7.96-11.92-14.27-14.84-14.27c-2.92,0-12.66,6.31-14.81,14.27h-5.6c-4.43,0-8.04,3.59-8.04,8.01V429
		c0,0.82,0.67,1.49,1.48,1.49c0.82,0,1.48-0.67,1.48-1.49v-9.82c0-2.73,2.32-5.04,5.07-5.04h2.37v21.22c0,1.4,0.47,2.7,1.26,3.74
		h-1.42c-1.42,0-2.57,1.06-2.57,2.36c0,1.3,1.15,2.36,2.57,2.36h34.9c1.42,0,2.57-1.06,2.57-2.36c0-1.3-1.15-2.36-2.57-2.36h-0.79
		c0.78-1.04,1.26-2.33,1.26-3.74V424.81L238.62,424.81z M233.18,411.16h-3.52c-0.62-3.2-1.7-5.98-2.92-8.26
		C229.3,404.94,232.02,407.84,233.18,411.16L233.18,411.16z M221.45,400.46c1.75,1.94,4.07,5.59,5.18,10.7h-10.35
		C217.37,406.09,219.7,402.42,221.45,400.46L221.45,400.46z M216.17,402.91c-1.23,2.29-2.3,5.07-2.92,8.25h-3.52
		C210.88,407.85,213.61,404.95,216.17,402.91L216.17,402.91z M206.38,414.13h1.43h0.06h6.62h0.05h13.86h0.05h6.62h0.06h5.14
		l-4.47,9.74c-0.09,0.2-0.13,0.41-0.13,0.62v10.86c0,1.8-1.46,3.27-3.26,3.27h-22.72c-1.78,0-3.29-1.49-3.29-3.27V414.13
		L206.38,414.13z"/>
	<path class="st0" d="M206.38,435.35c0,1.77,1.51,3.27,3.29,3.27h22.72c1.8,0,3.26-1.46,3.26-3.27v-10.86
		c0-0.21,0.05-0.42,0.13-0.62l4.47-9.74h-5.14h-0.06h-6.62h-0.05h-13.86h-0.05h-6.62h-0.06h-1.43V435.35L206.38,435.35z
		 M226.74,402.91c1.23,2.28,2.3,5.06,2.92,8.26h3.52C232.02,407.84,229.3,404.94,226.74,402.91 M221.45,400.46
		c-1.75,1.96-4.08,5.63-5.17,10.7h10.35C225.52,406.05,223.2,402.4,221.45,400.46 M209.74,411.16h3.52
		c0.62-3.19,1.69-5.97,2.92-8.25C213.61,404.95,210.88,407.85,209.74,411.16"/>
	<path d="M235.43,425.96c-5.03,0-9.13,4.1-9.13,9.13c0,5.03,4.1,9.13,9.13,9.13c5.03,0,9.13-4.1,9.13-9.13
		C244.56,430.06,240.47,425.96,235.43,425.96 M235.43,446.92c-6.52,0-11.83-5.31-11.83-11.83s5.31-11.83,11.83-11.83
		c6.52,0,11.83,5.31,11.83,11.83S241.96,446.92,235.43,446.92"/>
	<path class="st1" d="M235.43,425.96c-5.03,0-9.13,4.1-9.13,9.13c0,5.03,4.1,9.13,9.13,9.13c5.03,0,9.13-4.1,9.13-9.13
		C244.56,430.06,240.47,425.96,235.43,425.96"/>
	<path class="st2" d="M235.43,425.96c-5.03,0-9.13,4.1-9.13,9.13c0,5.03,4.1,9.13,9.13,9.13c5.03,0,9.13-4.1,9.13-9.13
		C244.56,430.06,240.47,425.96,235.43,425.96L235.43,425.96z"/>
	<path d="M234.58,433.87c-0.22-0.16-0.44-0.41-0.54-0.51c-0.86-0.86-1.71-1.79-2.56-2.66c-0.4-0.41-0.74-0.89-0.4-1.48
		c0.23-0.39,0.84-0.77,1.49-1.04c0.64-0.27,1.34-0.43,1.78-0.32c0.66,0.17,0.76,0.76,0.76,1.33c0.02,1.22,0.07,2.47,0.07,3.69
		c0,0.14,0.02,0.48-0.02,0.75C235.12,433.9,234.81,434.03,234.58,433.87"/>
	<path d="M236.28,436.32c0.22,0.16,0.44,0.41,0.54,0.51c0.86,0.86,1.71,1.79,2.56,2.66c0.4,0.41,0.74,0.9,0.4,1.48
		c-0.23,0.39-0.84,0.77-1.49,1.03c-0.64,0.27-1.34,0.43-1.78,0.32c-0.66-0.17-0.76-0.76-0.76-1.33c-0.02-1.22-0.07-2.47-0.07-3.69
		c0-0.14-0.02-0.48,0.02-0.75C235.74,436.29,236.06,436.15,236.28,436.32"/>
	<path d="M235.74,429.19c0.01-0.57,0.11-1.16,0.76-1.33c0.44-0.11,1.14,0.05,1.78,0.32c0.65,0.26,1.25,0.64,1.49,1.03
		c0.34,0.58,0,1.07-0.4,1.48c-0.85,0.87-1.7,1.8-2.56,2.66c-0.1,0.1-0.32,0.35-0.54,0.51c-0.22,0.16-0.54,0.03-0.58-0.24
		c-0.04-0.27-0.02-0.6-0.02-0.75C235.68,431.66,235.73,430.41,235.74,429.19"/>
	<path d="M234.05,436.83c0.1-0.1,0.32-0.35,0.54-0.51c0.22-0.16,0.54-0.03,0.58,0.24c0.04,0.27,0.02,0.6,0.02,0.75
		c0,1.22-0.05,2.47-0.07,3.69c-0.01,0.57-0.11,1.16-0.76,1.32c-0.44,0.11-1.14-0.05-1.78-0.32c-0.64-0.26-1.25-0.64-1.49-1.04
		c-0.34-0.58,0-1.07,0.4-1.48C232.33,438.62,233.18,437.69,234.05,436.83"/>
	<path d="M241.33,434.78c-1.22,0.01-2.47,0.07-3.69,0.07c-0.14,0-0.48,0.02-0.75-0.02c-0.27-0.04-0.4-0.36-0.24-0.58
		c0.16-0.22,0.41-0.44,0.51-0.54c0.86-0.86,1.79-1.71,2.66-2.56c0.41-0.4,0.9-0.74,1.48-0.4c0.39,0.23,0.77,0.84,1.03,1.49
		c0.27,0.64,0.43,1.34,0.32,1.78C242.49,434.67,241.9,434.77,241.33,434.78"/>
	<path d="M229.53,435.41c1.22-0.01,2.47-0.07,3.69-0.07c0.14,0,0.48-0.03,0.75,0.02c0.27,0.04,0.4,0.36,0.24,0.58
		c-0.16,0.22-0.41,0.44-0.51,0.54c-0.86,0.86-1.79,1.71-2.66,2.56c-0.41,0.4-0.9,0.74-1.48,0.4c-0.39-0.23-0.77-0.84-1.03-1.49
		c-0.27-0.64-0.43-1.34-0.32-1.78C228.37,435.52,228.96,435.42,229.53,435.41"/>
	<path d="M237.17,436.48c-0.1-0.1-0.35-0.32-0.51-0.54c-0.16-0.22-0.03-0.54,0.24-0.58c0.27-0.04,0.6-0.02,0.75-0.02
		c1.22,0,2.47,0.05,3.69,0.07c0.57,0.01,1.16,0.11,1.33,0.76c0.11,0.44-0.05,1.14-0.32,1.78c-0.26,0.64-0.64,1.25-1.04,1.49
		c-0.58,0.34-1.07,0-1.48-0.4C238.95,438.19,238.03,437.34,237.17,436.48"/>
	<path d="M231.04,431.14c0.87,0.85,1.8,1.7,2.66,2.56c0.1,0.1,0.35,0.32,0.51,0.54c0.16,0.22,0.03,0.54-0.24,0.58
		c-0.27,0.04-0.6,0.02-0.74,0.02c-1.22,0-2.47-0.05-3.69-0.07c-0.57-0.01-1.16-0.11-1.33-0.77c-0.11-0.44,0.05-1.14,0.32-1.78
		c0.26-0.64,0.64-1.25,1.04-1.49C230.14,430.4,230.63,430.75,231.04,431.14"/>
</g>
</svg>
