<?xml version="1.0" encoding="UTF-8"?><svg id="Layer_2" xmlns="http://www.w3.org/2000/svg" xmlns:xlink="http://www.w3.org/1999/xlink" viewBox="0 0 222.41 77.01"><defs><style>.cls-1{fill:url(#linear-gradient-2);}.cls-2{fill:#02023b;}.cls-3{fill:url(#linear-gradient);}</style><linearGradient id="linear-gradient" x1="-26.1" y1="69.43" x2="43.47" y2="-.13" gradientTransform="matrix(1, 0, 0, 1, 0, 0)" gradientUnits="userSpaceOnUse"><stop offset="0" stop-color="#21d2fe"/><stop offset="1" stop-color="#652fa7"/></linearGradient><linearGradient id="linear-gradient-2" x1="-3.68" y1="91.85" x2="65.88" y2="22.28" xlink:href="#linear-gradient"/></defs><g id="Layer_1-2"><g><g><path class="cls-3" d="M47.37,17.59c-.12-.84-.29-1.66-.51-2.46-.13-.49-.28-.98-.45-1.45-.14-.4-.29-.79-.46-1.18-.2-.47-.41-.92-.63-1.36-.35-.68-.73-1.33-1.15-1.97-1.48-2.24-3.4-4.17-5.62-5.67-3.26-2.2-7.22-3.49-11.44-3.49-2.81,0-5.51,.57-7.97,1.61-3.68,1.55-6.79,4.14-9,7.41-2.2,3.26-3.49,7.22-3.49,11.44,0,1.5,.16,2.93,.48,4.28,.3,1.27,.74,2.46,1.3,3.55,1.05,2.06,2.51,3.74,4.13,5.09,1.26,1.06,2.63,1.94,4.02,2.7L1.46,49.19c-1.76,1.53-1.95,4.2-.42,5.97,.4,.47,.88,.82,1.41,1.06,.43,.2,.89,.32,1.35,.37,.14,.01,.29,.02,.43,.02,.92,0,1.84-.3,2.61-.91,.06-.04,.11-.08,.16-.13l3.05-2.65,15.16-13.15,7.21-6.26,14.44-12.53,.62-.53h.09v-.08c0-.94-.07-1.88-.2-2.79Zm-25.38,11.76c-1.16-.55-2.2-1.13-3.07-1.73-.65-.45-1.21-.92-1.67-1.4-.7-.72-1.19-1.46-1.55-2.34-.36-.89-.59-1.97-.59-3.42,0-1.67,.34-3.24,.94-4.67,.91-2.15,2.43-3.99,4.35-5.28,1.92-1.3,4.21-2.05,6.71-2.05,1.67,0,3.24,.34,4.67,.94,2.15,.91,3.99,2.44,5.28,4.36,.23,.33,.44,.68,.62,1.04,.37,.69,.68,1.41,.91,2.17l-5.44,4.72-9.63,8.36c-.54-.23-1.05-.46-1.55-.69Z"/><path class="cls-1" d="M43.94,41.44c-1.3-1.7-2.84-3.07-4.47-4.21-1.14-.8-2.32-1.48-3.52-2.1l-.87,.75-6.15,5.34c.76,.31,1.49,.62,2.18,.95,1.3,.61,2.47,1.25,3.46,1.94,.74,.52,1.39,1.06,1.94,1.63,.82,.86,1.43,1.77,1.88,2.89,.44,1.12,.73,2.49,.73,4.29,0,1.67-.34,3.24-.94,4.67-.91,2.15-2.43,3.99-4.35,5.28-1.92,1.3-4.21,2.05-6.71,2.05-1.67,0-3.24-.34-4.67-.94-2.15-.91-3.99-2.44-5.28-4.36-1.25-1.85-1.99-4.03-2.04-6.43l-1.04,.9-6.31,5.48c.15,.44,.31,.88,.5,1.31,1.55,3.68,4.14,6.79,7.41,9,3.26,2.2,7.22,3.49,11.44,3.49,2.81,0,5.51-.57,7.97-1.61,3.68-1.55,6.79-4.14,9-7.41,2.2-3.26,3.49-7.22,3.49-11.44,0-1.59-.15-3.11-.46-4.53-.56-2.67-1.69-5.03-3.18-6.96Z"/></g><g><path class="cls-2" d="M61.85,49.27l7.61-3.45c2.46,6.55,7.89,10.14,13.87,10.14s9.72-2.89,9.72-6.76c0-3.59-2.18-5.49-6.34-6.76l-10.28-3.17c-8.66-2.61-12.89-7.82-12.89-14.58,0-8.94,7.32-15.07,18.03-15.07,9.93,0,17.46,5.63,20.14,13.03l-7.68,3.52c-1.9-5.56-6.41-8.73-12.39-8.73-5.49,0-9.15,2.82-9.15,6.83,0,3.24,2.25,5.63,6.48,6.9l9.93,3.03c8.66,2.68,13.1,7.32,13.1,14.37,0,9.08-7.54,15.21-18.66,15.21-10.35,0-18.8-6.06-21.48-14.51Z"/><path class="cls-2" d="M145.16,24.97v52.04h-8.45v-18.03c-2.75,3.03-7.04,4.79-12.04,4.79-10.85,0-19.23-8.59-19.23-19.86s8.45-19.79,19.15-19.79c5.35,0,9.86,2.04,12.53,5.56v-4.72h8.03Zm-8.45,19.01c0-7.04-4.72-12.04-11.2-12.04s-11.27,5.07-11.27,12.04,4.72,11.97,11.27,11.97,11.2-5,11.2-11.97Z"/><path class="cls-2" d="M151.85,10.46h8.45v9.51h-8.45V10.46Zm0,14.51h8.45V62.93h-8.45V24.97Z"/><path class="cls-2" d="M170.86,50.18v-17.6h-6.9v-7.61h1.13c3.66,0,5.77-2.04,5.77-5.7v-6.06h8.45v11.76h9.01v7.61h-9.01v17.6c0,3.24,1.34,6.27,6.69,6.27,.7,0,1.62-.07,2.54-.21v6.76c-1.34,.21-3.03,.35-4.37,.35-8.52,0-13.31-4.79-13.31-13.17Z"/><path class="cls-2" d="M191,53.14l6.55-3.17c1.97,4.51,5.7,6.9,10.21,6.9,3.8,0,6.27-1.76,6.27-4.37s-2.68-3.73-5-4.37l-6.48-1.69c-6.62-1.83-9.93-5.7-9.93-10.84,0-6.83,5.7-11.48,14.08-11.48,7.46,0,13.38,3.73,15.7,9.79l-6.62,3.1c-1.41-3.59-4.79-5.77-9.08-5.77-3.52,0-5.7,1.62-5.7,4.01s2.39,3.59,4.58,4.23l6.76,1.9c6.55,1.83,10.07,5.63,10.07,10.92,0,6.83-5.99,11.48-14.65,11.48-7.89,0-14.37-4.01-16.76-10.63Z"/></g></g></g></svg>