<?xml version="1.0" encoding="UTF-8"?>
<svg width="324px" height="96px" viewBox="0 0 324 96" version="1.1" xmlns="http://www.w3.org/2000/svg" xmlns:xlink="http://www.w3.org/1999/xlink">
    <title>Untitled</title>
    <g id="Page-1" stroke="none" stroke-width="1" fill="none" fill-rule="evenodd">
        <g id="Mollie" fill="#000000" fill-rule="nonzero">
            <path d="M234.204,10.0784984 C234.204,4.51270073 238.704,0 244.256,0 C249.808,0 254.308,4.51270073 254.308,10.0784984 C254.308,15.6483003 249.808,20.161001 244.256,20.161001 C238.704,20.161001 234.204,15.6483003 234.204,10.0784984 Z M89.46,40.5582482 C94.184,45.8317414 96.796,52.6548488 96.796,59.7422315 L96.796,94.6906361 L81.384,94.6906361 L81.384,59.3057769 C81.352,52.3505318 75.624,46.6726173 68.652,46.6726173 C68.252,46.6726173 67.816,46.7046507 67.38,46.7406882 C61.148,47.3773514 55.92,53.291512 55.92,59.6741606 L55.92,94.6906361 L40.508,94.6906361 L40.508,59.4058811 C40.476,52.4186027 34.78,46.7046507 27.808,46.7046507 C27.408,46.7046507 26.972,46.7406882 26.536,46.7727216 C20.336,47.4133889 15.076,53.3235454 15.076,59.7422315 L15.076,94.6906361 L0,94.6906361 L0,59.3057769 C0,43.8496767 12.564,31.2845881 27.976,31.2845881 C35.684,31.2845881 43.02,34.5079458 48.316,40.1217935 C53.608,34.4759124 60.98,31.2845881 68.752,31.2845881 C69.592,31.2845881 70.396,31.3166215 71.232,31.3846924 C78.268,31.9893222 84.736,35.2487174 89.46,40.5582482 Z M192.992,94.7547028 L177.58,94.7547028 L177.58,1.51357664 L192.992,1.51357664 L192.992,94.7547028 Z M222.476,94.7547028 L207.064,94.7547028 L207.064,1.51357664 L222.476,1.51357664 L222.476,94.7547028 Z M251.964,94.7226694 L236.552,94.7226694 L236.552,32.8942649 L251.964,32.8942649 L251.964,94.7226694 Z M324,69.3202086 L277.124,69.3202086 C279.204,76.7799791 285.972,82.021439 293.812,82.021439 C299.944,82.021439 305.472,78.8941814 308.656,73.6206882 L309.292,72.5796038 L322.024,78.8621481 L321.288,80.1074453 C315.488,89.8856309 304.868,95.9639625 293.544,95.9639625 L293.508,95.9639625 C284.864,95.9639625 276.756,92.5363921 270.624,86.3219187 C264.492,80.1074453 261.176,71.906903 261.276,63.2378728 C261.376,54.7370177 264.728,46.7727216 270.692,40.7584567 C276.656,34.7441919 284.632,31.3846924 293.076,31.2845881 L293.476,31.2845881 C301.62,31.2845881 309.256,34.5439833 315.052,40.4221064 C320.816,46.3042336 324,54.0322836 324,62.2288217 L324,69.3202086 Z M277.36,56.5509072 L308.42,56.5509072 C306.208,49.9640459 299.908,45.3272158 292.872,45.3272158 C285.836,45.3272158 279.536,49.9640459 277.36,56.5509072 Z M169.272,63.6743274 C169.272,81.4848801 154.796,96 137.04,96 C119.28,96 104.804,81.4848801 104.804,63.6743274 C104.804,45.8677789 119.248,31.3486548 137.04,31.3486548 C154.828,31.3486548 169.272,45.8677789 169.272,63.6743274 Z M153.992,63.7063608 C153.992,54.3325965 146.388,46.7046507 137.04,46.7046507 C127.692,46.7046507 120.084,54.3325965 120.084,63.7063608 C120.084,73.0841293 127.692,80.7120751 137.04,80.7120751 C146.388,80.7120751 153.992,73.0841293 153.992,63.7063608 Z" id="Shape"></path>
        </g>
    </g>
</svg>