<?xml version="1.0" encoding="UTF-8" standalone="no"?>
<!DOCTYPE svg PUBLIC "-//W3C//DTD SVG 1.1//EN" "http://www.w3.org/Graphics/SVG/1.1/DTD/svg11.dtd">
<svg width="100%" height="100%" viewBox="0 0 2265 436" version="1.1" xmlns="http://www.w3.org/2000/svg" xmlns:xlink="http://www.w3.org/1999/xlink" xml:space="preserve" style="fill-rule:evenodd;clip-rule:evenodd;stroke-linejoin:round;stroke-miterlimit:1.41421;">
    <g transform="matrix(1.5625,0,0,1.5625,-2898.06,-262.797)">
        <g transform="matrix(2.66667,0,0,2.66667,1785.83,0)">
            <path d="M55.55,145.429C55.127,145.006 55.127,144.315 55.55,143.892L61.48,137.962C61.902,137.539 62.594,137.539 63.017,137.962L77.284,152.23C77.707,152.652 78.399,152.652 78.821,152.23L93.089,137.962C93.512,137.539 94.204,137.539 94.626,137.962L100.556,143.892C100.979,144.315 100.979,145.006 100.556,145.429L78.821,167.163C78.399,167.586 77.707,167.586 77.284,167.163L55.55,145.429Z" style="fill:rgb(201,28,79);fill-rule:nonzero;"/>
        </g>
        <g transform="matrix(2.66667,0,0,2.66667,1785.83,0)">
            <path d="M55.834,86.66C55.411,86.237 55.411,85.546 55.834,85.123L77.569,63.388C77.991,62.966 78.683,62.966 79.106,63.388L100.84,85.123C101.263,85.546 101.263,86.237 100.84,86.66L94.91,92.59C94.488,93.012 93.796,93.012 93.374,92.59L79.106,78.322C78.683,77.899 77.991,77.899 77.569,78.322L63.301,92.59C62.878,93.012 62.187,93.012 61.764,92.59L55.834,86.66Z" style="fill:rgb(201,28,79);fill-rule:nonzero;"/>
        </g>
        <g transform="matrix(2.66667,0,0,2.66667,1785.83,0)">
            <path d="M47.9,92.489C48.323,92.066 49.014,92.066 49.437,92.489L55.367,98.419C55.79,98.841 55.79,99.533 55.367,99.956L41.099,114.223C40.677,114.646 40.677,115.338 41.099,115.76L55.367,130.028C55.79,130.451 55.79,131.143 55.367,131.565L49.437,137.495C49.014,137.918 48.323,137.918 47.9,137.495L26.166,115.76C25.743,115.338 25.743,114.646 26.166,114.223L47.9,92.489Z" style="fill:rgb(135,13,79);fill-rule:nonzero;"/>
        </g>
        <g transform="matrix(2.66667,0,0,2.66667,1785.83,0)">
            <path d="M106.669,92.772C107.092,92.349 107.783,92.349 108.206,92.772L129.941,114.507C130.363,114.929 130.363,115.621 129.941,116.044L108.206,137.778C107.783,138.201 107.092,138.201 106.669,137.778L100.739,131.849C100.316,131.426 100.316,130.734 100.739,130.312L115.007,116.044C115.43,115.621 115.43,114.929 115.007,114.507L100.739,100.239C100.316,99.816 100.316,99.125 100.739,98.702L106.669,92.772Z" style="fill:rgb(135,13,79);fill-rule:nonzero;"/>
        </g>
        <g transform="matrix(2.66667,0,0,2.66667,1785.83,0)">
            <path d="M72.325,117.2C72.479,115.414 73.106,112.573 73.717,110.887L78.971,96.392C79.583,94.707 81.34,93.605 82.877,93.943C84.414,94.282 85.546,96.021 85.392,97.808L84.065,113.168C83.911,114.954 83.284,117.795 82.673,119.481L77.419,133.976C76.807,135.661 75.05,136.764 73.513,136.425C71.975,136.086 70.844,134.347 70.998,132.56L72.325,117.2Z" style="fill:rgb(135,13,79);fill-rule:nonzero;"/>
        </g>
        <g transform="matrix(2.66667,0,0,2.66667,1785.83,0)">
            <path d="M79.809,117.71C81.161,116.846 81.557,115.05 80.694,113.697C79.83,112.345 78.033,111.949 76.681,112.813C75.328,113.677 74.932,115.473 75.797,116.825C76.659,118.178 78.456,118.574 79.809,117.71" style="fill:white;fill-rule:nonzero;"/>
        </g>
        <g transform="matrix(2.66667,0,0,2.66667,1785.83,0)">
            <path d="M188.57,137.487C185.253,131.598 181.664,125.781 177.803,120.037C173.941,114.294 169.832,108.875 165.477,103.775L165.477,137.487L154.041,137.487L154.041,86.028L163.472,86.028C165.106,87.662 166.912,89.668 168.893,92.042C170.872,94.419 172.89,96.956 174.944,99.655C176.998,102.354 179.04,105.149 181.07,108.046C183.1,110.942 185.006,113.727 186.788,116.399L186.788,86.028L198.298,86.028L198.298,137.487L188.57,137.487Z" style="fill:rgb(135,13,79);fill-rule:nonzero;"/>
        </g>
        <g transform="matrix(2.66667,0,0,2.66667,1785.83,0)">
            <path d="M251.339,115.402C251.339,119.178 250.776,122.499 249.652,125.363C248.528,128.226 246.989,130.625 245.038,132.554C243.085,134.486 240.762,135.939 238.068,136.915C235.373,137.891 232.477,138.38 229.38,138.38C226.366,138.38 223.524,137.891 220.851,136.915C218.178,135.939 215.843,134.486 213.849,132.554C211.854,130.625 210.285,128.226 209.139,125.363C207.993,122.499 207.42,119.178 207.42,115.402C207.42,111.624 208.014,108.305 209.202,105.439C210.39,102.576 211.992,100.168 214.008,98.215C216.023,96.266 218.357,94.801 221.01,93.823C223.661,92.847 226.452,92.361 229.38,92.361C232.392,92.361 235.235,92.847 237.909,93.823C240.582,94.801 242.915,96.266 244.911,98.215C246.905,100.168 248.475,102.576 249.621,105.439C250.766,108.305 251.339,111.624 251.339,115.402M217.668,115.402C217.668,117.566 217.932,119.517 218.464,121.256C218.994,122.997 219.758,124.494 220.755,125.744C221.752,126.996 222.972,127.963 224.415,128.64C225.857,129.32 227.512,129.66 229.38,129.66C231.204,129.66 232.849,129.32 234.312,128.64C235.776,127.963 237.007,126.996 238.005,125.744C239.001,124.494 239.765,122.997 240.296,121.256C240.826,119.517 241.091,117.566 241.091,115.402C241.091,113.238 240.826,111.276 240.296,109.513C239.765,107.754 239.001,106.246 238.005,104.994C237.007,103.744 235.776,102.777 234.312,102.098C232.849,101.42 231.204,101.08 229.38,101.08C227.512,101.08 225.857,101.431 224.415,102.131C222.972,102.83 221.752,103.808 220.755,105.058C219.758,106.31 218.994,107.818 218.464,109.576C217.932,111.339 217.668,113.28 217.668,115.402" style="fill:rgb(135,13,79);fill-rule:nonzero;"/>
        </g>
        <g transform="matrix(2.66667,0,0,2.66667,1785.83,0)">
            <path d="M287.615,137.487C287.124,135.954 286.597,134.38 286.032,132.766C285.467,131.151 284.904,129.541 284.345,127.941L267.117,127.941C266.56,129.55 266.001,131.162 265.442,132.778C264.882,134.396 264.361,135.965 263.879,137.487L253.567,137.487C255.227,132.736 256.802,128.344 258.291,124.312C259.781,120.282 261.238,116.483 262.664,112.92C264.09,109.355 265.494,105.972 266.878,102.766C268.261,99.563 269.699,96.434 271.188,93.378L280.601,93.378C282.05,96.434 283.478,99.563 284.885,102.766C286.292,105.972 287.71,109.355 289.138,112.92C290.566,116.483 292.026,120.282 293.518,124.312C295.009,128.344 296.587,132.736 298.25,137.487L287.615,137.487ZM275.685,103.371C275.464,104.011 275.139,104.884 274.713,105.985C274.287,107.09 273.801,108.364 273.256,109.808C272.711,111.253 272.101,112.843 271.428,114.582C270.755,116.318 270.07,118.14 269.375,120.048L281.989,120.048C281.314,118.136 280.66,116.307 280.028,114.564C279.395,112.823 278.793,111.227 278.225,109.782C277.655,108.337 277.155,107.063 276.726,105.963C276.297,104.86 275.949,103.998 275.685,103.371" style="fill:rgb(135,13,79);fill-rule:nonzero;"/>
        </g>
        <g transform="matrix(2.66667,0,0,2.66667,1785.83,0)">
            <path d="M316.835,92.869C323.454,92.869 328.525,94.046 332.047,96.401C335.569,98.756 337.331,102.415 337.331,107.381C337.331,110.479 336.619,112.994 335.199,114.924C333.776,116.855 331.729,118.373 329.056,119.475C329.946,120.578 330.879,121.841 331.856,123.262C332.832,124.685 333.798,126.169 334.752,127.717C335.707,129.267 336.63,130.879 337.522,132.554C338.413,134.231 339.239,135.876 340.004,137.487L328.904,137.487C328.094,136.047 327.274,134.582 326.443,133.095C325.613,131.611 324.761,130.168 323.888,128.767C323.015,127.366 322.152,126.042 321.3,124.79C320.448,123.538 319.595,122.402 318.745,121.385L313.843,121.385L313.843,137.487L303.914,137.487L303.914,94.013C306.078,93.59 308.316,93.294 310.629,93.123C312.941,92.955 315.01,92.869 316.835,92.869M317.408,101.334C316.686,101.334 316.039,101.356 315.467,101.398C314.893,101.442 314.353,101.484 313.843,101.525L313.843,113.492L316.644,113.492C320.377,113.492 323.051,113.025 324.663,112.091C326.276,111.159 327.083,109.567 327.083,107.318C327.083,105.154 326.265,103.617 324.632,102.703C322.998,101.79 320.591,101.334 317.408,101.334" style="fill:rgb(135,13,79);fill-rule:nonzero;"/>
        </g>
        <g transform="matrix(2.66667,0,0,2.66667,1785.83,0)">
            <path d="M385.004,115.402C385.004,119.221 384.409,122.552 383.221,125.393C382.033,128.237 380.346,130.592 378.161,132.46C375.975,134.328 373.314,135.727 370.174,136.661C367.033,137.593 363.511,138.062 359.608,138.062C357.825,138.062 355.746,137.987 353.37,137.838C350.992,137.689 348.66,137.382 346.368,136.915L346.368,93.95C348.66,93.527 351.046,93.242 353.529,93.093C356.011,92.944 358.143,92.869 359.926,92.869C363.701,92.869 367.128,93.295 370.206,94.143C373.282,94.992 375.923,96.329 378.129,98.151C380.335,99.977 382.033,102.31 383.221,105.154C384.409,107.998 385.004,111.414 385.004,115.402M356.297,129.404C356.764,129.447 357.305,129.478 357.921,129.5C358.536,129.522 359.267,129.531 360.117,129.531C365.082,129.531 368.762,128.281 371.16,125.777C373.557,123.273 374.756,119.816 374.756,115.402C374.756,110.776 373.61,107.276 371.319,104.9C369.028,102.523 365.4,101.335 360.434,101.335C359.756,101.335 359.055,101.346 358.334,101.365C357.613,101.387 356.934,101.442 356.297,101.526L356.297,129.404Z" style="fill:rgb(135,13,79);fill-rule:nonzero;"/>
        </g>
        <g transform="matrix(2.66667,0,0,2.66667,1785.83,0)">
            <path d="M417.339,138.518C409.044,138.518 402.726,136.211 398.382,131.598C394.039,126.985 391.867,120.434 391.867,111.942C391.867,107.722 392.529,103.955 393.855,100.642C395.18,97.329 396.994,94.531 399.302,92.251C401.609,89.969 404.357,88.239 407.547,87.059C410.737,85.882 414.197,85.294 417.928,85.294C420.086,85.294 422.05,85.454 423.817,85.772C425.584,86.092 427.13,86.461 428.455,86.875C429.779,87.294 430.884,87.724 431.767,88.164C432.65,88.607 433.289,88.949 433.681,89.195L430.369,98.471C428.797,97.636 426.97,96.926 424.885,96.336C422.797,95.746 420.43,95.452 417.78,95.452C416.014,95.452 414.284,95.746 412.59,96.336C410.897,96.926 409.399,97.871 408.1,99.171C406.798,100.471 405.755,102.153 404.971,104.214C404.185,106.275 403.792,108.776 403.792,111.723C403.792,114.078 404.05,116.275 404.565,118.312C405.082,120.348 405.915,122.102 407.069,123.574C408.221,125.047 409.731,126.213 411.597,127.071C413.46,127.93 415.719,128.36 418.369,128.36C420.037,128.36 421.534,128.261 422.86,128.064C424.185,127.869 425.363,127.636 426.393,127.364C427.424,127.097 428.331,126.79 429.117,126.446C429.902,126.102 430.614,125.784 431.252,125.488L434.418,134.69C432.799,135.672 430.516,136.556 427.572,137.341C424.627,138.125 421.215,138.518 417.339,138.518" style="fill:rgb(135,13,79);fill-rule:nonzero;"/>
        </g>
        <g transform="matrix(2.66667,0,0,2.66667,1785.83,0)">
            <path d="M482.99,115.402C482.99,119.178 482.428,122.499 481.303,125.363C480.178,128.226 478.64,130.625 476.689,132.554C474.736,134.486 472.413,135.939 469.719,136.915C467.024,137.891 464.128,138.38 461.031,138.38C458.017,138.38 455.174,137.891 452.502,136.915C449.828,135.939 447.494,134.486 445.5,132.554C443.505,130.625 441.936,128.226 440.79,125.363C439.645,122.499 439.071,119.178 439.071,115.402C439.071,111.624 439.666,108.305 440.854,105.439C442.041,102.576 443.643,100.168 445.659,98.215C447.674,96.266 450.009,94.801 452.661,93.823C455.313,92.847 458.103,92.361 461.031,92.361C464.043,92.361 466.887,92.847 469.56,93.823C472.233,94.801 474.566,96.266 476.561,98.215C478.556,100.168 480.125,102.576 481.271,105.439C482.417,108.305 482.99,111.624 482.99,115.402M449.319,115.402C449.319,117.566 449.583,119.517 450.115,121.256C450.645,122.997 451.409,124.494 452.406,125.744C453.403,126.996 454.623,127.963 456.066,128.64C457.508,129.32 459.163,129.66 461.031,129.66C462.855,129.66 464.499,129.32 465.964,128.64C467.427,127.963 468.657,126.996 469.655,125.744C470.651,124.494 471.416,122.997 471.946,121.256C472.477,119.517 472.742,117.566 472.742,115.402C472.742,113.238 472.477,111.276 471.946,109.513C471.416,107.754 470.651,106.246 469.655,104.994C468.657,103.744 467.427,102.777 465.964,102.098C464.499,101.42 462.855,101.08 461.031,101.08C459.163,101.08 457.508,101.431 456.066,102.131C454.623,102.83 453.403,103.808 452.406,105.058C451.409,106.31 450.645,107.818 450.115,109.576C449.583,111.339 449.319,113.28 449.319,115.402" style="fill:rgb(135,13,79);fill-rule:nonzero;"/>
        </g>
        <g transform="matrix(2.66667,0,0,2.66667,1785.83,0)">
            <path d="M529.9,115.402C529.9,119.221 529.305,122.552 528.117,125.393C526.929,128.237 525.242,130.592 523.057,132.46C520.871,134.328 518.209,135.727 515.07,136.661C511.929,137.593 508.407,138.062 504.504,138.062C502.721,138.062 500.642,137.987 498.266,137.838C495.888,137.689 493.556,137.382 491.264,136.915L491.264,93.95C493.556,93.527 495.942,93.242 498.425,93.093C500.907,92.944 503.039,92.869 504.822,92.869C508.597,92.869 512.024,93.295 515.102,94.143C518.178,94.992 520.819,96.329 523.025,98.151C525.231,99.977 526.929,102.31 528.117,105.154C529.305,107.998 529.9,111.414 529.9,115.402M501.193,129.404C501.66,129.447 502.201,129.478 502.817,129.5C503.432,129.522 504.163,129.531 505.013,129.531C509.978,129.531 513.658,128.281 516.056,125.777C518.453,123.273 519.652,119.816 519.652,115.402C519.652,110.776 518.507,107.276 516.215,104.9C513.924,102.523 510.296,101.335 505.331,101.335C504.652,101.335 503.951,101.346 503.23,101.365C502.509,101.387 501.83,101.442 501.193,101.526L501.193,129.404Z" style="fill:rgb(135,13,79);fill-rule:nonzero;"/>
        </g>
        <g transform="matrix(2.66667,0,0,2.66667,1785.83,0)">
            <path d="M538.175,137.487L538.175,93.378L567.963,93.378L567.963,101.716L548.104,101.716L548.104,110.372L565.735,110.372L565.735,118.519L548.104,118.519L548.104,129.149L569.427,129.149L569.427,137.487L538.175,137.487Z" style="fill:rgb(135,13,79);fill-rule:nonzero;"/>
        </g>
    </g>
</svg>
