<?xml version="1.0" encoding="UTF-8"?>
<svg width="256px" height="42px" viewBox="0 0 256 42" version="1.1" xmlns="http://www.w3.org/2000/svg" xmlns:xlink="http://www.w3.org/1999/xlink">
    <title>Untitled</title>
    <g id="Page-1" stroke="none" stroke-width="1" fill="none" fill-rule="evenodd">
        <g id="oneshoe" transform="translate(0.000000, 0.000000)" fill="#000923" fill-rule="nonzero">
            <g id="Group">
                <path d="M254.873524,32.9730167 L230.325417,32.9730167 C229.673032,32.9730167 229.198665,33.5000295 229.198665,34.0859124 L229.198665,40.4695815 C229.198665,41.0552269 229.673032,41.5822397 230.325417,41.5822397 L254.873524,41.5822397 C255.525667,41.5822397 256,41.0552269 256,40.4695815 L256,34.0859124 C256,33.5000633 255.525667,32.9730167 254.873524,32.9730167 Z" id="Shape"></path>
                <path d="M254.873524,0.585611314 L230.325417,0.585611314 C229.673032,0.585611314 229.198665,1.11262415 229.198665,1.69850706 L229.198665,8.08217625 C229.198665,8.66782151 229.673032,9.1948683 230.325417,9.1948683 L254.873524,9.1948683 C255.525667,9.1948683 256,8.66782151 256,8.08217625 L256,1.69854101 C256,1.11262415 255.525667,0.585611314 254.873524,0.585611314 Z" id="Shape"></path>
                <path d="M201.527353,0.632496886 C194.115797,0.632496886 187.687561,4.43291027 184.049172,10.1733542 L184.049172,32.0755025 C187.687561,37.7825053 194.115797,41.5355239 201.527353,41.5355239 C213.030515,41.5355239 222.233087,32.502735 222.233087,21.1408774 C222.233087,9.77901974 213.030481,0.632496886 201.527353,0.632496886 Z M201.526419,32.7975947 C195.063321,32.7975947 189.726975,27.526346 189.726975,21.1426427 C189.726975,14.7003412 195.063321,9.37069767 201.526419,9.37069767 C208.049064,9.37069767 213.385409,14.7003072 213.385409,21.1426427 C213.385409,27.526312 208.049064,32.7975947 201.526419,32.7975947 Z" id="Shape"></path>
                <rect id="Rectangle-path" x="158.905491" y="0.585645264" width="15.8383901" height="15.8594095"></rect>
                <path d="M131.396342,12.298211 C131.396342,10.1519315 133.327534,8.58559351 138.679181,8.58559351 C142.34679,8.58559351 146.686623,9.78132837 146.686623,9.78132837 C147.319171,9.89132783 147.870362,9.46032687 147.971834,8.89236978 L149.07695,2.70198052 C149.17818,2.13402345 148.809646,1.5426745 148.177098,1.43267504 C148.177098,1.43267504 142.955208,1.49564123e-15 137.680626,1.49564123e-15 C128.342205,1.49564123e-15 122.175422,5.45284969 122.175422,12.9943311 C122.175422,26.569079 142.203116,23.8424165 142.203116,29.5855766 C142.203116,32.2541159 139.018253,33.1822192 134.744025,33.1822192 C131.502419,33.1822192 125.101637,31.657267 125.101637,31.657267 C124.443159,31.5310732 123.861225,31.9620402 123.74677,32.5434755 L122.499988,38.879003 C122.385533,39.4601329 122.761718,40.0752132 123.420231,40.2016786 C123.420231,40.2016786 130.4286,42 136.212378,42 C145.60955,42 151.835083,36.4309378 151.835083,28.8313332 C151.835083,15.0827251 131.396342,17.9832478 131.396342,12.298211 Z" id="Shape"></path>
                <path d="M100.850332,32.9730167 L76.3022255,32.9730167 C75.6500821,32.9730167 75.1755066,33.5000295 75.1755066,34.0859124 L75.1755066,40.4695815 C75.1755066,41.0552269 75.6501168,41.5822397 76.3022255,41.5822397 L100.850332,41.5822397 C101.502475,41.5822397 101.976808,41.0552269 101.976808,40.4695815 L101.976808,34.0859124 C101.976808,33.5000633 101.502475,32.9730167 100.850332,32.9730167 Z" id="Shape"></path>
                <path d="M100.850332,0.585611314 L76.3022255,0.585611314 C75.6500821,0.585611314 75.1755066,1.11262415 75.1755066,1.69850706 L75.1755066,8.08217625 C75.1755066,8.66782151 75.6501168,9.1948683 76.3022255,9.1948683 L100.850332,9.1948683 C101.502475,9.1948683 101.976808,8.66782151 101.976808,8.08217625 L101.976808,1.69854101 C101.976808,1.11262415 101.502475,0.585611314 100.850332,0.585611314 Z" id="Shape"></path>
                <polygon id="Shape" points="65.8070348 22.4896949 65.8070348 1.62123584 43.7865945 1.61342724"></polygon>
                <path d="M20.6480209,0.632496886 C9.14485896,0.632496886 0,9.77901974 0,21.1409113 C0,32.5028029 9.14485896,41.5355578 20.6480209,41.5355578 C32.1511481,41.5355578 41.3537884,32.5027689 41.3537884,21.1409113 C41.3537884,9.77905369 32.1511827,0.632496886 20.6480209,0.632496886 Z M20.6471554,32.7975947 C14.1840572,32.7975947 8.84767796,27.526346 8.84767796,21.1426427 C8.84767796,14.7003412 14.1840572,9.37069767 20.6471554,9.37069767 C27.1695236,9.37069767 32.5061106,14.7003072 32.5061106,21.1426427 C32.5061106,27.526312 27.1695236,32.7975947 20.6471554,32.7975947 Z" id="Shape"></path>
                <path d="M76.3023294,25.0666358 L95.0394806,25.0666358 C95.6323538,25.0666358 96.1659572,24.5979837 96.1659572,23.9537401 L96.1659572,17.570037 C96.1659572,16.9843917 95.6323538,16.4573788 95.0394806,16.4573788 L76.3023294,16.4573788 C75.709179,16.4573788 75.1756104,16.9843917 75.1756104,17.570037 L75.1756104,23.9537061 C75.1756104,24.5979837 75.709179,25.0666358 76.3023294,25.0666358 Z" id="Shape"></path>
                <rect id="Rectangle-path" x="158.905734" y="25.066568" width="15.831293" height="16.5159094"></rect>
                <path d="M230.325279,25.0666358 L249.062708,25.0666358 C249.655582,25.0666358 250.189184,24.5979837 250.189184,23.9537401 L250.189184,17.570037 C250.189184,16.9843917 249.655582,16.4573788 249.062708,16.4573788 L230.325279,16.4573788 C229.732405,16.4573788 229.198803,16.9843917 229.198803,17.570037 L229.198803,23.9537061 C229.198803,24.5979837 229.732441,25.0666358 230.325279,25.0666358 Z" id="Shape"></path>
            </g>
            <polygon id="Shape" points="64.0476291 35.3627888 48.8784538 35.3627888 48.8784538 20.2073079"></polygon>
        </g>
    </g>
</svg>