<?xml version="1.0" encoding="UTF-8"?>
<svg width="256px" height="56px" viewBox="0 0 256 56" version="1.1" xmlns="http://www.w3.org/2000/svg" xmlns:xlink="http://www.w3.org/1999/xlink">
    <title>Untitled</title>
    <g id="Page-1" stroke="none" stroke-width="1" fill="none" fill-rule="evenodd">
        <g id="Paqt" transform="translate(0.000000, -0.000000)" fill="#000000" fill-rule="nonzero">
            <path d="M44.2181818,18.8317654 C44.2181818,11.3643987 38.4,11.3643987 34.6530909,11.3643987 L12.4741818,11.3643987 L12.4741818,26.252461 L34.6763636,26.252461 C38.4232727,26.252461 44.2414545,26.252461 44.2414545,18.8317654 M56.7156364,18.8317654 C56.7156364,29.8461313 49.152,36.9167941 38.0974545,36.9167941 L12.4974545,36.9167941 L12.4974545,50.1013634 L0,50.1013634 L0,0.700065628 L38.144,0.700065628 C49.152,0.700065628 56.7621818,7.84073503 56.7621818,18.8317654" id="Shape"></path>
            <path d="M100.189091,30.1261575 L90.3447273,10.080945 L80.4305455,30.1261575 L100.189091,30.1261575 Z M104.843636,39.600379 L75.7992727,39.600379 L70.5861818,50.1013634 L56.8552727,50.1013634 L81.8967273,0.700065628 L98.7461818,0.700065628 L123.834182,50.1013634 L110.033455,50.1013634 L104.843636,39.600379 Z" id="Shape"></path>
            <polygon id="Path" points="256 11.3643987 232.424727 11.3643987 232.424727 50.1013634 219.950545 50.1013634 219.950545 11.3643987 196.375273 11.3643987 196.375273 0.700065628 256 0.700065628"></polygon>
            <path d="M185.064727,39.6703856 L185.064727,39.6703856 L187.578182,42.2139573 L187.578182,42.2139573 C186.88,41.4672207 186.065455,40.5571354 185.088,39.6937211" id="Path"></path>
            <path d="M187.671273,42.330635 L187.671273,42.2139573 L185.064727,39.6703856 L185.064727,39.6703856 C181.269836,35.6756094 175.243634,34.7986332 170.472727,37.5468532 C166.632911,39.5265055 162.331127,40.4294959 158.021818,40.1604315 C145.058909,40.1604315 140.008727,35.4933273 140.008727,25.3423757 C140.008727,15.1914241 144.989091,10.6643331 158.021818,10.6643331 C171.054545,10.6643331 176.058182,15.3314372 176.058182,25.3423757 L176.058182,25.3423757 C176.051905,25.5877627 176.144752,25.825287 176.315652,26.001042 C176.486552,26.1767969 176.721011,26.2758773 176.965818,26.2757966 C180.51076,26.3217662 183.98606,27.269213 187.066182,29.029388 C187.336399,29.181742 187.665477,29.1852709 187.938882,29.0387464 C188.212287,28.892222 188.392199,28.6159126 188.416,28.3059869 C188.416,27.3492305 188.532364,26.3458031 188.532364,25.3423757 C188.509091,9.0308466 179.316364,0 158.021818,0 C136.727273,0 127.511273,8.96084003 127.511273,25.3423757 C127.511273,41.7239114 136.657455,50.801429 158.021818,50.801429 C163.248871,50.9294482 168.461437,50.196301 173.451636,48.6312256 C174.764439,48.1994368 176.207877,48.552224 177.175273,49.5413109 L183.249455,55.725224 C183.416348,55.9007032 183.647627,56 183.889455,56 C184.131282,56 184.362562,55.9007032 184.529455,55.725224 L192.046545,48.0711731 C192.401355,47.7082185 192.401355,47.1273386 192.046545,46.7643839 L187.671273,42.3072994 L187.671273,42.330635 Z" id="Path"></path>
            <polygon id="Path" points="187.671273 42.330635 187.671273 42.330635 187.578182 42.2139573"></polygon>
        </g>
    </g>
</svg>