<svg version="1.1" xmlns="http://www.w3.org/2000/svg" x="0" y="0" viewBox="0 0 534.1 86.2" xml:space="preserve">
  <path d="M13.4 47.6c1.8 6 6 9.3 12.4 9.3C31.2 57 36 55 36 50c0-2.6-1.5-5.1-7.9-7.3l-7.4-2.5C5.6 35 3.4 25.5 3.4 19.9 3.4 7.6 13 0 26.4 0c10.5 0 18.7 5.1 22.8 14.9L36.9 21c-2.9-6.9-7.7-7.7-10.5-7.7-4.7 0-8.3 1.8-8.3 6.3 0 1.8.5 5 7.3 7.3l7.2 2.5c15.3 4.8 18 13.9 18.1 20.2 0 14.3-12.5 20.7-24.5 20.7-13 0-24.8-7.4-26.2-20l13.4-2.7zM109.2 60c-7.4 8.1-17.3 10.3-24.3 10.3-19.3 0-29.9-12.1-29.9-27C55 28 67 15.9 83.8 15.9c14.4 0 28.3 10 28.3 30.7H70c.3 6.5 6.3 11.3 16 11.3 5.4 0 10.8-2.8 14.4-6.2l8.8 8.3zM70.3 37.5h26.1c-1-6.7-7.8-9.3-12.9-9.3-4.8 0-11.3 2.2-13.2 9.3zM117.8 86.2V17h15.1v7.6c3.8-5.4 8.8-8.8 16.4-8.8 15.9 0 25.4 12.2 25.4 27.5 0 14.7-8.9 27-25.1 27-7 0-13.1-3.5-16.7-8.2v24.2c0-.1-15.1-.1-15.1-.1zm28.3-58c-7.4 0-13.6 4.8-13.6 14.2 0 9.7 5.8 15.6 14 15.6 8.3 0 13-6.7 13-14.8 0-8.3-5-15-13.4-15zM200.1 17h18v11.9h-18v24.4c0 2.2.9 4.6 3.9 4.6s4-2.4 4-4.9c0-1.5-.4-3.7-.7-4.5h12c.9 1.9 1.2 4.4 1.2 6.2 0 7.7-5.1 15.6-17.4 15.6-9.1 0-18.1-3.2-18.1-18.4v-23h-7.8V17h9V.2h14l-.1 16.8zM278.5 60c-7.4 8.1-17.3 10.3-24.3 10.3-19.3 0-29.9-12.1-29.9-27 0-15.4 12-27.5 28.8-27.5 14.4 0 28.3 10 28.3 30.7h-42c.3 6.5 6.3 11.3 16 11.3 5.4 0 10.8-2.8 14.5-6.2l8.6 8.4zm-38.9-22.5h26.1c-1-6.7-7.8-9.3-12.9-9.3-4.9 0-11.4 2.2-13.2 9.3zM335.7 41.2v28h-15V41.1c0-7.1-2-12.7-8.8-12.7-6.6 0-8.6 5.8-8.6 12.8v28h-15.2V17h15.1v7.1c3.4-5.2 8.2-8.2 13.9-8.2 7.9 0 13.3 3.5 16 8.8 4-7.6 11.5-8.8 16.5-8.8 14.6 0 18.6 11.7 18.6 24.9v28.4h-15.1V41.1c0-7.1-2-12.7-8.8-12.7-6.5 0-8.6 5.8-8.6 12.8zM407.8 70.3c-7.6 0-12.6-3.4-16.4-8.8v7.6h-15.1V.1h15.2V24c3.6-4.8 9.7-8.2 16.7-8.2 16.3 0 25.1 12.3 25.1 27-.1 15.3-9.7 27.5-25.5 27.5zM405 28.2c-8.2 0-14 5.9-14 15.6 0 9.5 6.2 14.2 13.6 14.2 8.3 0 13.4-6.7 13.4-15.1 0-8-4.6-14.7-13-14.7zM492.5 60c-7.4 8.1-17.3 10.3-24.3 10.3-19.3 0-29.9-12.1-29.9-27 0-15.4 12-27.5 28.8-27.5 14.4 0 28.3 10 28.3 30.7h-42c.3 6.5 6.3 11.3 16 11.3 5.4 0 10.8-2.8 14.5-6.2l8.6 8.4zm-38.8-22.5h26.1c-1-6.7-7.8-9.3-12.9-9.3-4.9 0-11.4 2.2-13.2 9.3zM515.8 28.4c1.7-9.5 9.8-12.5 14.3-12.5 1.7 0 2.2.1 3.9.4v15c-2.1-.5-4.9-.7-6.4-.7-5.7 0-11.4 3.4-11.4 10.3v28.4H501V17h14.8v11.4z"></path>
</svg>