<?xml version="1.0" encoding="utf-8"?>
<!-- Generator: Adobe Illustrator 23.1.1, SVG Export Plug-In . SVG Version: 6.00 Build 0)  -->
<svg version="1.1" id="Laag_1" xmlns="http://www.w3.org/2000/svg" xmlns:xlink="http://www.w3.org/1999/xlink" x="0px" y="0px"
	 viewBox="0 0 414.09 200" style="enable-background:new 0 0 414.09 200;" xml:space="preserve">
<style type="text/css">
	.st0{fill:url(#SVGID_1_);}
	.st1{fill:url(#SVGID_2_);}
	.st2{fill:url(#SVGID_3_);}
	.st3{fill:url(#SVGID_4_);}
	.st4{fill:url(#SVGID_5_);}
	.st5{fill:#FFFFFF;}
	.st6{fill:#523072;}
	.st7{fill:#02234A;}
	.st8{fill:url(#SVGID_6_);}
	.st9{fill:url(#SVGID_7_);}
	.st10{fill:url(#SVGID_8_);}
	.st11{fill:url(#SVGID_9_);}
	.st12{fill:url(#SVGID_10_);}
</style>
<g>
	
		<radialGradient id="SVGID_1_" cx="244.9821" cy="93.2718" r="190.8572" gradientTransform="matrix(0.2669 -0.9637 0.5923 0.164 124.347 314.0641)" gradientUnits="userSpaceOnUse">
		<stop  offset="0" style="stop-color:#523272"/>
		<stop  offset="0.4214" style="stop-color:#503271"/>
		<stop  offset="0.5999" style="stop-color:#49306E"/>
		<stop  offset="0.7324" style="stop-color:#3C2E67"/>
		<stop  offset="0.8422" style="stop-color:#2B2B5F"/>
		<stop  offset="0.9369" style="stop-color:#142754"/>
		<stop  offset="1" style="stop-color:#00244A"/>
	</radialGradient>
	<path class="st0" d="M2.62,144.04l4.81-16.61c4.66,2.48,10.42,4.67,17.27,6.56c6.85,1.9,13.33,2.84,19.45,2.84
		c10.34,0,18.36-1.93,24.04-5.79c5.68-3.86,8.52-9.07,8.52-15.63c0-4.66-1.42-8.78-4.26-12.35c-2.84-3.57-6.89-6.85-12.13-9.84
		c-5.25-2.99-12.53-6.52-21.86-10.6c-9.18-4.08-16.5-8.05-21.97-11.91c-5.46-3.86-9.58-8.38-12.35-13.55C1.38,51.99,0,45.76,0,38.47
		c0-7.28,1.97-13.84,5.9-19.67c3.93-5.83,9.58-10.42,16.94-13.77C30.2,1.68,38.83,0,48.74,0c6.85,0,13.73,0.95,20.66,2.84
		c6.92,1.9,13.15,4.23,18.69,6.99l-6.99,16.61c-5.1-2.48-9.95-4.41-14.54-5.79c-4.59-1.38-10.02-2.08-16.28-2.08
		c-8.74,0-15.81,1.68-21.2,5.03c-5.39,3.35-8.09,8.16-8.09,14.43c0,4.81,1.38,9,4.15,12.57c2.77,3.57,6.7,6.81,11.8,9.73
		c5.1,2.92,12.6,6.63,22.51,11.15c13.26,5.98,22.98,12.17,29.18,18.58c6.19,6.41,9.29,14.72,9.29,24.92
		c0,7.87-2.11,14.83-6.34,20.87c-4.23,6.05-10.35,10.75-18.36,14.1c-8.02,3.35-17.63,5.03-28.85,5.03c-6.41,0-14.25-1.17-23.5-3.5
		C11.62,149.15,5.54,146.67,2.62,144.04z"/>
	
		<radialGradient id="SVGID_2_" cx="244.9821" cy="93.2718" r="190.8572" gradientTransform="matrix(0.2669 -0.9637 0.5923 0.164 124.347 314.0641)" gradientUnits="userSpaceOnUse">
		<stop  offset="0" style="stop-color:#523272"/>
		<stop  offset="0.4214" style="stop-color:#503271"/>
		<stop  offset="0.5999" style="stop-color:#49306E"/>
		<stop  offset="0.7324" style="stop-color:#3C2E67"/>
		<stop  offset="0.8422" style="stop-color:#2B2B5F"/>
		<stop  offset="0.9369" style="stop-color:#142754"/>
		<stop  offset="1" style="stop-color:#00244A"/>
	</radialGradient>
	<path class="st1" d="M205.46,46.12v151.69l-21.2,2.19v-52.46c-3.94,2.33-8.02,4.15-12.24,5.46c-4.23,1.31-7.87,1.97-10.93,1.97
		c-10.79,0-20.15-2.33-28.09-6.99c-7.94-4.66-14.03-11.26-18.25-19.78c-4.23-8.52-6.34-18.47-6.34-29.84
		c0-10.93,2.19-20.55,6.56-28.85s10.56-14.75,18.58-19.34c8.01-4.59,17.27-6.89,27.76-6.89c3.79,0,8.23,0.84,13.33,2.51
		c5.1,1.68,9.84,4.12,14.21,7.32l4.59-6.99H205.46z M173.77,134.86c3.64-1.46,7.14-3.72,10.49-6.78V69.51
		c-3.35-2.91-6.89-5.03-10.6-6.34c-3.72-1.31-7.91-1.97-12.57-1.97c-9.76,0-17.41,3.46-22.95,10.38
		c-5.54,6.92-8.31,15.78-8.31,26.56c0,11.66,2.73,21.06,8.2,28.2c5.46,7.14,13.15,10.71,23.06,10.71
		C165.9,137.05,170.12,136.32,173.77,134.86z"/>
	
		<radialGradient id="SVGID_3_" cx="244.9821" cy="93.2718" r="190.8572" gradientTransform="matrix(0.2669 -0.9637 0.5923 0.164 124.347 314.0641)" gradientUnits="userSpaceOnUse">
		<stop  offset="0" style="stop-color:#523272"/>
		<stop  offset="0.4214" style="stop-color:#503271"/>
		<stop  offset="0.5999" style="stop-color:#49306E"/>
		<stop  offset="0.7324" style="stop-color:#3C2E67"/>
		<stop  offset="0.8422" style="stop-color:#2B2B5F"/>
		<stop  offset="0.9369" style="stop-color:#142754"/>
		<stop  offset="1" style="stop-color:#00244A"/>
	</radialGradient>
	<path class="st2" d="M238.27,27.1c-3.64,0-6.7-1.27-9.18-3.83c-2.48-2.55-3.72-5.65-3.72-9.29c0-3.64,1.24-6.74,3.72-9.29
		c2.48-2.55,5.54-3.83,9.18-3.83c3.64,0,6.78,1.28,9.4,3.83c2.62,2.55,3.93,5.65,3.93,9.29c0,3.64-1.31,6.74-3.93,9.29
		C245.04,25.83,241.91,27.1,238.27,27.1z M228,152.13V46.12h21.2v106.01H228z"/>
	
		<radialGradient id="SVGID_4_" cx="244.9821" cy="93.2718" r="190.8572" gradientTransform="matrix(0.2669 -0.9637 0.5923 0.164 124.347 314.0641)" gradientUnits="userSpaceOnUse">
		<stop  offset="0" style="stop-color:#523272"/>
		<stop  offset="0.4214" style="stop-color:#503271"/>
		<stop  offset="0.5999" style="stop-color:#49306E"/>
		<stop  offset="0.7324" style="stop-color:#3C2E67"/>
		<stop  offset="0.8422" style="stop-color:#2B2B5F"/>
		<stop  offset="0.9369" style="stop-color:#142754"/>
		<stop  offset="1" style="stop-color:#00244A"/>
	</radialGradient>
	<path class="st3" d="M315.84,47.43l6.56,15.96h-25.79v55.96c0,5.68,1.24,10.16,3.72,13.44c2.48,3.28,6.26,4.92,11.37,4.92
		c2.62,0,6.05-0.8,10.27-2.4l5.46,15.96c-2.19,1.16-4.99,2.22-8.42,3.17c-3.43,0.95-6.59,1.42-9.51,1.42
		c-10.49,0-18.76-2.88-24.81-8.63c-6.05-5.75-9.07-13.95-9.07-24.59V63.39h-14.86l-0.22-15.96h15.08V20.98l20.98-4.81v31.26H315.84z
		"/>
	
		<radialGradient id="SVGID_5_" cx="244.9821" cy="93.2718" r="190.8572" gradientTransform="matrix(0.2669 -0.9637 0.5923 0.164 124.347 314.0641)" gradientUnits="userSpaceOnUse">
		<stop  offset="0" style="stop-color:#523272"/>
		<stop  offset="0.4214" style="stop-color:#503271"/>
		<stop  offset="0.5999" style="stop-color:#49306E"/>
		<stop  offset="0.7324" style="stop-color:#3C2E67"/>
		<stop  offset="0.8422" style="stop-color:#2B2B5F"/>
		<stop  offset="0.9369" style="stop-color:#142754"/>
		<stop  offset="1" style="stop-color:#00244A"/>
	</radialGradient>
	<path class="st4" d="M336.06,145.36l6.56-14.64c9.91,4.81,19.38,7.21,28.42,7.21c6.99,0,12.57-1.24,16.72-3.72
		c4.15-2.48,6.23-5.75,6.23-9.84c0-7.28-7.87-13.41-23.61-18.36c-23.17-7.58-34.75-18.21-34.75-31.91c0-9.62,3.61-17.16,10.82-22.62
		c7.21-5.46,17.01-8.2,29.4-8.2c4.95,0,10.82,0.95,17.6,2.84c6.78,1.9,12.27,4.3,16.5,7.21l-6.56,14.21
		c-5.1-2.33-9.76-4.12-13.99-5.36c-4.23-1.24-8.89-1.86-13.99-1.86c-5.54,0-10.09,1.28-13.66,3.83c-3.57,2.55-5.35,5.72-5.35,9.51
		c0.14,2.92,2.08,5.61,5.79,8.09c3.72,2.48,9.07,4.88,16.07,7.21c23.9,8.6,35.85,20.04,35.85,34.32c0,10.05-3.72,17.85-11.15,23.39
		c-7.43,5.54-18.07,8.31-31.91,8.31c-5.1,0-11.19-0.87-18.25-2.62C345.71,150.6,340.14,148.27,336.06,145.36z"/>
</g>
</svg>
