<?xml version="1.0" encoding="UTF-8"?>
<svg width="256px" height="219px" viewBox="0 0 256 219" version="1.1" xmlns="http://www.w3.org/2000/svg" xmlns:xlink="http://www.w3.org/1999/xlink">
    <title>Untitled</title>
    <defs>
        <linearGradient x1="98.212%" y1="50%" x2="9.136%" y2="50%" id="linearGradient-1">
            <stop stop-color="#079E13" offset="0%"></stop>
            <stop stop-color="#10AB19" offset="27.245%"></stop>
            <stop stop-color="#0B9DA4" offset="55.835%"></stop>
            <stop stop-color="#0713A9" offset="100%"></stop>
        </linearGradient>
        <path d="M6.91891892,0 L249.081081,0 C252.902294,0 256,3.09610887 256,6.91535271 C256,10.7345966 252.902294,13.8307054 249.081081,13.8307054 L6.91891892,13.8307054 C3.09770551,13.8307054 0,10.7345966 0,6.91535271 C0,3.09610887 3.09770551,0 6.91891892,0 Z" id="path-2"></path>
        <path d="M6.91891892,0 L249.081081,0 C252.902294,0 256,3.09610887 256,6.91535271 C256,10.7345966 252.902294,13.8307054 249.081081,13.8307054 L6.91891892,13.8307054 C3.09770551,13.8307054 0,10.7345966 0,6.91535271 C0,3.09610887 3.09770551,0 6.91891892,0 Z" id="path-4"></path>
    </defs>
    <g id="Page-1" stroke="none" stroke-width="1" fill="none" fill-rule="evenodd">
        <g id="Swis" transform="translate(0.000000, 0.000000)">
            <path d="M14.0592432,145.114066 L5.20302703,145.114066 L5.20302703,118.397754 L14.282955,118.397754 C16.9236757,118.397754 19.1884685,118.932541 21.0796396,119.997505 C22.9622989,121.05147 24.4830584,122.64857 25.4431712,124.580079 C26.4579459,126.569396 26.9653333,128.948277 26.9653333,131.719028 C26.9653333,134.501305 26.4556396,136.894017 25.4362523,138.897164 C24.4660153,140.846854 22.9246657,142.45495 21.0173694,143.5074 C19.0916036,144.576974 16.7737658,145.114066 14.0592432,145.114066 L14.0592432,145.114066 Z M9.64497297,141.257605 L13.8332252,141.257605 C15.7751351,141.257605 17.3964685,140.895701 18.6926126,140.169589 C19.9893505,139.44684 21.0139454,138.319961 21.6100901,136.960866 C22.2558559,135.547829 22.5787387,133.800549 22.5787387,131.719028 C22.5787387,129.651338 22.2558559,127.915584 21.6147027,126.509463 C20.9712432,125.103341 20.0164324,124.042987 18.7456577,123.3284 C17.4771892,122.613814 15.9042883,122.254216 14.0246486,122.254216 L9.64266667,122.254216 L9.64266667,141.257605 L9.64497297,141.257605 Z M43.1648288,136.748795 L43.1648288,125.077985 L47.4822342,125.077985 L47.4822342,145.114066 L43.2755315,145.114066 L43.2755315,141.596457 L43.067964,141.596457 C42.6067027,142.691388 41.8686847,143.594994 40.846991,144.307275 C39.8252973,145.017252 38.5637477,145.374545 37.0531171,145.374545 C35.756973,145.374545 34.6084324,145.0841 33.6144144,144.505515 C32.5983727,143.905553 31.7835966,143.017383 31.2735135,141.95375 C30.7107748,140.831158 30.4294054,139.455003 30.4247928,137.82298 L30.4247928,125.075679 L34.7421982,125.075679 L34.7421982,137.223649 C34.7421982,138.544481 35.1089009,139.59331 35.8330811,140.37244 C36.5595676,141.149264 37.5051532,141.538829 38.6698378,141.538829 C39.3870991,141.538829 40.0905225,141.36364 40.7778018,141.013262 C41.4696937,140.662884 42.0393514,140.132707 42.4913874,139.422731 C42.9434234,138.71506 43.1671351,137.82298 43.1648288,136.748795 L43.1648288,136.748795 Z M64.1821982,136.748795 L64.1821982,125.077985 L68.4972973,125.077985 L68.4972973,145.114066 L64.2905946,145.114066 L64.2905946,141.596457 L64.083027,141.596457 C63.6217658,142.691388 62.8837477,143.594994 61.8620541,144.307275 C60.8426667,145.017252 59.5788108,145.374545 58.0704865,145.374545 C56.7743423,145.374545 55.6258018,145.0841 54.6294775,144.505515 C53.6142903,143.905198 52.8003493,143.017064 52.2908829,141.95375 C51.7281441,140.831158 51.4444685,139.455003 51.4421622,137.82298 L51.4421622,125.075679 L55.7572613,125.075679 L55.7572613,137.223649 C55.7618739,138.544481 56.1262703,139.59331 56.8504505,140.37244 C57.5746306,141.149264 58.5225225,141.538829 59.6872072,141.538829 C60.4021622,141.538829 61.1055856,141.36364 61.7951712,141.013262 C62.499805,140.648642 63.0914959,140.098701 63.5064505,139.422731 C63.9584865,138.71506 64.1845045,137.82298 64.1821982,136.748795 L64.1821982,136.748795 Z M72.4595315,145.114066 L72.4595315,125.075679 L76.6385586,125.075679 L76.6385586,128.337421 L76.8461261,128.337421 C77.2151351,127.219439 77.8493694,126.348104 78.7603604,125.718807 C79.6715149,125.090884 80.7557098,124.762168 81.8623423,124.778319 C82.116036,124.778319 82.4066306,124.78754 82.7387387,124.808286 C83.0662342,124.829032 83.3360721,124.858998 83.5436396,124.89588 L83.5436396,128.929836 C83.2503983,128.85309 82.9521624,128.796863 82.6510991,128.761562 C82.2461142,128.704924 81.837687,128.676426 81.4287568,128.676273 C80.5362162,128.676273 79.7405405,128.865293 79.0394234,129.243332 C78.3383063,129.621371 77.7847928,130.142328 77.3788829,130.810812 C76.9775856,131.479296 76.7746306,132.24229 76.7746306,133.104404 L76.7746306,145.111761 L72.4595315,145.111761 L72.4595315,145.114066 Z M85.3863784,145.114066 L85.3863784,142.278772 L95.9792432,128.90909 L95.9792432,128.729291 L85.7346306,128.729291 L85.7346306,125.077985 L101.309117,125.077985 L101.309117,128.109214 L91.1682883,141.282961 L91.1682883,141.460455 L101.659676,141.460455 L101.659676,145.114066 L85.3863784,145.114066 Z M110.894126,145.535903 C109.623351,145.535903 108.477117,145.305391 107.45773,144.839757 C106.4732,144.402824 105.635036,143.692312 105.043027,142.792813 C104.450306,141.891512 104.152793,140.785056 104.152793,139.473444 C104.152793,138.341631 104.367279,137.405753 104.796252,136.670421 C105.214425,135.945264 105.813572,135.340866 106.535207,134.916226 C107.301392,134.466513 108.130971,134.134697 108.996036,133.931941 C109.907027,133.71065 110.841081,133.544681 111.802811,133.436341 C112.992865,133.300339 113.956901,133.182778 114.694919,133.090573 C115.432937,132.993758 115.970306,132.841621 116.309333,132.631855 C116.646054,132.424394 116.814414,132.087847 116.814414,131.624518 L116.814414,131.536924 C116.814414,130.478875 116.509982,129.660558 115.898811,129.077364 C115.28764,128.494169 114.392793,128.201419 113.211964,128.201419 C111.97809,128.201419 111.002523,128.473423 110.289874,129.01282 C109.574919,129.554523 109.088288,130.172294 108.823063,130.86844 L104.789333,130.137718 C105.181405,128.920616 105.785658,127.917889 106.606703,127.131844 C107.436319,126.338806 108.433256,125.74174 109.52418,125.384565 C110.70065,124.998562 111.932257,124.807026 113.17045,124.817506 C114.051459,124.817506 114.957838,124.921237 115.887279,125.126392 C116.816721,125.333853 117.676973,125.691146 118.468036,126.198272 C119.259099,126.705398 119.900252,127.410764 120.391495,128.312065 C120.885045,129.215671 121.129514,130.363619 121.129514,131.75591 L121.129514,145.114066 L116.955099,145.114066 L116.955099,142.368671 L116.79827,142.368671 C116.533045,142.898848 116.143279,143.405974 115.631279,143.890049 C115.119279,144.374124 114.471207,144.770604 113.687063,145.077185 C112.902919,145.383765 111.973477,145.535903 110.896432,145.535903 L110.894126,145.535903 Z M111.929658,142.239585 C112.944432,142.239585 113.820829,142.036735 114.551928,141.633339 C115.248091,141.265326 115.831495,140.715679 116.240144,140.042808 C116.632216,139.385849 116.830559,138.673568 116.830559,137.908269 L116.830559,135.434878 C116.680649,135.568575 116.420036,135.688441 116.048721,135.796781 C115.633926,135.91633 115.212748,136.012528 114.787171,136.084921 C114.316685,136.167905 113.853117,136.239364 113.398775,136.299297 L112.243315,136.456045 C111.568861,136.542826 110.906027,136.703617 110.266811,136.935509 C109.726446,137.122661 109.242947,137.444827 108.86227,137.871387 C108.516324,138.277088 108.343351,138.80496 108.343351,139.457308 C108.343351,140.37244 108.680072,141.06628 109.35582,141.534219 C110.029261,142.004463 110.887207,142.23728 111.929658,142.23728 L111.929658,142.239585 Z M130.832144,145.535903 C129.559063,145.535903 128.415135,145.305391 127.395748,144.839757 C126.410371,144.403195 125.571368,143.69265 124.978739,142.792813 C124.386018,141.891512 124.088505,140.785056 124.088505,139.473444 C124.088505,138.341631 124.302991,137.405753 124.73427,136.670421 C125.150956,135.944907 125.749475,135.340341 126.470919,134.916226 C127.237304,134.466922 128.06682,134.135131 128.931748,133.931941 C129.842739,133.71065 130.776793,133.544681 131.740829,133.436341 C132.704935,133.328198 133.668228,133.212939 134.630631,133.090573 C135.368649,132.993758 135.906018,132.841621 136.245045,132.631855 C136.581766,132.424394 136.752432,132.087847 136.752432,131.624518 L136.752432,131.536924 C136.752432,130.478875 136.445694,129.660558 135.834523,129.077364 C135.225658,128.494169 134.328505,128.201419 133.149982,128.201419 C131.913802,128.201419 130.940541,128.473423 130.225586,129.01282 C129.510631,129.554523 129.024,130.172294 128.761081,130.86844 L124.725045,130.137718 C125.117117,128.920616 125.723676,127.917889 126.542414,127.131844 C127.372697,126.338512 128.370451,125.741429 129.462198,125.384565 C130.637934,124.99881 131.868742,124.807277 133.106162,124.817506 C133.989477,124.817506 134.89355,124.921237 135.822991,125.126392 C136.752432,125.333853 137.612685,125.691146 138.406054,126.198272 C139.194811,126.705398 139.835964,127.410764 140.329514,128.312065 C140.820757,129.215671 141.067532,130.363619 141.067532,131.75591 L141.067532,145.114066 L136.893117,145.114066 L136.893117,142.368671 L136.733982,142.368671 C136.468757,142.898848 136.078991,143.405974 135.566991,143.890049 C135.054991,144.374124 134.406919,144.770604 133.622775,145.077185 C132.838631,145.383765 131.909189,145.535903 130.832144,145.535903 L130.832144,145.535903 Z M131.865369,142.239585 C132.880144,142.239585 133.756541,142.036735 134.489946,141.633339 C135.185262,141.264989 135.767838,140.715371 136.175856,140.042808 C136.567928,139.385849 136.76627,138.673568 136.76627,137.908269 L136.76627,135.434878 C136.61636,135.568575 136.358054,135.688441 135.986739,135.796781 C135.571186,135.916414 135.149236,136.012612 134.722883,136.084921 C134.252396,136.167905 133.788829,136.239364 133.336793,136.299297 L132.179027,136.456045 C131.504573,136.542826 130.841739,136.703617 130.202523,136.935509 C129.662749,137.123849 129.179529,137.44583 128.797982,137.871387 C128.452036,138.277088 128.279063,138.80496 128.279063,139.457308 C128.279063,140.37244 128.61809,141.06628 129.291532,141.534219 C129.967279,142.004463 130.825225,142.23728 131.865369,142.23728 L131.865369,142.239585 Z M144.965189,145.114066 L144.965189,125.075679 L149.09809,125.075679 L149.09809,128.408879 L149.342559,128.408879 C149.76,127.283982 150.447279,126.403427 151.399784,125.76952 C152.354595,125.133307 153.498523,124.815201 154.829261,124.815201 C156.176144,124.815201 157.313153,125.135612 158.235676,125.77413 C159.158198,126.414953 159.827027,127.293203 160.235243,128.408879 L160.442811,128.408879 C160.904072,127.316254 161.660541,126.444919 162.70991,125.792571 C163.759279,125.140223 165.011604,124.815201 166.46227,124.815201 C168.293477,124.815201 169.785658,125.391481 170.943423,126.544039 C172.098883,127.696598 172.677766,129.40469 172.677766,131.670621 L172.677766,145.109456 L168.36036,145.109456 L168.36036,132.221544 C168.36036,130.923763 168.012108,129.978665 167.313297,129.383944 C166.60555,128.785993 165.702793,128.468551 164.77636,128.491864 C163.567856,128.491864 162.626883,128.862988 161.958054,129.607541 C161.286919,130.349788 160.950198,131.308717 160.950198,132.477412 L160.950198,145.116372 L156.692757,145.116372 L156.692757,132.002558 C156.692757,130.942204 156.365261,130.091615 155.714883,129.453098 C155.064505,128.812275 154.220396,128.491864 153.177946,128.491864 C152.46991,128.491864 151.819532,128.676273 151.229117,129.040482 C150.638703,129.4093 150.16591,129.916426 149.810739,130.57108 C149.457874,131.223428 149.280288,131.981812 149.280288,132.843926 L149.280288,145.116372 L144.965189,145.116372 L144.965189,145.114066 Z M14.0592432,181.84381 L5.20302703,181.84381 L5.20302703,155.129802 L14.282955,155.129802 C16.9236757,155.129802 19.1884685,155.662284 21.0796396,156.729554 C22.9619579,157.782908 24.4826808,159.379166 25.4431712,161.309823 C26.4579459,163.301444 26.9653333,165.680325 26.9653333,168.451077 C26.9653333,171.233354 26.4556396,173.626066 25.4362523,175.626908 C24.4660153,177.576598 22.9246657,179.184693 21.0173694,180.237143 C19.0916036,181.309023 16.7737658,181.84381 14.0592432,181.84381 L14.0592432,181.84381 Z M9.64497297,177.989653 L13.8332252,177.989653 C15.7751351,177.989653 17.3964685,177.625445 18.6926126,176.901638 C19.9893505,176.178888 21.0139454,175.05201 21.6100901,173.692914 C22.2558559,172.277572 22.5787387,170.530293 22.5787387,168.451077 C22.5787387,166.383386 22.2558559,164.647633 21.6147027,163.241511 C20.9712432,161.835389 20.0164324,160.775035 18.7456577,160.060449 C17.4771892,159.345862 15.9042883,158.986264 14.0246486,158.986264 L9.64266667,158.986264 L9.64266667,177.989653 L9.64497297,177.989653 Z M30.4247928,181.84381 L30.4247928,161.810033 L34.7421982,161.810033 L34.7421982,181.84381 L30.4224865,181.84381 L30.4247928,181.84381 Z M32.6019459,158.847957 C31.9200513,158.86029 31.2609485,158.602585 30.7684324,158.131065 C30.2762622,157.689185 29.9988465,157.056499 30.0073514,156.395312 C30.0073514,155.726828 30.261045,155.150548 30.7684324,154.673389 C31.2613186,154.20271 31.9203772,153.945851 32.6019459,153.958803 C33.3169009,153.958803 33.9257658,154.19623 34.4354595,154.673389 C34.9252248,155.111173 35.2025539,155.738622 35.1965405,156.395312 C35.1965405,157.073016 34.9428468,157.651601 34.4354595,158.131065 C33.9429434,158.602585 33.2838406,158.86029 32.6019459,158.847957 L32.6019459,158.847957 Z M47.2608288,189.713481 C45.6187387,189.713481 44.2072793,189.4968 43.0287568,189.063438 C41.8502342,188.630076 40.8954234,188.053797 40.162018,187.3346 C39.4687771,186.672948 38.9294555,185.867137 38.5821982,184.97416 L42.382991,183.768583 C42.5974775,184.132792 42.8972973,184.513136 43.2778378,184.914226 C43.6606847,185.315317 44.1772973,185.656474 44.829982,185.937699 C45.4826667,186.216618 46.3129369,186.35723 47.3254054,186.35723 C48.7368649,186.35723 49.9015495,186.018378 50.8240721,185.340673 C51.7442883,184.662969 52.2032432,183.577258 52.2032432,182.083542 L52.2032432,178.21786 L51.9587748,178.21786 C51.7212252,178.678883 51.3775856,179.162958 50.9278559,179.68161 C50.4156609,180.24198 49.7940098,180.691504 49.1012613,181.002442 C48.3355676,181.364345 47.36,181.54645 46.1768649,181.54645 C44.6943641,181.567053 43.233805,181.187169 41.9494054,180.446909 C40.6924685,179.711576 39.6961441,178.61895 38.9604324,177.166726 C38.2247207,175.714502 37.858018,173.909595 37.858018,171.75431 C37.858018,169.59211 38.2224144,167.750321 38.9535135,166.226638 C39.6846126,164.705261 40.6809369,163.545787 41.9401802,162.745911 C43.2133886,161.943033 44.692327,161.526646 46.1976216,161.54725 C47.4084324,161.54725 48.3955315,161.7501 49.1589189,162.155801 C49.92,162.559196 50.5242523,163.036356 50.9647568,163.587279 C51.402955,164.140507 51.7442883,164.638412 51.9795315,165.085605 L52.2470631,165.085605 L52.2470631,161.810033 L56.4906667,161.810033 L56.4906667,182.23107 C56.4906667,183.923026 56.0847568,185.322232 55.2775495,186.428689 C54.4703423,187.535145 53.3725405,188.358072 51.9795315,188.899775 C50.5888288,189.441477 49.0159279,189.713481 47.2608288,189.713481 L47.2608288,189.713481 Z M47.2677477,178.077248 C48.3286486,178.077248 49.2304144,177.823685 49.9707387,177.316559 C50.7087568,176.809433 51.2714955,176.083321 51.658955,175.133613 C52.0464144,174.181599 52.2401441,173.045176 52.2401441,171.717428 C52.2401441,170.410427 52.051027,169.262478 51.6681802,168.275888 C51.2876396,167.291603 50.7272072,166.523998 49.9868829,165.97077 C49.2488649,165.417542 48.3424865,165.140928 47.2654414,165.140928 C46.1561081,165.140928 45.2266667,165.431373 44.4817297,166.007652 C43.7367928,166.583932 43.1740541,167.367672 42.7981261,168.358872 C42.4081378,169.434971 42.2174483,170.57305 42.2353874,171.717428 C42.2353874,172.987548 42.4268108,174.10092 42.8096577,175.052933 C43.1901982,176.007252 43.7552432,176.7495 44.5001802,177.279677 C45.2451171,177.809854 46.1676396,178.077248 47.2677477,178.077248 Z M60.4482883,181.84381 L60.4482883,161.810033 L64.7656937,161.810033 L64.7656937,181.84381 L60.4482883,181.84381 Z M62.6254414,158.847957 C61.9435468,158.86029 61.284444,158.602585 60.7919279,158.131065 C60.2997576,157.689185 60.022342,157.056499 60.0308468,156.395312 C60.0308468,155.726828 60.2845405,155.150548 60.7919279,154.673389 C61.2848141,154.20271 61.9438727,153.945851 62.6254414,153.958803 C63.3403964,153.958803 63.9515676,154.19623 64.458955,154.673389 C64.9495752,155.110753 65.2277705,155.73826 65.2223423,156.395312 C65.2223423,157.073016 64.9686486,157.651601 64.4612613,158.131065 C63.968175,158.603153 63.3081298,158.860902 62.6254414,158.847957 L62.6254414,158.847957 Z M78.4121081,161.810033 L78.4121081,165.198556 L67.1803964,165.198556 L67.1803964,161.810033 L78.4121081,161.810033 Z M70.0678342,157.008473 L74.382991,157.008473 L74.382991,175.894301 C74.382991,176.585837 74.4890811,177.111403 74.6966486,177.468697 C74.9042162,177.82599 75.180973,178.068027 75.5246126,178.197114 C75.8868787,178.32774 76.2696045,178.392535 76.6547027,178.388439 C76.9568288,178.388439 77.228973,178.365387 77.4688288,178.323895 C77.6554622,178.290894 77.8415303,178.254776 78.026955,178.215555 L78.7788108,181.668621 C77.9231743,181.959622 77.0257592,182.109114 76.1219459,182.111204 C75.0826847,182.14974 74.0473623,181.963384 73.0868468,181.564891 C72.1915652,181.191888 71.4262336,180.563261 70.8866306,179.757678 C70.3354234,178.941667 70.0632793,177.918195 70.0678342,176.682652 L70.0678342,157.008473 L70.0678342,157.008473 Z M87.2637117,182.267951 C86.0811653,182.286511 84.9086885,182.048204 83.8273153,181.569501 C82.8419382,181.132938 82.0029353,180.422394 81.4103063,179.522556 C80.8175856,178.623561 80.5223784,177.517104 80.5223784,176.203187 C80.5223784,175.07368 80.7368649,174.137802 81.1635315,173.402469 C81.5925045,172.664832 82.1736937,172.081637 82.9047928,171.64597 C83.6335856,171.212608 84.4546306,170.885281 85.3656216,170.661685 C86.2743063,170.440393 87.2106667,170.27673 88.1723964,170.168389 C89.3624505,170.030082 90.3241802,169.914826 91.0621982,169.822622 C91.8002162,169.725807 92.3375856,169.573669 92.6766126,169.361598 C93.0133333,169.154138 93.184,168.819896 93.184,168.356567 L93.184,168.268972 C93.184,167.210924 92.8772613,166.390302 92.2683964,165.807107 C91.6572252,165.226217 90.7623784,164.933467 89.5815495,164.933467 C88.3453694,164.933467 87.3721081,165.205471 86.6571532,165.744869 C85.9445045,166.286571 85.4578739,166.904343 85.1926486,167.600488 L81.1566126,166.869766 C81.5486847,165.652664 82.1552432,164.649938 82.973982,163.863893 C83.8042648,163.070561 84.8020187,162.473477 85.8937658,162.116614 C87.0693712,161.730076 88.3001824,161.537764 89.5377297,161.54725 C90.421045,161.54725 91.3251171,161.65098 92.2545586,161.858441 C93.184,162.065901 94.0442523,162.423194 94.8376216,162.93032 C95.630991,163.437446 96.2675315,164.142812 96.7610811,165.044113 C97.2523243,165.947719 97.4990991,167.095668 97.4990991,168.487959 L97.4990991,181.84381 L93.3246847,181.84381 L93.3246847,179.10072 L93.1678559,179.10072 C92.8681411,179.670415 92.4734966,180.184904 92.0008649,180.622098 C91.4888649,181.106172 90.8407928,181.502652 90.0566486,181.806928 C89.2725045,182.113509 88.3407568,182.267951 87.266018,182.267951 L87.2637117,182.267951 Z M88.2969369,178.971633 C89.314018,178.971633 90.1881081,178.768783 90.9215135,178.365387 C91.6176765,177.997374 92.2010807,177.447727 92.6097297,176.774856 C93.0018018,176.117898 93.1978378,175.405616 93.1978378,174.638012 L93.1978378,172.169231 C92.9657564,172.342325 92.7003475,172.465543 92.4183063,172.531135 C92.0027538,172.650768 91.5808033,172.746966 91.1544505,172.819275 C90.683964,172.899954 90.2227027,172.971412 89.7683604,173.033651 L88.6105946,173.190399 C87.9367357,173.276339 87.2745737,173.437155 86.6363964,173.669863 C86.0945515,173.855355 85.6099118,174.177752 85.2295495,174.605741 C84.8836036,175.011441 84.7129369,175.539313 84.7129369,176.191662 C84.7129369,177.106793 85.0496577,177.798329 85.7230991,178.266267 C86.3988468,178.736511 87.2567928,178.971633 88.2969369,178.971633 L88.2969369,178.971633 Z M107.199423,182.267951 C105.928649,182.267951 104.782414,182.035135 103.763027,181.569501 C102.74364,181.103867 101.941045,180.423857 101.348324,179.522556 C100.753297,178.623561 100.45809,177.517104 100.45809,176.203187 C100.45809,175.07368 100.672577,174.137802 101.10155,173.402469 C101.530523,172.664832 102.109405,172.081637 102.840505,171.64597 C103.607647,171.198213 104.436925,170.866518 105.301333,170.661685 C106.210018,170.440393 107.146378,170.27673 108.108108,170.168389 C109.298162,170.030082 110.259892,169.914826 110.99791,169.822622 C111.735928,169.725807 112.273297,169.573669 112.612324,169.361598 C112.949045,169.154138 113.119712,168.819896 113.119712,168.356567 L113.119712,168.268972 C113.119712,167.210924 112.812973,166.390302 112.204108,165.807107 C111.592937,165.226217 110.69809,164.933467 109.517261,164.933467 C108.283387,164.933467 107.30782,165.205471 106.595171,165.744869 C105.880216,166.286571 105.391279,166.904343 105.12836,167.600488 L101.092324,166.869766 C101.484396,165.652664 102.090955,164.649938 102.909694,163.863893 C103.739977,163.070561 104.73773,162.473477 105.829477,162.116614 C107.005817,161.729828 108.237427,161.537513 109.475748,161.54725 C110.390041,161.55099 111.301141,161.65535 112.192577,161.858441 C113.122018,162.065901 113.98227,162.423194 114.773333,162.93032 C115.564396,163.437446 116.203243,164.142812 116.696793,165.044113 C117.188036,165.947719 117.434811,167.095668 117.434811,168.487959 L117.434811,181.84381 L113.260396,181.84381 L113.260396,179.10072 L113.103568,179.10072 C112.80462,179.670905 112.409881,180.185517 111.936577,180.622098 C111.424577,181.106172 110.776505,181.502652 109.99236,181.806928 C109.208216,182.113509 108.276468,182.267951 107.20173,182.267951 L107.199423,182.267951 Z M108.234955,178.971633 C109.24973,178.971633 110.126126,178.768783 110.857225,178.365387 C111.553388,177.997374 112.136792,177.447727 112.545441,176.774856 C112.937514,176.117898 113.13355,175.405616 113.13355,174.638012 L113.13355,172.169231 C112.901468,172.342325 112.636059,172.465543 112.354018,172.531135 C111.938466,172.650768 111.516515,172.746966 111.090162,172.819275 C110.619676,172.899954 110.158414,172.971412 109.706378,173.033651 L108.546306,173.190399 C107.872447,173.276339 107.210285,173.437155 106.572108,173.669863 C105.981694,173.888849 105.513514,174.20004 105.167568,174.605741 C104.821622,175.011441 104.648649,175.539313 104.648649,176.191662 C104.648649,177.106793 104.985369,177.798329 105.661117,178.266267 C106.334559,178.736511 107.192505,178.971633 108.234955,178.971633 L108.234955,178.971633 Z M125.647568,155.129802 L125.647568,181.846115 L121.334775,181.846115 L121.334775,155.129802 L125.647568,155.129802 Z M8.16432432,191.861851 L15.36,213.253342 L15.6436757,213.253342 L22.8393514,191.861851 L27.6733694,191.861851 L18.1552432,218.575858 L12.8438198,218.575858 L3.328,191.861851 L8.16432432,191.861851 Z M36.7002523,218.976949 C34.7076036,218.976949 32.9894054,218.555112 31.5502703,217.709134 C30.1131171,216.867234 28.9562992,215.620407 28.2245766,214.124676 C27.4496577,212.580248 27.0621982,210.76612 27.0621982,208.684599 C27.0621982,206.626129 27.4496577,204.816612 28.2268829,203.251437 C28.951014,201.748125 30.0854999,200.479978 31.4995315,199.593215 C32.9017658,198.71727 34.5484685,198.279215 36.435027,198.279215 C37.5921634,198.274594 38.74143,198.469549 39.8322162,198.855578 C40.9131357,199.240172 41.8986776,199.852575 42.722018,200.651264 C43.5661261,201.462666 44.2326486,202.506884 44.7215856,203.783919 C45.2082162,205.058649 45.4526847,206.589247 45.4526847,208.375713 L45.4526847,209.78875 L29.2693333,209.78875 L29.2693333,206.736775 L41.2736577,206.736775 C41.2874544,205.842135 41.0807252,204.957854 40.6717117,204.161958 C40.2883024,203.426508 39.708804,202.811408 38.9973333,202.384713 C38.235699,201.939713 37.365455,201.714683 36.4834595,201.734669 C35.4479279,201.734669 34.5461622,201.981317 33.7758559,202.479222 C33.0188535,202.962856 32.4024373,203.636987 31.9884685,204.433962 C31.5664144,205.240753 31.3519279,206.116698 31.3473153,207.066406 L31.3473153,209.59051 C31.3473153,210.844494 31.571027,211.911763 32.0207568,212.794623 C32.4704865,213.682094 33.0978018,214.357493 33.9073153,214.823127 C34.7145225,215.291066 35.6624144,215.523883 36.7486847,215.523883 C37.4636396,215.523883 38.1117117,215.422458 38.6952072,215.219607 C39.2598426,215.028719 39.7761157,214.717227 40.2081441,214.306781 C40.6301982,213.90108 40.9553874,213.398564 41.1790991,212.799234 L45.2335856,213.384734 C44.9598811,214.48336 44.414248,215.49559 43.6468468,216.328369 C42.8355945,217.195191 41.8358144,217.863996 40.7247568,218.283108 C39.5485405,218.744132 38.2062703,218.976949 36.7002523,218.976949 L36.7002523,218.976949 Z M48.5385225,218.575858 L48.5385225,198.539776 L52.7175495,198.539776 L52.7175495,201.801518 L52.9251171,201.801518 C53.2918198,200.685841 53.9283604,199.812201 54.8393514,199.185209 C55.748674,198.55657 56.8311571,198.226273 57.9367207,198.240111 C58.1904144,198.240111 58.481009,198.251637 58.8108108,198.272383 C59.1406126,198.290824 59.4104505,198.32079 59.618018,198.359977 L59.618018,202.393933 C59.3247767,202.317187 59.0265407,202.26096 58.7254775,202.225659 C58.3205463,202.16825 57.9121188,202.138982 57.5031351,202.138065 C56.6709401,202.123467 55.8484572,202.318478 55.1114955,202.705124 C54.4274381,203.067755 53.8550101,203.609608 53.4555676,204.272604 C53.051964,204.941088 52.849009,205.704082 52.849009,206.568501 L52.849009,218.573553 L48.5339099,218.573553 L48.5385225,218.575858 Z M67.3256937,218.997695 C66.0526126,218.997695 64.9086847,218.767183 63.8892973,218.301549 C62.9039202,217.864987 62.0649173,217.154442 61.4722883,216.254605 C60.8795676,215.355609 60.5820541,214.249153 60.5820541,212.935236 C60.5820541,211.803423 60.7965405,210.86985 61.2278198,210.134518 C61.6544865,209.39688 62.2333694,208.813685 62.9644685,208.378018 C63.7313107,207.929647 64.560683,207.597914 65.4252973,207.393733 C66.3362883,207.172442 67.2703423,207.006473 68.2343784,206.898133 C69.1984843,206.78999 70.1617779,206.674731 71.1241802,206.552365 C71.8621982,206.45555 72.3995676,206.303412 72.7385946,206.093647 C73.0753153,205.886186 73.245982,205.549639 73.245982,205.088615 L73.245982,204.998716 C73.245982,203.942972 72.9392432,203.12235 72.3280721,202.539155 C71.7192072,201.955961 70.8220541,201.665516 69.6435315,201.665516 C68.4073514,201.665516 67.4340901,201.935215 66.7191351,202.476917 C66.0041802,203.016315 65.5175495,203.636391 65.2546306,204.332537 L61.2185946,203.601815 C61.6106667,202.384713 62.2172252,201.381986 63.035964,200.595941 C63.8660188,199.801778 64.8637902,199.203896 65.9557477,198.846357 C67.1314832,198.460602 68.3622912,198.269069 69.5997117,198.279298 C70.483027,198.279298 71.3870991,198.383028 72.3165405,198.590489 C73.245982,198.79795 74.1062342,199.155243 74.8996036,199.662369 C75.692973,200.169495 76.3295135,200.874861 76.8230631,201.776162 C77.3143063,202.677462 77.5610811,203.827716 77.5610811,205.220007 L77.5610811,218.575858 L73.3866667,218.575858 L73.3866667,215.832768 L73.2275315,215.832768 C72.9293641,216.403452 72.5345284,216.918189 72.0605405,217.354146 C71.5485405,217.838221 70.9004685,218.232396 70.1163243,218.538976 C69.3321802,218.845557 68.4027387,219 67.3256937,219 L67.3256937,218.997695 Z M68.3589189,215.701377 C69.3736937,215.701377 70.2500901,215.500832 70.9834955,215.097436 C71.6788115,214.729086 72.2613877,214.179468 72.6694054,213.506905 C73.0614775,212.849946 73.2598198,212.137665 73.2598198,211.370061 L73.2598198,208.89667 C73.1099099,209.030367 72.8516036,209.150233 72.4802883,209.260878 C72.0646902,209.379734 71.6427403,209.475163 71.2164324,209.546713 C70.7459459,209.629697 70.2823784,209.701156 69.8303423,209.763394 L68.6725766,209.920142 C67.9979186,210.005819 67.3349635,210.16664 66.6960721,210.399606 C66.107964,210.618593 65.6397838,210.929783 65.2915315,211.335484 C64.9455856,211.73888 64.7726126,212.266752 64.7726126,212.9191 C64.7726126,213.836537 65.1116396,214.528072 65.7850811,214.998316 C66.4608288,215.466255 67.3187748,215.701377 68.3589189,215.701377 L68.3589189,215.701377 Z M85.7738378,206.757521 L85.7738378,218.575858 L81.4587387,218.575858 L81.4587387,198.539776 L85.5916396,198.539776 L85.5916396,201.875282 L85.8361081,201.875282 C86.2973694,200.780351 87.0261622,199.909016 88.0270991,199.256668 C89.0257297,198.606625 90.2757477,198.279298 91.7771532,198.279298 C93.1517117,198.279298 94.3532973,198.569743 95.3796036,199.150633 C96.4059099,199.731522 97.2038919,200.582111 97.7735495,201.704703 C98.3432072,202.82499 98.6268829,204.201145 98.6223256,205.830863 L98.6223256,218.575858 L94.3071712,218.575858 L94.3071712,206.427889 C94.3094775,205.030988 93.9496937,203.938362 93.2232072,203.150012 C92.499027,202.361661 91.5003964,201.967486 90.2319279,201.967486 C89.4271404,201.952417 88.6322959,202.147054 87.9256216,202.53224 C87.2567928,202.905669 86.730955,203.451982 86.3504144,204.166568 C85.9675676,204.881155 85.7761441,205.743269 85.7738378,206.757521 Z M110.026955,218.946982 C108.428685,218.946982 107.005694,218.536671 105.751063,217.718355 C104.496432,216.902343 103.509333,215.722123 102.787459,214.177694 C102.067892,212.633265 101.708108,210.773035 101.708108,208.594699 C101.708108,206.395617 102.072505,204.528472 102.803604,202.993264 C103.534703,201.453445 104.531027,200.28475 105.79027,199.48257 C107.062488,198.676969 108.541796,198.258875 110.047712,198.279298 C111.258523,198.279298 112.241009,198.482148 112.999784,198.885544 C113.756252,199.291245 114.353586,199.768404 114.787171,200.319327 C115.220757,200.872555 115.557477,201.370461 115.792721,201.817654 L116.007207,201.817654 L116.007207,191.861851 L120.324613,191.861851 L120.324613,218.575858 L116.094847,218.575858 L116.094847,215.433983 L115.790414,215.433983 C115.497191,215.970413 115.151063,216.476211 114.757189,216.943835 C114.255208,217.533348 113.63742,218.013515 112.942126,218.354567 C112.181045,218.748742 111.207784,218.946982 110.024649,218.946982 L110.026955,218.946982 Z M111.117838,215.350999 C112.178739,215.350999 113.080505,215.067469 113.820829,214.498105 C114.558847,213.926436 115.121586,213.133476 115.509045,212.114614 C115.896505,211.095752 116.090234,209.908616 116.090234,208.557817 C116.090234,207.213934 115.901117,206.040629 115.51827,205.040208 C115.13773,204.039787 114.577297,203.260657 113.839279,202.707429 C113.101261,202.151896 112.192577,201.875282 111.117838,201.875282 C110.006198,201.875282 109.076757,202.163421 108.33182,202.742006 C107.586883,203.322895 107.02645,204.115856 106.648216,205.123192 C106.256848,206.225272 106.066256,207.388535 106.085477,208.557817 C106.085477,209.853293 106.276901,211.015073 106.659748,212.038545 C107.040288,213.064322 107.605333,213.873419 108.35027,214.463529 C109.095207,215.055944 110.01773,215.350999 111.117838,215.350999 L111.117838,215.350999 Z M133.309117,218.976949 C131.314162,218.976949 129.595964,218.555112 128.156829,217.709134 C126.72053,216.866881 125.564546,215.620088 124.833441,214.124676 C124.056216,212.580248 123.668757,210.76612 123.668757,208.684599 C123.668757,206.626129 124.056216,204.816612 124.833441,203.251437 C125.557573,201.748125 126.692058,200.479978 128.10609,199.593215 C129.508324,198.71727 131.155027,198.279215 133.041586,198.279215 C134.198722,198.274594 135.347989,198.469549 136.438775,198.855578 C137.519694,199.240172 138.505236,199.852575 139.328577,200.651264 C140.172685,201.462666 140.839207,202.506884 141.328144,203.783919 C141.817081,205.058649 142.059243,206.589247 142.059243,208.375713 L142.059243,209.78875 L125.873586,209.78875 L125.873586,206.736775 L137.87791,206.736775 C137.892419,205.842329 137.686485,204.958058 137.27827,204.161958 C136.894232,203.426207 136.313906,202.811076 135.601586,202.384713 C134.839951,201.939713 133.969707,201.714683 133.087712,201.734669 C132.05218,201.734669 131.150414,201.981317 130.380108,202.479222 C129.623106,202.962856 129.00669,203.636987 128.592721,204.433962 C128.170667,205.240753 127.95618,206.116698 127.951568,207.066406 L127.951568,209.59051 C127.951568,210.844494 128.175279,211.911763 128.625009,212.794623 C129.074739,213.682094 129.70436,214.357493 130.511568,214.823127 C131.321081,215.291066 132.268973,215.523883 133.352937,215.523883 C134.067892,215.523883 134.715964,215.422458 135.301766,215.219607 C135.865579,215.028418 136.381038,214.716943 136.812396,214.306781 C137.23445,213.90108 137.55964,213.398564 137.783351,212.799234 L141.837838,213.384734 C141.564133,214.48336 141.0185,215.49559 140.251099,216.328369 C139.440507,217.194898 138.441545,217.863685 137.331315,218.283108 C136.155099,218.744132 134.810523,218.976949 133.306811,218.976949 L133.309117,218.976949 Z M145.145081,218.575858 L145.145081,198.539776 L149.324108,198.539776 L149.324108,201.801518 L149.531676,201.801518 C149.900685,200.685841 150.534919,199.812201 151.44591,199.185209 C152.355233,198.55657 153.437716,198.226273 154.543279,198.240111 C154.796973,198.240111 155.087568,198.251637 155.419676,198.272383 C155.747171,198.290824 156.017009,198.32079 156.226883,198.359977 L156.226883,202.393933 C155.932885,202.317082 155.633875,202.260854 155.332036,202.225659 C154.927105,202.16825 154.518677,202.138982 154.109694,202.138065 C153.217153,202.138065 152.421477,202.327085 151.72036,202.705124 C151.035424,203.068215 150.461613,203.609868 150.05982,204.272604 C149.658523,204.941088 149.455568,205.704082 149.455568,206.568501 L149.455568,218.573553 L145.140468,218.573553 L145.145081,218.575858 Z M166.390775,218.976949 C164.39582,218.976949 162.677622,218.555112 161.238486,217.709134 C159.802187,216.866881 158.646204,215.620088 157.915099,214.124676 C157.137874,212.580248 156.750414,210.76612 156.750414,208.684599 C156.750414,206.626129 157.14018,204.816612 157.917405,203.251437 C158.64091,201.748427 159.774568,200.480311 161.187748,199.593215 C162.592288,198.71727 164.236685,198.279205 166.123243,198.279205 C167.281154,198.274328 168.431223,198.469287 169.522739,198.855578 C170.602836,199.240467 171.587565,199.852854 172.410234,200.651264 C173.256649,201.462666 173.923171,202.506884 174.409802,203.783919 C174.898739,205.058649 175.143207,206.589247 175.143207,208.375713 L175.143207,209.78875 L158.959856,209.78875 L158.959856,206.736775 L170.961874,206.736775 C170.976383,205.842329 170.770449,204.958058 170.362234,204.161958 C169.978825,203.426508 169.399326,202.811408 168.687856,202.384713 C167.92555,201.939299 167.05445,201.714254 166.171676,201.734669 C165.13845,201.734669 164.234378,201.981317 163.466378,202.479222 C162.708529,202.962544 162.091292,203.636703 161.676685,204.433962 C161.254631,205.240753 161.040144,206.116698 161.035532,207.066406 L161.035532,209.59051 C161.035532,210.844494 161.259243,211.911763 161.708973,212.794623 C162.158703,213.682094 162.788324,214.357493 163.597838,214.823127 C164.405045,215.291066 165.352937,215.523883 166.436901,215.523883 C167.151856,215.523883 167.802234,215.422458 168.38573,215.219607 C168.949543,215.028418 169.465002,214.716943 169.89636,214.306781 C170.320721,213.90108 170.643604,213.398564 170.867315,212.799234 L174.924108,213.384734 C174.650404,214.48336 174.104771,215.49559 173.337369,216.328369 C172.526117,217.195191 171.526337,217.863996 170.415279,218.283108 C169.239063,218.744132 167.896793,218.976949 166.390775,218.976949 L166.390775,218.976949 Z M182.541838,206.759826 L182.541838,218.575858 L178.229045,218.575858 L178.229045,198.539776 L182.35964,198.539776 L182.35964,201.875282 L182.606414,201.875282 C183.065369,200.780351 183.794162,199.909016 184.795099,199.256668 C185.79373,198.606625 187.043748,198.279298 188.545153,198.279298 C189.919712,198.279298 191.121297,198.569743 192.147604,199.150633 C193.17391,199.731522 193.971892,200.582111 194.54155,201.704703 C195.111207,202.82499 195.394883,204.201145 195.392591,205.830863 L195.392591,218.575858 L191.072865,218.575858 L191.072865,206.427889 C191.075171,205.030988 190.715387,203.938362 189.988901,203.150012 C189.264721,202.361661 188.268396,201.967486 186.997622,201.967486 C186.192834,201.952417 185.39799,202.147054 184.691315,202.53224 C184.022486,202.905669 183.496649,203.451982 183.116108,204.166568 C182.735568,204.881155 182.544144,205.743269 182.539532,206.757521 L182.541838,206.759826 Z" id="Shape" fill="#000000" fill-rule="nonzero"></path>
            <g id="Group" transform="translate(0.000000, 89.899585)">
                <g id="a-link" fill="url(#linearGradient-1)" fill-rule="nonzero">
                    <path d="M6.91891892,0 L249.081081,0 C252.902294,0 256,3.09610887 256,6.91535271 C256,10.7345966 252.902294,13.8307054 249.081081,13.8307054 L6.91891892,13.8307054 C3.09770551,13.8307054 0,10.7345966 0,6.91535271 C0,3.09610887 3.09770551,0 6.91891892,0 Z" id="a"></path>
                </g>
                <g id="Clipped">
                    <mask id="mask-3" fill="white">
                        <use xlink:href="#path-2"></use>
                    </mask>
                    <g id="a"></g>
                    <ellipse id="Oval" fill="#FFFFFF" fill-rule="nonzero" opacity="0.747" style="mix-blend-mode: soft-light;" mask="url(#mask-3)" cx="65.5752072" cy="60.2373324" rx="70.3423423" ry="70.3060859"></ellipse>
                </g>
                <g id="Clipped">
                    <mask id="mask-5" fill="white">
                        <use xlink:href="#path-4"></use>
                    </mask>
                    <g id="a"></g>
                    <ellipse id="Oval" fill="#FFFFFF" fill-rule="nonzero" opacity="0.752" style="mix-blend-mode: soft-light;" mask="url(#mask-5)" cx="188.642018" cy="-33.3043387" rx="62.2702703" ry="62.2381744"></ellipse>
                </g>
            </g>
            <path d="M32.2375495,77.3436099 C38.5499099,77.3436099 43.9420541,76.4353936 48.4162883,74.621266 C52.8905225,72.8048334 56.3269189,70.1954403 58.7162523,66.7838663 C61.1078919,63.3722923 62.3140901,59.2899291 62.3394595,54.5298613 C62.3163964,51.5124624 61.7974775,48.7901185 60.7873153,46.3628297 C59.7717497,43.9266909 58.2534327,41.7320785 56.3315315,39.9223312 C54.3711712,38.0597962 51.9541622,36.4508242 49.0828108,35.1046355 C46.2114595,33.7538366 42.9019099,32.6750416 39.1541622,31.8659453 L32.6457658,30.3929752 C31.0664176,30.0653839 29.5101861,29.6349458 27.987027,29.1044145 C26.7435137,28.6813532 25.5568358,28.1069007 24.4537658,27.3940172 C23.4805045,26.7439741 22.7401802,25.9878955 22.2350991,25.1303918 C21.730018,24.272888 21.5016937,23.2793824 21.5524324,22.1498747 C21.5754955,20.7760247 21.9837117,19.5566175 22.7724685,18.489348 C23.5612252,17.4220786 24.7443604,16.5830158 26.3218739,15.9698545 C27.8993874,15.3566933 29.8735856,15.0478075 32.2375495,15.0478075 C35.8123243,15.0478075 38.5683604,15.8038861 40.5033514,17.311433 C42.4383423,18.8189799 43.5292252,20.9235522 43.7783063,23.6228449 L61.3062342,23.6228449 C61.2554955,18.9365409 60.0354595,14.8172957 57.6438198,11.2604993 C55.2521802,7.70139781 51.8941982,4.93756184 47.5652613,2.96207608 C43.2432432,0.986590321 38.1463063,0 32.2767568,0 C26.5340541,0 21.4186667,0.981980085 16.9305946,2.94363514 C12.4448288,4.90529019 8.93232432,7.64146475 6.39077477,11.1498537 C3.85383784,14.6559375 2.59459459,18.7406059 2.61996396,23.4015536 C2.5969009,29.1182452 4.46962162,33.6501063 8.24043243,36.997137 C12.0135495,40.3464729 17.1773694,42.7691514 23.7365045,44.2651727 L31.6471351,46.1046565 C34.4100901,46.7431741 36.6841081,47.4347094 38.4738018,48.1838726 C40.2588829,48.9307307 41.585009,49.8158958 42.4475676,50.8347578 C43.3101261,51.8490095 43.7529369,53.0707218 43.7783063,54.4929794 C43.7707451,55.9665354 43.2624874,57.3938001 42.3368649,58.5407658 C41.4005045,59.7186809 40.0628468,60.6384228 38.3238919,61.2999916 C36.5872432,61.9638654 34.4838919,62.2934973 32.0184505,62.2934973 C29.3316036,62.2934973 26.9722523,61.8785761 24.9380901,61.0441235 C22.9039279,60.209671 21.307964,58.9833484 20.1478919,57.3651559 C18.9901261,55.7446582 18.3374414,53.7230701 18.1875315,51.2934762 L0.659603604,51.2934762 C0.733405405,57.1807465 2.07798198,62.0491548 4.69102703,65.9010063 C7.30407207,69.7505526 10.9641802,72.6227291 15.6736577,74.5106204 C20.3831351,76.4008168 25.9044324,77.345915 32.2398559,77.345915 L32.2375495,77.3436099 Z M99.5724685,76.3869861 L113.216577,30.6880302 L113.809297,30.6880302 L127.455712,76.3869861 L145.094342,76.3869861 L167.096505,1.03038755 L146.907099,1.03038755 L135.44245,50.5212618 L134.812829,50.5212618 L121.759135,1.02808244 L105.266739,1.02808244 L92.213045,50.4083111 L91.5834234,50.4083111 L80.157982,1.03038755 L59.9293694,1.03038755 L81.9684324,76.3869861 L99.5724685,76.3869861 L99.5724685,76.3869861 Z M188.635099,76.3869861 L188.635099,1.03038755 L170.329946,1.03038755 L170.329946,76.3869861 L188.635099,76.3869861 L188.635099,76.3869861 Z M225.464505,77.3436099 C231.776865,77.3436099 237.169009,76.4353936 241.643243,74.621266 C246.117477,72.8048334 249.551568,70.1954403 251.943207,66.7838663 C254.332541,63.3722923 255.541045,59.2899291 255.564108,54.5298613 C255.541045,51.5124624 255.024432,48.7901185 254.011964,46.3628297 C252.996398,43.9266909 251.478081,41.7320785 249.55618,39.9223312 C247.59582,38.0597962 245.181117,36.4508242 242.309766,35.1046355 C239.436108,33.7538366 236.128865,32.6750416 232.378811,31.8659453 L225.870414,30.3929752 C224.291066,30.0653839 222.734835,29.6349458 221.211676,29.1044145 C219.968961,28.6811792 218.783067,28.1067313 217.680721,27.3940172 C216.707459,26.7439741 215.967135,25.9878955 215.462054,25.1303918 C214.954667,24.272888 214.728649,23.2793824 214.777081,22.1498747 C214.800144,20.7760247 215.20836,19.5566175 215.999423,18.489348 C216.785874,17.4220786 217.969009,16.5830158 219.548829,15.9698545 C221.126342,15.3566933 223.098234,15.0478075 225.464505,15.0478075 C229.039279,15.0478075 231.795315,15.8038861 233.730306,17.311433 C235.665297,18.821285 236.75618,20.9235522 237.002955,23.6228449 L254.530883,23.6228449 C254.48245,18.9365409 253.262414,14.8172957 250.870775,11.2604993 C248.479135,7.70139781 245.118847,4.93756184 240.792216,2.96207608 C236.465586,0.986590321 231.368649,0 225.501405,0 C219.758703,0 214.641009,0.981980085 210.155243,2.94363514 C205.667171,4.90529019 202.154667,7.64146475 199.615423,11.1498537 C197.07618,14.6559375 195.819243,18.7406059 195.844613,23.4015536 C195.819243,29.1182452 197.691964,33.6501063 201.465081,36.997137 C205.235892,40.3464729 210.402018,42.7691514 216.958847,44.2651727 L224.871784,46.1046565 C227.634739,46.7431741 229.908757,47.4347094 231.696144,48.1838726 C233.483532,48.9307307 234.809658,49.8158958 235.66991,50.8347578 C236.534775,51.8490095 236.977586,53.0707218 237.002955,54.4929794 C236.99474,55.966813 236.485659,57.3941075 235.559207,58.5407658 C234.622847,59.7186809 233.285189,60.6384228 231.546234,61.2999916 C229.809586,61.9638654 227.708541,62.2934973 225.243099,62.2934973 C222.556252,62.2934973 220.194595,61.8785761 218.162739,61.0441235 C216.12627,60.209671 214.530306,58.9833484 213.372541,57.3651559 C212.212468,55.7446582 211.559784,53.7230701 211.41218,51.2934762 L193.884252,51.2934762 C193.958054,57.1807465 195.300324,62.0491548 197.913369,65.9010063 C200.528721,69.7505526 204.186523,72.6227291 208.898306,74.5106204 C213.605477,76.4008168 219.129081,77.345915 225.464505,77.345915 L225.464505,77.3436099 Z" id="Shape" fill="#000000" fill-rule="nonzero"></path>
        </g>
    </g>
</svg>