<?xml version="1.0" encoding="UTF-8"?>
<svg width="28px" height="27px" viewBox="0 0 28 27" version="1.1" xmlns="http://www.w3.org/2000/svg" xmlns:xlink="http://www.w3.org/1999/xlink">
    <title>IconMeetup@3x</title>
    <g id="Symbols" stroke="none" stroke-width="1" fill="none" fill-rule="evenodd">
        <g id="UI-/-Footer" transform="translate(-959.000000, -439.000000)" fill="#090910" fill-rule="nonzero">
            <g id="//Footer" transform="translate(215.000000, 0.000000)">
                <g id="Social-networks" transform="translate(700.390000, 439.000000)">
                    <g id="Bold" transform="translate(43.610000, 0.000000)">
                        <path d="M12.9320833,23.6986364 C12.5726786,23.9958054 12.1633094,24.2244875 11.72375,24.3736364 C10.5860557,24.8036246 9.32302287,24.7297657 8.24143428,24.1699994 C7.15984569,23.610233 6.35866721,22.6157783 6.0325,21.4281818 C5.95978125,21.1294531 5.90729726,20.8260154 5.87541667,20.52 C5.87541667,20.2868182 5.87541667,20.3359091 5.67,20.2868182 C4.3357506,20.0530729 3.22315133,19.1191571 2.74583333,17.8322727 C2.13422504,16.306855 2.50865858,14.5564888 3.68833333,13.4263636 C3.72080783,13.3940465 3.739108,13.3498133 3.739108,13.3036364 C3.739108,13.2574595 3.72080783,13.2132262 3.68833333,13.1809091 C3.17303375,12.281526 3.04292195,11.2070201 3.32829814,10.2076202 C3.61367432,9.20822025 4.28963003,8.37115683 5.19875,7.89136364 C5.55479755,7.6908875 5.94375879,7.5578154 6.34666667,7.49863636 C6.4414128,7.4984063 6.52887707,7.44697541 6.57625,7.36363636 C7.18640776,5.80336988 8.44596474,4.59795569 10.0156938,4.07203901 C11.5854229,3.54612233 13.303912,3.75378212 14.7083333,4.63909091 C14.783717,4.68055333 14.8746163,4.68055333 14.95,4.63909091 C16.9259169,3.95284273 19.113429,4.59534976 20.42375,6.24681818 C21.1853297,7.20450051 21.5648497,8.41785036 21.4870833,9.64636364 C21.4777563,9.72278774 21.5235074,9.79507163 21.5958333,9.81818182 C22.3397582,10.0721715 22.9393247,10.6402902 23.2403603,11.3764519 C23.541396,12.1126136 23.5145285,12.9449906 23.1666667,13.6595455 C23.0104683,14.0063627 22.784013,14.3158237 22.5020833,14.5677273 C22.4760739,14.591025 22.4611737,14.6245499 22.4611737,14.6597727 C22.4611737,14.6949955 22.4760739,14.7285205 22.5020833,14.7518182 C23.3508054,16.1799118 23.4084481,17.9532067 22.6543162,19.4350487 C21.9001843,20.9168908 20.4424915,21.8946442 18.8045833,22.0172727 L18.3333333,22.0172727 C18.24875,22.0172727 18.2125,22.0172727 18.1883333,22.1277273 C18.0503897,22.6427926 17.7888326,23.1150713 17.4270833,23.5022727 C16.9221811,24.0534599 16.2416587,24.405575 15.5058333,24.4963636 C14.5976544,24.6210009 13.6800047,24.3489721 12.9804167,23.7477273 L12.9079167,23.7477273 L12.9320833,23.6986364 Z M17.7654167,19.305 C18.076537,19.319969 18.3868148,19.2611426 18.6716667,19.1331818 C18.8928154,19.0009244 19.0212663,18.7529815 19.0033455,18.4929572 C18.9854247,18.2329329 18.8242168,18.0055839 18.5870833,17.9059091 L18.3333333,17.8077273 L17.4875,17.6604545 C16.9558333,17.55 16.7383333,17.2922727 16.7866667,16.74 C16.8119877,16.3969324 16.8810366,16.058653 16.9920833,15.7336364 C17.23375,15.0463636 17.52375,14.3590909 17.8016667,13.6840909 C18.0795833,13.0090909 18.39375,12.2359091 18.6716667,11.4995455 C18.8256778,11.1318861 18.8677632,10.7258081 18.7925,10.3336364 C18.7454662,9.78628114 18.3999528,9.31205284 17.8983333,9.10636364 C17.2711196,8.84124358 16.5589841,8.88192907 15.965,9.21681818 C15.8849018,9.28196625 15.7825918,9.31210442 15.6806037,9.30059478 C15.5786155,9.28908514 15.4853144,9.23687175 15.42125,9.15545455 C15.27625,9.02045455 15.13125,8.87318182 14.9741667,8.75045455 C14.8524223,8.67205455 14.7170971,8.61790906 14.5754167,8.59090909 C14.1290099,8.45712802 13.6462559,8.56351835 13.2945833,8.87318182 L12.9441667,9.19227273 C12.8181508,9.299747 12.6849111,9.39816742 12.5454167,9.48681818 C12.3809184,9.58327989 12.1782482,9.58327989 12.01375,9.48681818 L10.9866667,8.99590909 C10.6993869,8.84899831 10.3739208,8.7974813 10.05625,8.84863636 C9.31903513,8.94268165 8.67600613,9.40261673 8.34041667,10.0759091 C8.11984769,10.5143029 7.93398305,10.9698322 7.78458333,11.4381818 C7.25291667,13.0745455 6.73736111,14.7395455 6.23791667,16.4331818 C6.02596151,17.0555593 6.19126419,17.7463217 6.66083333,18.2004545 C7.06579141,18.5985444 7.6224183,18.7959688 8.18333333,18.7404545 C8.7037192,18.721726 9.17012447,18.4090736 9.39166667,17.9304545 C9.44613801,17.8312929 9.49456247,17.7288273 9.53666667,17.6236364 L11.0833333,13.5981818 C11.2645833,13.1195455 11.4579167,12.6531818 11.65125,12.1868182 C11.7631925,11.9549553 12.0016787,11.8144652 12.2554167,11.8309091 C12.4865615,11.8746724 12.6655902,12.0614216 12.7025,12.2972727 C12.7549234,12.4733352 12.7549234,12.6612103 12.7025,12.8372727 L11.86875,15.0095455 C11.6875,15.5004545 11.4820833,15.9790909 11.3129167,16.47 C11.2309378,16.6506132 11.2230863,16.8569349 11.2910949,17.0434361 C11.3591034,17.2299373 11.497382,17.3812884 11.6754167,17.4640909 C12.1301722,17.6500806 12.6504997,17.5385658 12.9925,17.1818182 C13.1176534,17.0212996 13.2269312,16.8486475 13.31875,16.6663636 L15.34875,12.6040909 C15.4575,12.3831818 15.56625,12.15 15.6991667,11.9413636 C15.7981382,11.7769227 15.9202648,11.6280736 16.0616667,11.4995455 C16.2057366,11.3931074 16.4009301,11.3931074 16.545,11.4995455 C16.6774552,11.5861059 16.7367739,11.7517892 16.69,11.9045455 C16.6757449,12.0314265 16.6431734,12.1554843 16.5933333,12.2727273 C16.4120833,12.6777273 16.2308333,13.0827273 16.0495833,13.5 C15.6508333,14.3836364 15.2158333,15.2427273 14.84125,16.1386364 C14.616958,16.718747 14.6359488,17.3667778 14.8938143,17.9323122 C15.1516799,18.4978466 15.6259956,18.9317045 16.2066667,19.1331818 C16.6952602,19.2639757 17.1999937,19.3218549 17.705,19.305 L17.7654167,19.305 Z" id="Shape"></path>
                        <ellipse id="Oval" transform="translate(19.926818, 24.049387) rotate(-0.080000) translate(-19.926818, -24.049387) " cx="19.9268182" cy="24.0493868" rx="1.16000004" ry="1.17818178"></ellipse>
                        <ellipse id="Oval" transform="translate(1.196974, 12.938382) rotate(-89.740000) translate(-1.196974, -12.938382) " cx="1.19697406" cy="12.9383822" rx="1.11681783" ry="1.09958369"></ellipse>
                        <path d="M15.1070833,3.46090909 C14.6612765,3.46588515 14.2566349,3.19695879 14.0826265,2.78005113 C13.9086182,2.36314347 13.9996878,1.88078109 14.3131934,1.55882366 C14.626699,1.23686622 15.1005822,1.13904497 15.5129537,1.31116339 C15.9253253,1.4832818 16.1945564,1.89126917 16.1945833,2.34409091 C16.1978114,2.6391552 16.0846625,2.92326385 15.8803658,3.13306827 C15.676069,3.3428727 15.3976121,3.46092731 15.1070833,3.46090909 L15.1070833,3.46090909 Z" id="Shape"></path>
                        <ellipse id="Oval" transform="translate(23.350608, 8.343416) rotate(-0.090000) translate(-23.350608, -8.343416) " cx="23.350608" cy="8.34341585" rx="1" ry="1"></ellipse>
                        <path d="M4.63083333,5.54727273 C4.63080989,5.32053993 4.72030791,5.10326744 4.87928957,4.94410067 C5.03827122,4.7849339 5.25345628,4.69716856 5.47666667,4.70045455 C5.93441724,4.70705022 6.30392278,5.08234738 6.31041667,5.54727273 C6.30392029,6.01897544 5.92900668,6.39976543 5.46458333,6.40636364 C5.00216811,6.39965348 4.63078614,6.01698377 4.63083333,5.54727273 L4.63083333,5.54727273 Z" id="Shape"></path>
                        <ellipse id="Oval" cx="12.8354167" cy="25.7604545" rx="1" ry="1"></ellipse>
                        <path d="M25.71625,14.8990909 C25.71625,15.2854392 25.4078861,15.5986364 25.0275,15.5986364 C24.6471139,15.5986364 24.33875,15.2854392 24.33875,14.8990909 C24.33875,14.5127426 24.6471139,14.1995455 25.0275,14.1995455 C25.2111626,14.1961835 25.3882786,14.2688053 25.5181688,14.4007314 C25.6480589,14.5326574 25.71956,14.7125496 25.71625,14.8990909 L25.71625,14.8990909 Z" id="Shape"></path>
                        <ellipse id="Oval" transform="translate(7.917838, 1.129143) rotate(-0.310000) translate(-7.917838, -1.129143) " cx="7.91783849" cy="1.12914301" rx="1" ry="1"></ellipse>
                        <path d="M26.9004167,11.4259091 C26.9004554,11.5647693 26.8453313,11.697772 26.747527,11.7947991 C26.6497227,11.8918263 26.5175119,11.9446698 26.3808333,11.9413636 C26.0972121,11.9413636 25.8672917,11.7078394 25.8672917,11.4197727 C25.8672917,11.131706 26.0972121,10.8981818 26.3808333,10.8981818 C26.5196341,10.8947833 26.6537453,10.9492909 26.7519208,11.0490052 C26.8500963,11.1487196 26.9037627,11.2849327 26.9004167,11.4259091 L26.9004167,11.4259091 Z" id="Shape"></path>
                        <path d="M4.13541667,21.6368182 C4.13541667,21.3521405 4.36263216,21.1213636 4.64291667,21.1213636 C4.92320118,21.1213636 5.15041667,21.3521405 5.15041667,21.6368182 C5.15041667,21.9214959 4.92320118,22.1522727 4.64291667,22.1522727 C4.36263216,22.1522727 4.13541667,21.9214959 4.13541667,21.6368182 Z" id="Shape"></path>
                    </g>
                </g>
            </g>
        </g>
    </g>
</svg>